<svg width="270mm" height="51.566mm" version="1.1" viewBox="0 0 270 51.566" xml:space="preserve" xmlns="http://www.w3.org/2000/svg"><g transform="matrix(.32912 0 0 .32912 -73.21 -.47328)" fill="#fff"><g><path d="m400.59 124.03 2.0366-2.9092c-1.4062-0.67875-2.3276-1.7216-2.764-3.1274-0.3877-1.4062-0.5334-3.5641-0.43639-6.4735l0.29105-13.383c0.097-1.6002 0.0483-3.1034-0.14535-4.5096-0.1457-1.4545-0.55774-2.8607-1.2365-4.2185-0.72743-1.5032-1.8669-2.6427-3.4184-3.4184-1.5032-0.77576-3.3701-1.1635-5.6004-1.1635-2.6187 0-5.14 0.43639-7.5643 1.3092-2.4246 0.87277-4.7519 2.0849-6.9825 3.6364l2.0366 2.9094c1.4548-1.2608 3.2487-2.3273 5.3823-3.2 2.1332-0.87312 4.3155-1.3335 6.5458-1.3822 1.2608 0 2.3276 0.19403 3.2004 0.58208 0.87277 0.3877 1.6242 0.9211 2.2546 1.5998 0.58173 0.63041 0.96979 1.4792 1.1638 2.5456 0.19402 1.0668 0.29068 2.473 0.29068 4.2185v3.4184c-0.19367 0-0.60607-0.024-1.2361-0.0727h-2.0366c-5.9157 0-10.546 1.0668-13.892 3.2004-3.3457 2.1332-5.0426 5.3093-5.0913 9.5278 0 1.6972 0.33937 3.3214 1.0185 4.8733 0.67874 1.5515 1.8909 2.8363 3.6364 3.8548 1.7456 0.96978 4.1215 1.4787 7.1279 1.5272 2.1336 0 4.0728-0.41215 5.8184-1.2366 1.7459-0.77576 3.3944-2.0366 4.946-3.7821 0.29104 1.3578 0.82444 2.473 1.6002 3.3458 0.77575 0.92145 1.7699 1.576 2.982 1.9639zm-14.619-3.3456c-2.861-0.0487-4.9216-0.75177-6.1824-2.1093-1.2605-1.4062-1.8909-3.2487-1.8909-5.5277 0-3.2004 1.1635-5.5764 3.4911-7.1279 2.3273-1.5515 5.9157-2.3273 10.764-2.3273h1.7455c0.58208 0 1.1155 0.024 1.6002 0.0727v11.419c-1.0668 1.7455-2.4243 3.103-4.0728 4.0728-1.6489 0.96979-3.4914 1.4549-5.5277 1.4549v-0.0727z"/><path d="m412.87 122.86h4.0728v-24.511c0-1.4545 0.19403-2.6183 0.58173-3.4911 0.38806-0.87277 1.0668-1.7699 2.0366-2.691 0.96978-0.96979 1.9882-1.6972 3.0547-2.1819 1.0668-0.48507 2.1823-0.72743 3.3457-0.72743 0.29105 0 0.58209 0.02434 0.87278 0.07267 0.29104 0.09701 0.5334 0.19403 0.72742 0.29104l1.6002-4.3639c-0.097-0.04868-0.33937-0.12136-0.72742-0.21837-0.38771-0.09701-0.82409-0.14534-1.3092-0.14534-1.0181 0-2.0606 0.19403-3.1274 0.58173-1.0668 0.38806-2.1336 0.99413-3.2004 1.8182-0.77576 0.58208-1.5032 1.2125-2.1819 1.8912-0.67874 0.72743-1.2608 1.4788-1.7455 2.2546 0-1.8909-0.14535-3.3697-0.43639-4.4365s-0.50906-1.6972-0.65475-1.8912l-4.0728 1.0185c0.14534 0.19368 0.36371 0.87277 0.6544 2.0362 0.29104 1.1638 0.43639 2.958 0.43639 5.3823v29.239-0.0727z"/><path d="m442.76 123.23h4.1458l13.674-37.457h-4.3639l-9.8915 28.147c-0.38805 1.0668-0.70308 2.0366-0.94544 2.9094-0.24271 0.87277-0.36371 1.4545-0.36371 1.7455h-0.1457c-0.097-0.29104-0.2667-0.87277-0.50906-1.7455-0.19403-0.87277-0.46073-1.8182-0.8001-2.8367l-9.8915-28.802-4.1458 0.87277 13.237 37.239z"/><path d="m492.87 124.03 2.691-2.6912c-0.67874-0.72708-1.1638-1.6485-1.4545-2.7637-0.29104-1.1638-0.43639-2.8367-0.43639-5.0186v-28.366l-4.0732 0.72743v27.711c-1.2608 2.1336-2.8123 3.7821-4.6549 4.9459-1.8426 1.1638-3.7334 1.7456-5.673 1.7456-1.0185 0-1.9639-0.14535-2.8367-0.43639-0.87277-0.29104-1.6002-0.67874-2.1819-1.1638-0.77575-0.63042-1.3578-1.4302-1.7455-2.4-0.38806-1.0185-0.58208-2.3033-0.58208-3.8548v-27.348l-3.9275 0.87277v27.638c0 1.2121 0.1457 2.3033 0.43639 3.2731 0.24271 1.0181 0.60607 1.8669 1.0911 2.5456 0.72743 1.3575 1.8182 2.4243 3.2731 3.2 1.4545 0.77597 3.2487 1.1639 5.382 1.1639 2.4246 0 4.6549-0.50913 6.6915-1.5272 2.0366-0.96978 3.7821-2.4246 5.2366-4.3642 0.19403 1.4548 0.5334 2.6427 1.0185 3.5641 0.48472 0.92111 1.1635 1.7697 2.0362 2.5455v-0.0727z"/><path d="m514.47 123.88c1.1638 0 2.2306-0.097 3.2004-0.29093 0.96978-0.19396 1.8426-0.4849 2.6183-0.87267l-0.58209-2.6187c-0.48471 0.24271-1.0425 0.43674-1.6729 0.58208-0.58173 0.14535-1.3092 0.21802-2.1819 0.21802-1.8426 0-3.1517-0.50906-3.9275-1.5272-0.77575-1.0185-1.1638-2.5456-1.1638-4.5822v-25.747h8.0006l1.3092-3.0547h-9.1641c0-1.6485 0.0483-3.2 0.14534-4.6549 0.097-1.4545 0.19403-2.691 0.29104-3.7091 0.097-1.0668 0.19368-1.7455 0.29069-2.0366l-4.2912 0.87277c-0.097 0.29104-0.19367 0.94544-0.29068 1.9639-0.097 1.0664-0.19403 2.2789-0.29105 3.6364-0.097 1.3578-0.14534 2.691-0.14534 4.0001h-4.8006v3.0551h4.8006v26.838c0 1.6969 0.24236 3.1274 0.72707 4.2912 0.48507 1.1638 1.2122 2.0366 2.1819 2.6183 0.58209 0.38788 1.2608 0.70309 2.0366 0.94552 0.77576 0.29093 1.6729 0.43638 2.6913 0.43638v-0.0727z"/><path d="m530.47 77.334c0.87277 0 1.6245-0.31503 2.255-0.94544 0.63006-0.58208 0.94545-1.3335 0.94545-2.255 0-0.96943-0.31539-1.7455-0.94545-2.3273-0.63041-0.58173-1.3822-0.87277-2.255-0.87277-0.92111 0-1.6969 0.31503-2.3273 0.94544-0.63041 0.58208-0.94544 1.3335-0.94544 2.2546 0 0.92146 0.31503 1.6729 0.94544 2.255 0.63042 0.63041 1.4062 0.94544 2.3273 0.94544zm-2.1819 45.531h4.2185v-37.821l-4.2185 0.65476v37.094-0.0727z"/><path d="m553.44 123.88c1.1638 0 2.2303-0.097 3.2-0.29093 0.96979-0.19396 1.8426-0.4849 2.6187-0.87267l-0.58208-2.6187c-0.48472 0.24271-1.0425 0.43674-1.6729 0.58208-0.58173 0.14535-1.3092 0.21802-2.1819 0.21802-1.8426 0-3.1517-0.50906-3.9275-1.5272-0.77576-1.0185-1.1638-2.5456-1.1638-4.5822v-25.747h8.0006l1.3092-3.0547h-9.1645c0-1.6485 0.0487-3.2 0.1457-4.6549 0.097-1.4545 0.19403-2.691 0.29069-3.7091 0.097-1.0668 0.19402-1.7455 0.29104-2.0366l-4.2912 0.87277c-0.097 0.29104-0.19403 0.94544-0.29104 1.9639-0.0967 1.0664-0.19368 2.2789-0.29069 3.6364-0.097 1.3578-0.1457 2.691-0.1457 4.0001h-4.8002v3.0551h4.8002v26.838c0 1.6969 0.24271 3.1274 0.72743 4.2912 0.48507 1.1638 1.2121 2.0366 2.1819 2.6183 0.58208 0.38788 1.2608 0.70309 2.0366 0.94552 0.77575 0.29093 1.6729 0.43638 2.691 0.43638v-0.0727z"/><path d="m580.79 123.59c2.3742 0 4.5332-0.36368 6.47-1.091 1.9897-0.67875 3.7606-1.6972 5.3128-3.0547l-1.6016-2.6183c-1.2594 1.1638-2.667 2.0366-4.2192 2.6183-1.5522 0.5334-3.2491 0.8001-5.0906 0.8001-2.0849 0-3.9511-0.38806-5.6021-1.1638-1.6475-0.77576-2.981-1.9152-3.9987-3.4184-0.67875-1.0668-1.2365-2.376-1.6729-3.9275-0.43639-1.5515-0.67875-3.3214-0.72708-5.3097v-1.8909h23.858v-0.87277c0-2.7153-0.14817-4.9943-0.43745-6.8368-0.2928-1.8426-0.75142-3.3944-1.3829-4.6549-0.63147-1.2608-1.4288-2.376-2.3989-3.3457-1.1148-1.1151-2.4483-2.0122-4.0005-2.691-1.5522-0.6791-3.3232-1.0185-5.3093-1.0185-2.2296 0-4.2192 0.43639-5.9655 1.3092-1.7448 0.87277-3.248 2.0609-4.5089 3.5641-1.4545 1.7455-2.5456 3.7578-3.2727 6.0367-0.72742 2.2303-1.0911 4.9216-1.0911 8.0733 0 3.9275 0.60608 7.3459 1.8182 10.255s2.982 5.1883 5.3097 6.8368c2.3269 1.6485 5.188 2.4729 8.5817 2.4729zm-11.202-22.256c0.24271-4.4122 1.2608-7.7096 3.055-9.8915 1.8433-2.2303 4.1716-3.3457 6.9832-3.3457 1.7462 0 3.2491 0.33937 4.5085 1.0185 1.2594 0.72708 2.2542 1.6729 2.981 2.8363 0.58208 0.96979 1.0442 2.2063 1.3829 3.7095 0.33866 1.4545 0.508 3.2971 0.508 5.5277h-19.491v-0.0727z"/><path d="m627.91 124.03 2.0355-2.9092c-1.404-0.67875-2.3248-1.7216-2.7622-3.1274-0.38805-1.4062-0.53269-3.5641-0.43744-6.4735l0.29281-13.383c0.0952-1.6002 0.0494-3.1034-0.14464-4.5096-0.14817-1.4545-0.56092-2.8607-1.2382-4.2185-0.72672-1.5032-1.8662-2.6427-3.4184-3.4184-1.5028-0.77576-3.369-1.1635-5.5986-1.1635-2.6211 0-5.14 0.43639-7.5671 1.3092-2.4236 0.87277-4.7519 2.0849-6.9815 3.6364l2.0355 2.9094c1.457-1.2608 3.2491-2.3273 5.3834-3.2 2.1343-0.87312 4.3145-1.3335 6.5476-1.3822 1.2594 0 2.3248 0.19403 3.1997 0.58208 0.87136 0.3877 1.6228 0.9211 2.2542 1.5998 0.58208 0.63041 0.97014 1.4792 1.1642 2.5456 0.19402 1.0668 0.28927 2.473 0.28927 4.2185v3.4184c-0.19402 0-0.60677-0.024-1.2347-0.0727h-2.039c-5.9126 0-10.545 1.0668-13.889 3.2004-3.3479 2.1332-5.0447 5.3093-5.0941 9.5278 0 1.6972 0.3422 3.3214 1.0195 4.8733 0.67733 1.5515 1.8909 2.8363 3.6371 3.8548 1.7462 0.96978 4.1204 1.4787 7.1261 1.5272 2.1343 0 4.0746-0.41215 5.8208-1.2366 1.7462-0.77576 3.3937-2.0366 4.946-3.7821 0.28928 1.3578 0.82197 2.473 1.5981 3.3458 0.77611 0.92145 1.771 1.576 2.9845 1.9639zm-14.619-3.3456c-2.861-0.0487-4.9212-0.75177-6.1807-2.1093-1.2629-1.4062-1.8909-3.2487-1.8909-5.5277 0-3.2004 1.1642-5.5764 3.489-7.1279 2.3283-1.5515 5.9161-2.3273 10.767-2.3273h1.7427c0.58209 0 1.1183 0.024 1.6016 0.0727v11.419c-1.0654 1.7455-2.4236 3.103-4.0746 4.0728-1.6475 0.96979-3.489 1.4549-5.5245 1.4549v-0.0727z"/><path d="m652.71 123.45c2.1343 0 4.0746-0.38788 5.8208-1.1636 1.6969-0.77611 3.175-2.0122 4.4344-3.7095 0.0988 0.92111 0.24341 1.8182 0.43744 2.691 0.19403 0.87278 0.36336 1.4549 0.508 1.7456h4.0746c-0.38805-1.0669-0.67733-2.4727-0.87136-4.2186-0.19403-1.7455-0.2928-4.0972-0.2928-7.0548v-42.476l-4.0711-0.72743v21.529c-1.1183-1.5032-2.547-2.667-4.2933-3.4911-1.7462-0.82444-3.7324-1.2365-5.962-1.2365-1.5064 0-2.9351 0.24236-4.2933 0.72708-1.3582 0.48507-2.667 1.2608-3.9264 2.3276-2.1343 1.7455-3.7359 3.9762-4.8013 6.6915-1.0654 2.7153-1.5981 5.9154-1.5981 9.6005 0 2.764 0.28928 5.3097 0.87136 7.6369 0.58209 2.279 1.4288 4.2185 2.5471 5.8187 1.2594 1.7455 2.8363 3.079 4.7272 4.0002 1.8909 0.96985 4.0958 1.4548 6.6181 1.4548zm0.14816-3.4912c-1.9403 0-3.6124-0.3877-5.02-1.1638-1.4076-0.77576-2.5682-1.9636-3.4925-3.5638-0.67734-1.1638-1.1606-2.691-1.4534-4.5822-0.28928-1.8426-0.43744-3.8792-0.43744-6.1094 0-2.8123 0.24341-5.14 0.73025-6.9825 0.4833-1.8426 1.2347-3.4667 2.2542-4.8729 0.92075-1.3575 2.0602-2.376 3.4184-3.0547 1.3582-0.67874 2.8116-1.0185 4.3639-1.0185 2.3742 0 4.3392 0.38806 5.8914 1.1638 1.5522 0.77576 2.7622 1.7942 3.6371 3.0547v21.529c-0.77611 1.5515-1.9897 2.8607-3.6371 3.9275-1.651 1.0668-3.7359 1.6245-6.2548 1.6729v-0.0727z"/><path d="m704.64 124.03 2.6917-2.6912c-0.68086-0.72708-1.1642-1.6485-1.457-2.7637-0.28927-1.1638-0.43391-2.8367-0.43391-5.0186v-28.366l-4.0746 0.72743v27.711c-1.2594 2.1336-2.8116 3.7821-4.6567 4.9459-1.8415 1.1638-3.7324 1.7456-5.6727 1.7456-1.016 0-1.9614-0.14535-2.8363-0.43639-0.87136-0.29104-1.5981-0.67874-2.1802-1.1638-0.77611-0.63042-1.3582-1.4302-1.7462-2.4-0.38805-1.0185-0.58208-2.3033-0.58208-3.8548v-27.348l-3.9264 0.87277v27.638c0 1.2121 0.14464 2.3033 0.43392 3.2731 0.24342 1.0181 0.60678 1.8669 1.0936 2.5456 0.72672 1.3575 1.8168 2.4243 3.2702 3.2 1.457 0.77597 3.2491 1.1639 5.3834 1.1639 2.4236 0 4.6567-0.50913 6.6922-1.5272 2.0355-0.96978 3.7818-2.4246 5.2352-4.3642 0.19403 1.4548 0.5327 2.6427 1.0195 3.5641 0.48331 0.92111 1.1642 1.7697 2.0355 2.5455v-0.0727z"/><path d="m727.69 123.74c4.0252-0.0485 7.2002-1.1151 9.5285-3.2 2.3283-2.0366 3.5137-4.8006 3.563-8.2917 0-2.5213-0.75141-4.6306-2.2542-6.3278-1.5522-1.6972-4.0005-2.885-7.3448-3.5638l-4.8013-1.0185c-2.0849-0.43638-3.6371-1.1635-4.6531-2.1819-1.0195-1.0668-1.5275-2.473-1.5275-4.2185 0-2.0362 0.67733-3.6851 2.0355-4.9456 1.3582-1.2608 3.3443-1.9152 5.9619-1.9639 1.651 0 3.2244 0.24236 4.7308 0.72743 1.5028 0.48472 2.9316 1.1151 4.2898 1.8909l1.6016-2.982c-1.457-0.87277-3.1044-1.5515-4.9459-2.0366-1.845-0.53305-3.7606-0.79975-5.7468-0.79975-3.8312 0.04833-6.8368 1.0425-9.0205 2.982-2.1802 1.9392-3.295 4.4849-3.3443 7.6369 0 2.6183 0.77611 4.7516 2.3283 6.4004 1.5522 1.6485 3.7818 2.7637 6.6887 3.3454l4.6567 0.87277c2.4236 0.5334 4.1698 1.3822 5.2352 2.5456 1.0689 1.1638 1.6016 2.6187 1.6016 4.3642 0 2.2789-0.75141 4.0972-2.2542 5.455-1.5522 1.3575-3.6865 2.0362-6.3994 2.0362-2.1343 0-4.1734-0.29069-6.1101-0.87277-1.9403-0.58173-3.7606-1.4062-5.4575-2.473l-1.5981 2.982c1.7462 1.1155 3.7324 1.9882 5.9619 2.6187 2.2331 0.6302 4.5367 0.94537 6.9109 0.94541v-0.0727z"/><path d="m764.05 123.59c2.3777 0 4.5367-0.36368 6.4735-1.091 1.9897-0.67875 3.7606-1.6972 5.3093-3.0547l-1.5981-2.6183c-1.263 1.1638-2.667 2.0366-4.2192 2.6183-1.5522 0.5334-3.2491 0.8001-5.0906 0.8001-2.0849 0-3.9511-0.38806-5.6021-1.1638-1.6475-0.77576-2.981-1.9152-4.0005-3.4184-0.67733-1.0668-1.2347-2.376-1.6722-3.9275-0.43745-1.5515-0.67734-3.3214-0.72673-5.3097v-1.8909h23.855v-0.87277c0-2.7153-0.14464-4.9943-0.43392-6.8368-0.29281-1.8426-0.75142-3.3944-1.3829-4.6549-0.63147-1.2608-1.4288-2.376-2.3989-3.3457-1.1148-1.1151-2.4483-2.0122-4.0005-2.691-1.5522-0.6791-3.3232-1.0185-5.3093-1.0185-2.2331 0-4.2192 0.43639-5.9655 1.3092s-3.2491 2.0609-4.5085 3.5641c-1.457 1.7455-2.5471 3.7578-3.2738 6.0367-0.72672 2.2303-1.0901 4.9216-1.0901 8.0733 0 3.9275 0.60678 7.3459 1.8168 10.255 1.2136 2.9094 2.981 5.1883 5.3093 6.8368 2.3283 1.6485 5.1894 2.4729 8.5831 2.4729zm-11.201-22.256c0.24342-4.4122 1.263-7.7096 3.0551-9.8915 1.845-2.2303 4.1698-3.3457 6.985-3.3457 1.7427 0 3.2456 0.33937 4.5085 1.0185 1.2594 0.72708 2.2542 1.6729 2.981 2.8363 0.58208 0.96979 1.0442 2.2063 1.3829 3.7095 0.33866 1.4545 0.508 3.2971 0.508 5.5277h-19.491v-0.0727z"/><path d="m805.87 77.334c0.87136 0 1.6228-0.31503 2.2542-0.94544 0.63148-0.58208 0.94545-1.3335 0.94545-2.255 0-0.96943-0.31397-1.7455-0.94545-2.3273-0.63147-0.58173-1.3829-0.87277-2.2542-0.87277-0.92075 0-1.6969 0.31503-2.3283 0.94544-0.63147 0.58208-0.94544 1.3335-0.94544 2.2546 0 0.92146 0.31397 1.6729 0.94544 2.255 0.63147 0.63041 1.4076 0.94544 2.3283 0.94544zm-2.1837 45.531h4.2192v-37.821l-4.2192 0.65476v37.094-0.0727z"/><path d="m820.99 122.86h3.9264v-28.511c1.5522-1.7455 3.3479-3.1517 5.3834-4.2185 1.9861-1.0181 3.8559-1.5275 5.5986-1.5275 1.0689 0 2.0391 0.17004 2.9104 0.50941 0.87136 0.29069 1.5522 0.70309 2.0355 1.2365 0.58208 0.67874 1.0195 1.4788 1.3088 2.3999 0.29281 0.92146 0.43745 2.2306 0.43745 3.9275v26.184h4.0746v-28.22c0-0.96979-0.12347-1.8912-0.36336-2.764-0.29281-0.87277-0.65617-1.6485-1.0936-2.3273-0.72672-1.3578-1.8168-2.4246-3.2702-3.2004-1.457-0.77576-3.1538-1.1638-5.0941-1.1638-2.1308 0-4.1945 0.50941-6.1807 1.5275-2.0355 1.0181-3.9758 2.4973-5.8173 4.4365-0.0494-1.6485-0.21873-3.006-0.51153-4.0728-0.28928-1.0668-0.48331-1.6972-0.58208-1.8912l-3.9264 1.0185c0.28928 0.58173 0.58208 1.4545 0.87136 2.6183 0.29281 1.1638 0.43744 2.7637 0.43744 4.8002v29.311-0.0727z"/><path d="m868.69 123.74c4.0252-0.0485 7.2037-1.1151 9.5285-3.2 2.3283-2.0366 3.5172-4.8006 3.5666-8.2917 0-2.5213-0.75494-4.6306-2.2578-6.3278-1.5487-1.6972-4.0005-2.885-7.3448-3.5638l-4.8013-1.0185c-2.0849-0.43638-3.6336-1.1635-4.6531-2.1819-1.0195-1.0668-1.5275-2.473-1.5275-4.2185 0-2.0362 0.67733-3.6851 2.0355-4.9456 1.3582-1.2608 3.3479-1.9152 5.9655-1.9639 1.6475 0 3.2244 0.24236 4.7272 0.72743 1.5028 0.48472 2.9316 1.1151 4.2898 1.8909l1.6016-2.982c-1.4534-0.87277-3.1044-1.5515-4.9459-2.0366-1.8415-0.53305-3.7571-0.79975-5.7468-0.79975-3.8312 0.04833-6.8368 1.0425-9.017 2.982-2.1837 1.9392-3.2985 4.4849-3.3479 7.6369 0 2.6183 0.77611 4.7516 2.3283 6.4004 1.5522 1.6485 3.7818 2.7637 6.6922 3.3454l4.6531 0.87277c2.4271 0.5334 4.1698 1.3822 5.2388 2.5456 1.0654 1.1638 1.5981 2.6187 1.5981 4.3642 0 2.2789-0.75142 4.0972-2.2542 5.455-1.5522 1.3575-3.683 2.0362-6.3994 2.0362-2.1343 0-4.1698-0.29069-6.1101-0.87277-1.9403-0.58173-3.7571-1.4062-5.454-2.473l-1.6016 2.982c1.7462 1.1155 3.7324 1.9882 5.9655 2.6187 2.2296 0.6302 4.5332 0.94537 6.9074 0.94541v-0.0727z"/><path d="m899.39 123.88c1.1642 0 2.2296-0.097 3.1997-0.29093 0.97014-0.19396 1.8415-0.4849 2.6176-0.87267l-0.58208-2.6187c-0.48331 0.24271-1.0407 0.43674-1.6722 0.58208-0.58208 0.14535-1.3088 0.21802-2.1837 0.21802-1.8415 0-3.1503-0.50906-3.9264-1.5272-0.77611-1.0185-1.1642-2.5456-1.1642-4.5822v-25.747h8.001l1.3088-3.0547h-9.1652c0-1.6485 0.0494-3.2 0.14817-4.6549 0.0953-1.4545 0.19403-2.691 0.28928-3.7091 0.0988-1.0668 0.19403-1.7455 0.2928-2.0366l-4.2933 0.87277c-0.0953 0.29104-0.19403 0.94544-0.28928 1.9639-0.0988 1.0664-0.19403 2.2789-0.2928 3.6364-0.0952 1.3578-0.14464 2.691-0.14464 4.0001h-4.8013v3.0551h4.8013v26.838c0 1.6969 0.24341 3.1274 0.72672 4.2912 0.48683 1.1638 1.2136 2.0366 2.1837 2.6183 0.58209 0.38788 1.2594 0.70309 2.0355 0.94552 0.77611 0.29093 1.6722 0.43638 2.6917 0.43638v-0.0727z"/><path d="m915.38 77.334c0.87489 0 1.6263-0.31503 2.2542-0.94544 0.63147-0.58208 0.94545-1.3335 0.94545-2.255 0-0.96943-0.31398-1.7455-0.94545-2.3273-0.62794-0.58173-1.3794-0.87277-2.2542-0.87277-0.92075 0-1.6969 0.31503-2.3283 0.94544-0.62795 0.58208-0.94545 1.3335-0.94545 2.2546 0 0.92146 0.3175 1.6729 0.94545 2.255 0.63147 0.63041 1.4076 0.94544 2.3283 0.94544zm-2.1802 45.531h4.2157v-37.821l-4.2157 0.65476v37.094-0.0727z"/><path d="m938.36 123.88c1.1642 0 2.2296-0.097 3.1997-0.29093 0.97014-0.19396 1.8415-0.4849 2.6176-0.87267l-0.58208-2.6187c-0.48331 0.24271-1.0407 0.43674-1.6722 0.58208-0.58208 0.14535-1.3088 0.21802-2.1802 0.21802-1.845 0-3.1538-0.50906-3.9299-1.5272-0.77611-1.0185-1.1642-2.5456-1.1642-4.5822v-25.747h8.001l1.3088-3.0547h-9.1616c0-1.6485 0.0459-3.2 0.14464-4.6549 0.0952-1.4545 0.19403-2.691 0.28928-3.7091 0.0988-1.0668 0.19402-1.7455 0.2928-2.0366l-4.2933 0.87277c-0.0952 0.29104-0.19403 0.94544-0.28928 1.9639-0.0988 1.0664-0.19403 2.2789-0.29281 3.6364-0.0952 1.3578-0.14464 2.691-0.14464 4.0001h-4.7978v3.0551h4.7978v26.838c0 1.6969 0.24342 3.1274 0.72673 4.2912 0.48683 1.1638 1.2136 2.0366 2.1837 2.6183 0.58208 0.38788 1.2594 0.70309 2.0355 0.94552 0.77611 0.29093 1.6722 0.43638 2.6917 0.43638v-0.0727z"/><path d="m976.91 124.03 2.6917-2.6912c-0.68086-0.72708-1.1642-1.6485-1.457-2.7637-0.28927-1.1638-0.43391-2.8367-0.43391-5.0186v-28.366l-4.0746 0.72743v27.711c-1.2594 2.1336-2.8116 3.7821-4.6567 4.9459-1.8415 1.1638-3.7324 1.7456-5.6727 1.7456-1.016 0-1.9614-0.14535-2.8363-0.43639-0.87136-0.29104-1.5981-0.67874-2.1802-1.1638-0.77611-0.63042-1.3582-1.4302-1.7462-2.4-0.38805-1.0185-0.58208-2.3033-0.58208-3.8548v-27.348l-3.9264 0.87277v27.638c0 1.2121 0.14464 2.3033 0.43392 3.2731 0.24342 1.0181 0.60678 1.8669 1.0936 2.5456 0.72672 1.3575 1.8168 2.4243 3.2702 3.2 1.457 0.77597 3.2491 1.1639 5.3834 1.1639 2.4236 0 4.6567-0.50913 6.6922-1.5272 2.0355-0.96978 3.7818-2.4246 5.2352-4.3642 0.19403 1.4548 0.5327 2.6427 1.0195 3.5641 0.48331 0.92111 1.1642 1.7697 2.0355 2.5455v-0.0727z"/><path d="m1015.4 124.03 2.6917-2.6912c-0.6809-0.72708-1.1642-1.6485-1.457-2.7637-0.2893-1.1638-0.4339-2.8367-0.4339-5.0186v-28.366l-4.0746 0.72743v27.711c-1.2594 2.1336-2.8116 3.7821-4.6531 4.9459-1.8451 1.1638-3.736 1.7456-5.6727 1.7456-1.0195 0-1.965-0.14535-2.8399-0.43639-0.87136-0.29104-1.5981-0.67874-2.1802-1.1638-0.77611-0.63042-1.3582-1.4302-1.7462-2.4-0.38806-1.0185-0.58209-2.3033-0.58209-3.8548v-27.348l-3.9264 0.87277v27.638c0 1.2121 0.14464 2.3033 0.43744 3.2731 0.23989 1.0181 0.60325 1.8669 1.0901 2.5456 0.72672 1.3575 1.8168 2.4243 3.2738 3.2 1.4534 0.77597 3.2491 1.1639 5.3799 1.1639 2.4271 0 4.6566-0.50913 6.6922-1.5272 2.0355-0.96978 3.7817-2.4246 5.2352-4.3642 0.194 1.4548 0.5362 2.6427 1.0195 3.5641 0.4869 0.92111 1.1642 1.7697 2.0355 2.5455v-0.0727z"/><path d="m1037 123.88c1.1642 0 2.2296-0.097 3.1997-0.29093 0.9702-0.19396 1.8415-0.4849 2.6176-0.87267l-0.5821-2.6187c-0.4833 0.24271-1.0407 0.43674-1.6721 0.58208-0.5821 0.14535-1.3088 0.21802-2.1802 0.21802-1.845 0-3.1538-0.50906-3.9299-1.5272-0.7761-1.0185-1.1642-2.5456-1.1642-4.5822v-25.747h8.001l1.3088-3.0547h-9.1616c0-1.6485 0.046-3.2 0.1446-4.6549 0.095-1.4545 0.194-2.691 0.2893-3.7091 0.099-1.0668 0.194-1.7455 0.2928-2.0366l-4.2933 0.87277c-0.095 0.29104-0.1905 0.94544-0.2893 1.9639-0.095 1.0664-0.194 2.2789-0.2893 3.6364-0.099 1.3578-0.1481 2.691-0.1481 4.0001h-4.7978v3.0551h4.7978v26.838c0 1.6969 0.2434 3.1274 0.7267 4.2912 0.4868 1.1638 1.2135 2.0366 2.1837 2.6183 0.5821 0.38788 1.2594 0.70309 2.0355 0.94552 0.7761 0.29093 1.6722 0.43638 2.6917 0.43638v-0.0727z"/><path d="m394.92 7.6645c-0.0917-0.28011-0.33831-0.60713-0.96555-0.60713-0.1905 0-0.35843 0.11218-0.49954 0.33373-0.0942 0.1457-0.20814 0.3115-0.34043 0.49953-0.13441 0.17251-0.28681 0.33831-0.47025 0.4953-0.15699 0.13864-0.35842 0.22401-0.58914 0.26423-0.34502 0.046919-0.70132 0.074083-1.0552 0.085019-1.5279 0.049389-2.9658 0.022578-4.3459 0.053975-2.3453 0.053622-4.9438 0.046919-7.6052-0.017992-1.4471-0.035983-2.9051-0.089606-4.3321-0.16122-0.3115-0.020108-0.55351-0.085372-0.72143-0.20602-0.17921-0.12559-0.32491-0.26-0.43215-0.39441-0.11219-0.1524-0.21061-0.28434-0.2914-0.39864-0.15663-0.22648-0.34713-0.2734-0.47942-0.2734-0.36054 0-0.64735 0.10089-0.85337 0.29351-0.18803 0.17251-0.33585 0.39864-0.43004 0.66746-0.0875 0.25329-0.14781 0.53763-0.16369 0.84455l-0.0155 0.1143c-0.0226 0.25294-0.0381 0.49495-0.0582 0.71896-0.121 1.2051-0.2667 2.1526-0.45261 2.8067-0.19474 0.69462-0.29351 1.239-0.29351 1.6644 0 0.33831 0.0829 0.56021 0.25999 0.69462 0.15664 0.1277 0.37395 0.19262 0.66746 0.19262 0.1838 0 0.36512-0.16369 0.62265-0.60043 0.20849-0.34502 0.42369-0.72355 0.62971-1.1222 0.21273-0.41663 0.40993-0.81104 0.60008-1.1917 0.22401-0.43674 0.35172-0.61842 0.41239-0.67874 0.44556-0.42333 0.91405-0.71014 1.3776-0.85125 0.48824-0.14781 0.99448-0.21943 1.5166-0.21943h2.1862c0.55103 0 1.0707 0.03775 1.5614 0.11853 0.56233 0.09172 0.62512 0.24871 0.62936 0.27552 0.0247 0.12771 0.0427 0.41204 0.0473 0.62054 0.0134 0.30903 0.0201 0.52423 0.0201 0.64276v17.099c0 0.64488-0.0335 1.1938-0.0988 1.6263-0.0692 0.40746-0.19932 0.75248-0.38735 1.0192-0.18803 0.26211-0.47272 0.46814-0.83785 0.61383-0.40075 0.16122-0.93415 0.27305-1.6242 0.34502-0.0448 0.01552-0.15204 0.02681-0.40287 0.02681-0.26211 0-0.51329 0.04904-0.75283 0.14323-0.21272 0.0829-0.45473 0.2801-0.45473 0.75283 0 0.52176 0.34714 0.62054 0.49072 0.63147 0.20602 0.02716 0.41416 0.04269 0.60677 0.04269 0.86043 0 1.7138-0.02681 2.5492-0.08961 1.7184-0.12559 3.5708-0.1143 5.3001 0 0.92533 0.0628 1.8683 0.08961 2.8205 0.08961 0.30903 0 0.55774-0.01552 0.74365-0.04269 0.28681-0.0381 0.43216-0.31115 0.43216-0.81315 0-0.23495-0.10302-0.62477-0.81316-0.70556l-1.3977-0.1591c-0.48825-0.05362-0.96097-0.19473-1.4136-0.40746-0.40993-0.19509-0.65194-0.5715-0.75918-1.1649-0.0695-0.36512-0.11677-0.73484-0.12347-1.1021-0.0109-0.3743-0.0176-0.74612-0.0176-1.118 0.0469-2.0764 0.0423-4.1688-0.0205-6.2272-0.0515-2.0454-0.0603-4.1377-0.0134-6.2096l0.0674-4.3145c0-0.52634 0.0314-0.92287 0.0896-1.1716 0.0561-0.30233 0.14111-0.41451 0.18379-0.46143 0.0536-0.05362 0.10055-0.07408 0.19932-0.08079 0.31362 0.02716 0.64488 0.02716 1.1938 0.0067 0.65405-0.03351 1.5321-0.02893 2.4306 0.03598 0.54187 0.0314 1.0213 0.09172 1.4852 0.17039 0.44132 0.07832 0.83749 0.20144 1.1557 0.36724 0.28681 0.1524 0.48401 0.34502 0.58455 0.57115 0.12771 0.32702 0.1838 0.68121 0.16157 1.0418-0.0201 0.39864-0.054 0.76835-0.0829 1.1042-0.0448 0.36089-0.0339 0.66992 0.0155 0.91863 0.0402 0.18344 0.18838 0.50165 0.70803 0.50165 0.31362 0 0.73907-0.15663 0.96308-0.93169 0.1591-0.51752 0.28469-1.1515 0.36759-1.8729 0.0759-0.70556 0.14993-1.4404 0.21026-2.1819 0.0561-0.71684 0.16369-1.2968 0.32032-1.7226 0.11218-0.30692 0.10548-0.64064-0.0155-0.99448"/><path d="m421.6 33.019c-0.29562-0.08961-0.63394-0.17004-1.0125-0.23495-0.36724-0.06738-0.73907-0.17251-1.1112-0.3115-0.34043-0.12312-0.59584-0.37183-0.78387-0.77505-1.1896-2.4797-2.3453-5.0066-3.4297-7.5131-1.0573-2.4642-2.0966-5.0292-3.1002-7.632-0.54433-1.3398-1.0929-2.7062-1.6598-4.0996-0.56903-1.3864-1.1222-2.7527-1.6623-4.0901-0.0536-0.13229-0.13193-0.2734-0.23953-0.42122-0.13441-0.18803-0.32914-0.28011-0.55986-0.28011-0.26458 0-0.44591 0.06738-0.54681 0.21272-0.0737 0.10336-0.1344 0.22648-0.18803 0.37888-0.87136 2.1414-1.7385 4.2739-2.612 6.3952-0.87383 2.117-1.7427 4.2541-2.6141 6.3955l-1.5367 3.7634c-0.49741 1.2118-0.99906 2.4797-1.5032 3.7588-0.0741 0.16334-0.17039 0.42545-0.2981 0.76588-0.13441 0.34078-0.27093 0.68792-0.42545 1.0329-0.1524 0.35384-0.30021 0.68756-0.44132 1.0058-0.17463 0.39652-0.25542 0.53516-0.30233 0.58914-0.1771 0.28681-0.39864 0.47025-0.63642 0.55104-0.28892 0.08961-0.55985 0.15452-0.82655 0.19932-0.29563 0.05609-0.53764 0.12771-0.74789 0.2353-0.1771 0.09172-0.39899 0.30692-0.39899 0.79058 0 0.18838 0.0494 0.36301 0.16121 0.51541 0.12348 0.17921 0.31151 0.27305 0.54681 0.27305 0.54434 0 1.046-0.03563 1.4961-0.09384 1.0305-0.139 2.4126-0.1076 3.7119 0.0314 0.78846 0.08714 1.5702 0.12982 2.3209 0.12982 0.23954 0 0.46144-0.08749 0.63818-0.24871 0.19262-0.17251 0.28469-0.39194 0.28469-0.63853 0-0.45226-0.26-0.75918-0.73695-0.86678-0.3743-0.08079-0.79975-0.1457-1.2792-0.19932-0.43921-0.0381-0.83785-0.13441-1.1984-0.2667-0.17921-0.06703-0.4258-0.21943-0.4258-0.75494 0-0.0381 0.0201-0.21731 0.21978-0.93169 0.16122-0.53763 0.36512-1.2188 0.62018-2.0048 0.25788-0.80222 0.56903-1.6937 0.93416-2.6525 0.33831-0.92957 0.72813-1.8814 1.1292-2.8448 0.27552-0.04939 0.61136-0.09172 1.0079-0.11183 0.93628-0.0448 1.9219-0.0381 2.8092-0.01799 0.46567 0.01341 0.83785 0.01799 1.1176 0.01799h0.67451c0.38524 0 0.77047 0.02011 1.1423 0.05362 0.32244 0.02928 0.55986 0.121 0.72355 0.2734 0 0 0.0402 0.05362 0.14111 0.28681 0.085 0.19262 0.18591 0.40746 0.29809 0.63394 0.35596 0.84667 0.70097 1.6732 1.0259 2.473 0.32703 0.80186 0.62724 1.5275 0.88018 2.184l0.67451 1.7159c0.18345 0.47272 0.31115 0.82656 0.39194 1.0933 0.0201 0.06244 0.0402 0.12735 0.0603 0.19262 0.0201 0.06033 0.0268 0.12312 0.0268 0.17462 0 0.38523-0.17922 0.48613-0.33797 0.53093-0.31608 0.08961-0.67451 0.14781-1.0686 0.16581-0.4258 0.02681-0.80892 0.06244-1.1268 0.10724-0.59373 0.08749-0.68545 0.46179-0.68545 0.67663 0 0.2734 0.11183 0.51082 0.32703 0.69003 0.1972 0.18133 0.43885 0.26882 0.70555 0.26882 0.83538 0 1.6598-0.03351 2.4709-0.1076 1.3441-0.11853 2.7552-0.17251 4.1081 0 0.5715 0.06491 1.1515 0.1076 1.7272 0.1076h0.38312c0.25541 0 0.52176-0.04727 0.79763-0.13441 0.45226-0.1524 0.51506-0.47272 0.51506-0.64735 0-0.39899-0.20391-0.68545-0.57574-0.79093m-11.444-11.939c-0.0406 0.01552-0.0808 0.02681-0.1076 0.04022-1.4471 0-2.5739 0.0067-3.3757 0.02011-0.80856 0.01341-1.409 0.01341-1.8122 0.01341h-0.63182c0.4191-0.99236 0.76623-1.8277 1.0372-2.4885 0.30904-0.73025 0.58032-1.3914 0.82233-1.9847 0.23495-0.58702 0.46567-1.1515 0.70097-1.705 0.19262-0.44132 0.40781-0.94756 0.65863-1.5208 0.0469 0.13194 0.1143 0.30692 0.19474 0.53305 0.19932 0.56444 0.43921 1.2524 0.72601 2.0655 0.27976 0.81527 0.58667 1.6866 0.91829 2.6208 0.30233 0.84667 0.58702 1.6464 0.86924 2.4059"/><path d="m450.37 34.709c-0.25506-0.05362-0.50624-0.13864-0.79728-0.26635-0.94544-0.1972-1.79-0.63394-2.5111-1.2725-0.74366-0.65617-1.4115-1.4312-2.0182-2.3072-0.60043-0.88724-1.1539-1.8348-1.6397-2.818-0.50201-1.0015-0.95885-1.9491-1.4002-2.8473-0.44344-0.90734-0.88724-1.6933-1.3194-2.3386-0.3429-0.49953-0.69462-0.88053-1.0664-1.1201 0.49953-0.2533 0.99906-0.53305 1.4986-0.85337 0.63642-0.40781 1.2122-0.87806 1.7318-1.4136 0.52176-0.53305 0.95426-1.1423 1.2767-1.8076 0.32703-0.67204 0.49954-1.4115 0.49954-2.1911 0-1.4199-0.27552-2.6141-0.81069-3.5391-0.5334-0.92075-1.2076-1.6623-2.0073-2.2087-0.79728-0.53975-1.6619-0.92075-2.5852-1.1247-0.90029-0.19932-1.7649-0.30692-2.5513-0.30692-0.91404 0-1.8302 0.020108-2.7104 0.051505-0.88935 0.033867-1.7967 0.056092-2.6949 0.056092h-3.0713c-0.25541 0-0.51506-0.015522-0.78176-0.033514-0.55985-0.047272-1.0841-0.069497-1.6171 0.049389-0.21061 0.055739-0.54222 0.22401-0.54222 0.80186 0 0.30021 0.1524 0.52176 0.41875 0.62265 0.20602 0.0762 0.47484 0.12982 0.79093 0.15663 0.29104 0.020461 0.60254 0.047273 0.93627 0.069498 0.30903 0.02258 0.60043 0.08537 0.88265 0.1838 0.25082 0.0896 0.44803 0.242 0.61595 0.47272 0.16122 0.22154 0.23953 0.54222 0.23953 0.96767 0 1.9734-0.0176 3.9807-0.0515 5.9655-0.031 2.007-0.0536 4.0231-0.0536 5.9743v7.2778c0 0.45261-0.0808 0.79763-0.24871 1.0463-0.16334 0.26176-0.37853 0.45473-0.64276 0.60678-0.27552 0.1457-0.56692 0.25329-0.87383 0.30692-0.32456 0.05821-0.64065 0.11218-0.92957 0.1591-0.30445 0.0448-0.55986 0.1076-0.75706 0.16792-0.27341 0.08749-0.43251 0.28469-0.43251 0.53763 0 0.43004 0.0695 0.66075 0.23742 0.76835 0.13229 0.08749 0.35631 0.11889 0.72143 0.11889 0.73695 0 1.4785-0.0314 2.1932-0.10548 1.5187-0.14781 3.0868-0.13441 4.639 0.02046 0.84455 0.08043 1.7113 0.12735 2.565 0.12735 0.49283 0 0.85795-0.04233 1.1289-0.12065 0.22613-0.06738 0.49954-0.2667 0.49954-0.80892 0-0.27975-0.14993-0.48366-0.40111-0.55986-0.18133-0.0515-0.37853-0.07832-0.59337-0.07832-0.14111 0-0.1838-0.01376-0.1838-0.01376l-0.0561-0.0134c-0.50624-0.09842-0.92745-0.17251-1.288-0.22154-0.34714-0.0381-0.64276-0.12312-0.89818-0.25753-0.2286-0.11889-0.40781-0.30692-0.54222-0.57573-0.14111-0.27129-0.20602-0.70591-0.20602-1.2771v-7.2778c0-0.69003 0.0829-0.94333 0.13653-1.0262 0.018-0.04233 0.13899-0.17674 0.67204-0.17674 0.79763 0 1.4718 0.19932 2.0094 0.59337 0.55316 0.41451 1.0506 0.93416 1.4697 1.5593 0.42545 0.62724 0.81316 1.3487 1.1444 2.1347 0.3429 0.79093 0.71685 1.5861 1.1088 2.3276 0.72143 1.857 1.7787 3.4498 3.1475 4.7445 1.3755 1.2926 3.1115 2.1258 5.1498 2.4952 0.1658 0.01799 0.3743 0.0448 0.61595 0.06526 0.23777 0.02681 0.47942 0.0381 0.72601 0.0381 0.61384 0 1.0485-0.05398 1.3441-0.15487l0.0804-0.05151c0.25541-0.25082 0.37853-0.47696 0.37853-0.68086 0-0.1838-0.0691-0.51082-0.57573-0.61842m-10.273-16.664c-0.32702 0.67874-0.77505 1.2252-1.3395 1.6129-0.57361 0.3944-1.2679 0.66746-2.0518 0.81315-0.81774 0.1457-1.6983 0.23072-2.6166 0.23072-0.39863 0-0.69461-0.0381-0.86677-0.09631-0.17709-0.0695-0.23072-0.16122-0.25329-0.22613-0.0536-0.14111-0.0762-0.32279-0.0582-0.5334 0.0113-0.25541 0.0201-0.55316 0.0201-0.91369 0-0.94086 7e-3 -2.0006 0.0314-3.1743 0.0222-1.1783 0.036-2.2401 0.036-3.1856v-1.1984c0-0.50835 0.11183-0.89606 0.33796-1.149 0.14569-0.16581 0.51752-0.36513 1.4605-0.36513 0.84031 0 1.6242 0.11853 2.3343 0.35842 0.69673 0.23742 1.3081 0.58667 1.8122 1.0485 0.50623 0.45896 0.91157 1.0393 1.2008 1.7113 0.29104 0.67874 0.43427 1.4806 0.43427 2.388 0 1.0929-0.15663 1.9914-0.48154 2.679"/><path d="m474.63 7.0573c-0.19262 0-0.36936 0.1143-0.50165 0.33373-0.0942 0.1457-0.20849 0.31362-0.33831 0.49953-0.13441 0.17251-0.29563 0.34078-0.46602 0.4953-0.15664 0.13652-0.36266 0.22613-0.59338 0.26423-0.34748 0.046919-0.70802 0.074083-1.0506 0.087489-1.53 0.046919-2.9704 0.020108-4.3504 0.051506-2.3453 0.053622-4.9526 0.049036-7.6048-0.020108-1.445-0.031397-2.9055-0.085372-4.3325-0.15699-0.31573-0.022225-0.55315-0.089606-0.72143-0.20602-0.18344-0.12982-0.32455-0.26211-0.43215-0.39652-0.1143-0.1524-0.21273-0.28434-0.29351-0.39864-0.1524-0.22648-0.34502-0.2734-0.47943-0.2734-0.35842 0-0.64734 0.10089-0.85125 0.29563-0.18803 0.17251-0.33584 0.39864-0.43004 0.66322-0.0875 0.25541-0.14569 0.54187-0.1725 0.84878l-0.0155 0.21061c-0.0159 0.21519-0.0293 0.4191-0.0494 0.62265-0.12312 1.2054-0.27552 2.1505-0.45474 2.8025-0.19261 0.69003-0.29139 1.2478-0.29139 1.669 0 0.33126 0.0875 0.56233 0.25788 0.69215 0.16122 0.12524 0.37395 0.19473 0.66746 0.19473 0.18591 0 0.36512-0.16792 0.62935-0.59796 0.20391-0.3496 0.41452-0.72813 0.62265-1.1289 0.21308-0.41451 0.41452-0.80645 0.60043-1.1853 0.21978-0.44097 0.34961-0.62265 0.41452-0.68086 0.44591-0.42545 0.91157-0.71438 1.3776-0.85125 0.48613-0.14993 0.99448-0.22154 1.5166-0.22154h2.1819c0.55527 0 1.0753 0.03775 1.561 0.11853 0.56691 0.09419 0.62971 0.24871 0.63429 0.27552 0.0268 0.12559 0.0377 0.40993 0.0469 0.61842 0.0134 0.31362 0.0201 0.52634 0.0201 0.64488v17.099c0 0.64064-0.0335 1.1938-0.1076 1.6284-0.0603 0.40534-0.19473 0.75494-0.38523 1.0192-0.18803 0.25753-0.46602 0.46602-0.84243 0.61172-0.39194 0.16122-0.9271 0.27552-1.6104 0.34713-0.0515 0.0134-0.16122 0.02893-0.40535 0.02893-0.26458 0-0.5154 0.0448-0.75741 0.139-0.20355 0.08749-0.45226 0.2801-0.45226 0.75036 0 0.52211 0.34043 0.62054 0.49495 0.63394 0.20602 0.02716 0.41204 0.04269 0.60713 0.04269 0.86254 0 1.7113-0.02681 2.5425-0.08749 1.7226-0.1277 3.575-0.11183 5.3022 0 0.92286 0.06068 1.875 0.08749 2.8268 0.08749 0.3048 0 0.5514-0.01552 0.73731-0.04269 0.28434-0.0381 0.42757-0.31115 0.42757-0.81068 0-0.23319-0.10055-0.62971-0.80645-0.71014l-1.3977-0.15699c-0.48824-0.05362-0.96767-0.19473-1.4136-0.40746-0.40746-0.1905-0.65405-0.5715-0.76376-1.1673-0.0695-0.36724-0.10972-0.73237-0.11642-1.0975-0.0134-0.37394-0.0201-0.74824-0.0201-1.1201 0.0469-2.0743 0.0381-4.1688-0.0201-6.2251-0.054-2.0743-0.0607-4.1667-0.0134-6.2142l0.0649-4.3141c0-0.52423 0.0356-0.91616 0.0896-1.1716 0.0582-0.2981 0.14535-0.41451 0.18803-0.45932 0.0515-0.05362 0.0917-0.06033 0.19932-0.08079 0.3048 0.02716 0.64312 0.02716 1.1896 0.0092 0.65405-0.03598 1.5279-0.02928 2.4373 0.02893 0.53058 0.03387 1.0234 0.09631 1.476 0.1771 0.44803 0.08079 0.83997 0.19932 1.1515 0.36512 0.29563 0.1524 0.49742 0.34502 0.59796 0.57115 0.12347 0.32702 0.17709 0.68333 0.15699 1.0396-0.0226 0.40076-0.054 0.76835-0.0829 1.1063-0.0448 0.36089-0.0381 0.66781 0.0155 0.91405 0.0448 0.18803 0.18839 0.50624 0.70803 0.50624 0.31574 0 0.74154-0.16122 0.96767-0.93169 0.15452-0.51999 0.27093-1.1539 0.35842-1.8708 0.0808-0.70979 0.14993-1.4425 0.21061-2.1795 0.0582-0.72355 0.16792-1.3014 0.32244-1.7272 0.1143-0.30903 0.1076-0.64064-0.0134-0.99448-0.0942-0.28011-0.33831-0.60713-0.96555-0.60713"/><path d="m506.49 8.413-0.0741-0.013405c-0.62266 0-1.2725 0.020108-1.9152 0.051505-1.2143 0.069497-2.5245 0.080786-3.7366-0.011289-0.63605-0.053622-1.2633-0.07373-1.8725-0.07373-0.1972 0-0.39864 0.026811-0.58702 0.082903-0.15452 0.03563-0.40534 0.17921-0.40534 0.63147 0 0.50412 0.24412 0.75283 0.44591 0.87171 0.24165 0.14111 0.53975 0.24624 0.88018 0.30903 0.32244 0.05821 0.64734 0.1143 0.98354 0.1591 0.28434 0.0381 0.51717 0.14534 0.69639 0.30692 0.16827 0.14781 0.29351 0.45896 0.35171 0.90488 0.0741 0.49283 0.10972 1.0619 0.10972 1.6866 0 0.63394-0.0155 1.2859-0.0356 1.9667-0.0247 0.6858-0.0402 1.2993-0.0402 1.8461v7.5579c0 0.68756-0.0653 1.3596-0.20637 2.0161-0.20356 1.1695-0.49707 2.1685-0.86678 2.9658-0.35842 0.78422-0.83785 1.4291-1.4136 1.9244-0.57326 0.49495-1.2792 0.85337-2.0966 1.0682-0.83784 0.21731-1.8595 0.32491-3.0445 0.32491-0.98319 0-1.8905-0.09842-2.697-0.30692-0.78634-0.19932-1.4718-0.56444-2.045-1.0795-0.57361-0.51999-1.0463-1.239-1.3956-2.1463-0.3563-0.91828-0.58702-2.1054-0.67662-3.537-0.0423-0.71438-0.0762-1.4471-0.0871-2.1819-7e-3 -0.73237-0.0159-1.458-0.0159-2.1883v-6.5031c0-0.3496 9e-3 -0.72813 0.0159-1.1201 0.0109-0.40781 0.0381-0.79516 0.0737-1.1557 0.0314-0.37183 0.0716-0.71014 0.121-1.0104 0.0448-0.28681 0.0984-0.50624 0.15911-0.65193 0.13652-0.32244 0.36512-0.52176 0.69215-0.62054 0.37853-0.11183 0.77293-0.20814 1.1603-0.28222 0.40781-0.06491 0.77964-0.1524 1.0978-0.25294 0.41204-0.11889 0.64276-0.4191 0.64276-0.84032 0-0.36512-0.23072-0.60678-0.60925-0.67204-0.30903-0.053622-0.54681-0.07373-0.74366-0.07373-0.82444 0-1.6422 0.033514-2.4419 0.1076-1.5007 0.13194-3.0801 0.14781-4.621 0-0.75071-0.074083-1.512-0.1076-2.2648-0.1076-0.58702 0-0.92957 0.32032-0.92957 0.88688 0 0.2353 0.10089 0.43462 0.28892 0.5648 0.15452 0.10724 0.33585 0.18803 0.54893 0.23072 0.18591 0.0381 0.36724 0.06491 0.55985 0.06914 0.17921 0.01376 0.32703 0.02258 0.45262 0.02258h0.38735c0.41451 0 0.70802 0.1076 0.92075 0.31821 0.22401 0.24165 0.37853 0.51506 0.47942 0.85337 0.0984 0.34043 0.15911 0.72143 0.16334 1.1289 0.0138 0.4191 0.0226 0.79763 0.0226 1.1247 0 2.007-0.0268 3.9984-0.0762 5.927-0.0469 1.9533-0.0628 3.9493-0.0628 5.9454v1.306c0 0.21484 5e-3 0.43215 9e-3 0.64735 0.0155 0.21943 0.0356 0.43215 0.0536 0.64735 0.14781 1.391 0.50165 2.5626 1.064 3.4766 0.55104 0.92075 1.2771 1.669 2.1526 2.2267 0.85796 0.55316 1.8549 0.94756 2.9662 1.1783 1.0908 0.23072 2.2624 0.34255 3.472 0.34255 1.0058 0 2.0652-0.08043 3.1404-0.23283 1.0732-0.1524 2.117-0.42792 3.1228-0.80433 1.1628-0.46355 2.0676-1.1289 2.7104-1.9823 0.623-0.84032 1.0954-1.7988 1.4115-2.8384 0.30692-1.0481 0.49036-2.1481 0.55316-3.2882 0.0628-1.1314 0.085-2.2334 0.085-3.2572 0-0.64064 0-1.2834-0.0134-1.9131-9e-3 -0.63394-0.018-1.2654-0.018-1.9085 0-0.70556-9e-3 -1.53-0.0155-2.4751-0.0134-0.93627-0.0134-1.8457 0-2.7104 7e-3 -0.86713 0.0469-1.6263 0.121-2.2602 0.0942-0.83785 0.23742-0.94544 0.24871-0.95215 0.0536-0.03351 0.1972-0.09172 0.60713-0.1457 0.35136-0.04692 0.71896-0.11642 1.0975-0.19932 0.39652-0.08961 0.74824-0.20814 1.0326-0.35384 0.45261-0.2219 0.54892-0.55351 0.54892-0.79516 0-0.23319-0.1143-0.54434-0.64276-0.73272"/><path d="m538.76 5.927c0.0536 0.035983 0.12771 0.046919 0.2152 0.046919 0.62053 0 1.1444-0.20144 1.5769-0.58455 0.43216-0.39405 0.65405-0.92745 0.65405-1.5748 0-0.60043-0.20814-1.1-0.60042-1.4894-0.39194-0.36971-0.89359-0.56233-1.4919-0.56233-0.62265 0-1.1356 0.19932-1.5321 0.59126-0.39405 0.39441-0.59795 0.89394-0.59795 1.4919 0 0.52211 0.16792 0.98778 0.49706 1.3935 0.31821 0.39652 0.75283 0.62724 1.2792 0.68756"/><path d="m531.8 5.9341c0.56445 0 1.0753-0.17921 1.5007-0.53975 0.43921-0.3743 0.65652-0.87383 0.65652-1.4718 0-0.54892-0.19509-1.0485-0.58244-1.4898-0.39652-0.44591-0.88935-0.67204-1.4672-0.67204-0.59373 0-1.1247 0.20179-1.5614 0.60043-0.44591 0.40534-0.67204 0.91828-0.67204 1.5187 0 0.60713 0.2152 1.1067 0.63606 1.4873 0.41451 0.37853 0.91405 0.56691 1.4898 0.56691"/><path d="m547.56 8.413-0.0741-0.013405c-0.62477 0-1.2767 0.020108-1.9174 0.051505-1.2164 0.069497-2.5224 0.080786-3.7342-0.011289-0.64065-0.053622-1.2679-0.07373-1.875-0.07373-0.19932 0-0.39653 0.026811-0.58456 0.082903-0.15451 0.03563-0.40781 0.17921-0.40781 0.63147 0 0.51082 0.24624 0.75953 0.44803 0.87171 0.23742 0.14111 0.53763 0.24624 0.87806 0.30903 0.32033 0.05821 0.64523 0.1143 0.98108 0.1591 0.28892 0.0381 0.51964 0.14534 0.69673 0.30692 0.17251 0.14781 0.29563 0.45896 0.35631 0.90488 0.0716 0.49283 0.10513 1.0619 0.10513 1.6866 0 0.63394-0.0113 1.2859-0.0335 1.9667-0.0247 0.6858-0.0381 1.2993-0.0381 1.8461v7.5579c0 0.68756-0.0695 1.3596-0.20849 2.0161-0.20355 1.1695-0.49953 2.1685-0.86466 2.9658-0.35842 0.78422-0.83996 1.4291-1.4132 1.9244-0.57362 0.49495-1.2792 0.85337-2.099 1.0682-0.84455 0.21731-1.8662 0.32491-3.042 0.32491-0.98778 0-1.8884-0.09842-2.697-0.30692-0.79093-0.19932-1.4743-0.56444-2.0496-1.0795-0.57362-0.51999-1.0418-1.239-1.3914-2.1463-0.36054-0.91828-0.58667-2.1054-0.68087-3.537-0.0402-0.71438-0.0716-1.4471-0.085-2.1819-9e-3 -0.73237-0.0134-1.458-0.0134-2.1883v-6.5031c0-0.3496 4e-3 -0.72813 0.0134-1.1201 0.0134-0.40111 0.0423-0.77964 0.0737-1.1557 0.0293-0.37183 0.0716-0.71014 0.11888-1.0104 0.0448-0.28681 0.0984-0.50624 0.16792-0.65193 0.1323-0.32244 0.35843-0.52176 0.68333-0.62054 0.38277-0.11183 0.77506-0.20814 1.1624-0.28222 0.40569-0.06491 0.77752-0.1524 1.0978-0.25294 0.41416-0.11889 0.64276-0.4191 0.64276-0.84032 0-0.36512-0.2286-0.60678-0.61383-0.67204-0.29775-0.053622-0.53975-0.07373-0.74154-0.07373-0.81739 0-1.6372 0.033514-2.4395 0.1076-1.5007 0.13194-3.0776 0.14781-4.6168 0-0.75248-0.074083-1.5162-0.1076-2.267-0.1076-0.58667 0-0.92957 0.32032-0.92957 0.88688 0 0.2353 0.10089 0.43462 0.28893 0.5648 0.15451 0.10724 0.33161 0.18803 0.5468 0.23072 0.18344 0.0381 0.36513 0.06491 0.55986 0.06914 0.18168 0.01376 0.32949 0.02258 0.45261 0.02258h0.38735c0.4124 0 0.71473 0.1076 0.91864 0.31821 0.22824 0.24165 0.38311 0.51506 0.48365 0.85337 0.0963 0.34043 0.15699 0.72143 0.16369 1.1289 0.0134 0.4191 0.0201 0.79763 0.0201 1.1247 0 2.0137-0.0268 4.0118-0.0741 5.927-0.0448 2.0073-0.067 4.0076-0.067 5.9454v1.306c0 0.21484 0 0.43215 0.0155 0.64735 0.0113 0.21061 0.0339 0.43215 0.0515 0.64735 0.14816 1.391 0.49741 2.5626 1.0619 3.4766 0.55351 0.92075 1.277 1.669 2.153 2.2267 0.85549 0.55316 1.857 0.94756 2.9633 1.1783 1.0954 0.23072 2.267 0.34255 3.4745 0.34255 1.0058 0 2.0676-0.08043 3.1429-0.23283 1.0686-0.1524 2.1167-0.42792 3.1224-0.80433 1.1582-0.46355 2.0743-1.1289 2.7062-1.9823 0.62724-0.84032 1.1-1.7988 1.4157-2.8384 0.3048-1.0414 0.49072-2.1481 0.54892-3.2882 0.0628-1.1314 0.0896-2.2334 0.0896-3.2572 0-0.64064 0-1.2834-0.0134-1.9131-0.0134-0.63394-0.0226-1.2654-0.0226-1.9085 0-0.70556-5e-3 -1.53-0.0113-2.4751-0.0155-0.93627-0.0155-1.8457 0-2.7104 7e-3 -0.86713 0.0473-1.6263 0.121-2.2602 0.0942-0.83785 0.23742-0.94544 0.24412-0.95215 0.054-0.03351 0.20179-0.09172 0.60713-0.1457 0.35172-0.04692 0.72143-0.11642 1.1-0.19932 0.39441-0.08961 0.74613-0.20814 1.035-0.35384 0.45226-0.2219 0.54646-0.55351 0.54646-0.79516 0-0.23319-0.1143-0.54434-0.64065-0.73272"/><path d="m572.64 26.228c-0.32491-0.06491-0.62054-0.0067-0.90734 0.21978-0.0674 0.06032-0.1704 0.20814-0.53305 0.83996-0.26212 0.46143-0.56021 0.97437-0.91193 1.5455-0.34925 0.57362-0.72778 1.1222-1.1356 1.6397-0.39194 0.50871-0.77047 0.86466-1.1335 1.0753-0.19932 0.12771-0.58455 0.30021-1.1582 0.49953-0.56903 0.20849-1.221 0.36512-1.9332 0.4639-0.70767 0.10971-1.4379 0.11642-2.184 0.02011-0.72143-0.08502-1.3755-0.34502-1.9198-0.75706-0.12983-0.1143-0.23742-0.33408-0.32244-0.65193-0.0875-0.35419-0.16122-0.76412-0.20179-1.2097-0.0423-0.43674-0.0783-0.92075-0.0938-1.4249-7e-3 -0.50624-0.0134-0.97437-0.0134-1.3931v-1.3395c0-2.1484 0.0134-4.245 0.0381-6.3059 0.0268-2.1124 0.0381-4.2337 0.0381-6.3126 0-0.17921 0-0.39864 0.0109-0.66075 0.0134-0.2533 0.0339-0.50624 0.0674-0.75494 0.0335-0.25082 0.0938-0.48401 0.16792-0.69674 0.0716-0.20602 0.17039-0.36301 0.30904-0.47484 0.1972-0.1591 0.46602-0.25329 0.79974-0.28681l1.1314-0.10513c0.38735-0.04057 0.73484-0.09878 1.0104-0.18838 0.36054-0.10513 0.56197-0.37183 0.56197-0.75248 0-0.25082-0.13441-0.502-0.39193-0.72813l-0.0628-0.053622h-0.0783c-0.99449 0-1.8927 0.022225-2.679 0.0762-1.5413 0.089606-3.302 0.11183-4.8835-0.060678-0.79728-0.080433-1.6171-0.11853-2.4349-0.11853-0.28223 0-0.56021 0.024342-0.83326 0.07373-0.2219 0.0381-0.58703 0.18591-0.58703 0.77752 0 0.43427 0.25753 0.72108 0.72567 0.79516 0.37182 0.058205 0.78422 0.11853 1.2435 0.17921 0.44344 0.05362 0.86219 0.16581 1.2541 0.33831 0.34079 0.14534 0.54893 0.43427 0.62971 0.88018 0.0938 0.46143 0.13653 0.97896 0.13653 1.5547v10.311c0 0.66075 0.0247 1.4404 0.0741 2.3992 0.0469 0.94756 0.067 1.8792 0.067 2.7598 0 0.88688-0.0469 1.7046-0.14111 2.4462-0.0829 0.70556-0.25753 1.185-0.49072 1.427-0.30656 0.27975-0.62688 0.44097-0.98531 0.49495-0.38981 0.0515-0.76411 0.09172-1.1091 0.11853-0.38523 0.0247-0.69215 0.07867-0.94297 0.16581-0.23072 0.0896-0.49495 0.29563-0.49495 0.82656 0 0.18838 0.0603 0.3676 0.18344 0.52 0.13441 0.17462 0.31151 0.26176 0.52211 0.26176 0.76835 0 1.4626-0.02222 2.0542-0.07585 0.57115-0.04727 1.1289-0.09208 1.6598-0.13899 0.53093-0.04692 1.0798-0.09172 1.6577-0.14111 0.55986-0.04692 1.2411-0.06491 2.0137-0.06491 1.548 0 3.1521 0.10513 4.7784 0.31362 1.6552 0.21061 3.2837 0.32032 4.8341 0.32032 0.35806 0 0.53975-0.45473 0.64946-0.84702 0.13229-0.45896 0.28892-1.0661 0.47942-1.8076 0.18133-0.73907 0.44556-1.5769 0.77047-2.491 0.32491-0.91405 0.77752-1.839 1.361-2.7686l0.0564-0.09208-0.0459-0.10724c-0.12347-0.27552-0.35983-0.45932-0.67698-0.5334"/><path d="m583.87 16.785c0.0353-1.4651 0.0494-2.9591 0.0494-4.4196 0-0.40534 0.0141-0.76623 0.0317-1.0799 0.0282-0.26635 0.10231-0.48613 0.24342-0.65864 0.13405-0.17251 0.36336-0.30692 0.65617-0.38735 0.34572-0.08749 0.8255-0.13441 1.4393-0.13441 0.35278 0 0.66322-0.0381 0.91722-0.1143 0.19756-0.058208 0.5327-0.23742 0.5327-0.81104 0-0.096308-0.0282-0.21272-0.0847-0.36054-0.06-0.1524-0.12347-0.25294-0.19403-0.31821l-0.0635-0.069145h-3.1644c-0.32808 0-0.6738 0.020108-1.0372 0.060325-0.36336 0.031397-0.70203 0.046919-1.009 0.046919-0.6738 0-1.3617-0.033514-2.0496-0.098425-0.70202-0.074083-1.404-0.10971-2.0849-0.10971h-0.39158c-0.1905 0-0.41275 0.015522-0.64912 0.056092-0.32808 0.053622-0.51858 0.27975-0.51858 0.62018 0 0.5267 0.25047 0.74612 0.46567 0.83361 0.23989 0.10724 0.55033 0.16545 0.90311 0.19262 0.32103 0.02681 0.65969 0.06491 1.0054 0.12524 0.30339 0.04727 0.56798 0.18838 0.78317 0.3877 0.0776 0.11183 0.18697 0.35384 0.27164 0.89147 0.0741 0.45932 0.10231 0.88724 0.10231 1.2813v0.66746c0 0.58491-4e-3 1.1807-0.0141 1.7632-0.0141 0.59126-0.0141 1.1938-0.0141 1.8009l-0.0423 12.372v0.73907c0 0.43462-0.0247 0.89394-0.0917 1.3688-0.0423 0.4258-0.16934 0.71014-0.37042 0.87136-0.19755 0.18838-0.46567 0.31821-0.78316 0.39441-0.34925 0.08043-0.68439 0.15452-0.99484 0.21272-0.32455 0.06068-0.61736 0.13441-0.8643 0.2219-0.32103 0.11183-0.49742 0.33831-0.49742 0.64488 0 0.36548 0.16933 0.63429 0.47272 0.74612 0.25047 0.09419 0.508 0.14111 0.76906 0.14111h0.49389c0.71261 0 1.3688-0.04269 1.9368-0.12771 1.0548-0.1524 2.4694-0.16122 3.8382-0.02222 1.0336 0.11395 2.0355 0.16122 3.0621 0.06244 0.44803-0.04692 0.70555-0.33796 0.70555-0.79975 0-0.17886-0.0705-0.50624-0.54327-0.63394-0.26106-0.07373-0.56092-0.13652-0.92781-0.19932-0.34219-0.06032-0.68792-0.12771-1.0548-0.19262-0.32456-0.06703-0.57856-0.18344-0.762-0.34043-0.24342-0.21943-0.39159-0.53975-0.44098-0.96097-0.0564-0.45932-0.0882-0.87806-0.0882-1.2453v-9.0029c0-1.5078 0.0176-2.9884 0.0564-4.4154"/><path d="m619.05 33.091c-0.28222-0.08079-0.58914-0.1524-0.89606-0.19932-0.56797-0.13441-1.0901-0.36512-1.5699-0.69215-0.49741-0.33373-0.97719-0.72143-1.4252-1.1628-0.45155-0.43674-0.889-0.91158-1.3123-1.4111-0.42686-0.50624-0.83961-0.98778-1.2453-1.4471-0.1658-0.1591-0.47978-0.49283-0.9525-0.99907l-1.6192-1.7473c-0.61383-0.66075-1.2594-1.3596-1.9473-2.1078-0.67733-0.73695-1.3053-1.4316-1.8838-2.0764-0.58209-0.6477-1.076-1.2076-1.4817-1.6778-0.37042-0.4258-0.5327-0.63853-0.60678-0.7373 0.0741-0.09172 0.23989-0.27975 0.62442-0.65828 0.43744-0.42792 0.97719-0.93416 1.6122-1.5212 0.62795-0.58702 1.3194-1.2118 2.0743-1.8863 0.73025-0.64735 1.457-1.2721 2.1555-1.8637 0.68086-0.57997 1.2806-1.0749 1.8133-1.5007 0.63852-0.51506 0.92075-0.69674 1.0478-0.75494 0.27869-0.1524 0.61736-0.25964 1.0054-0.31362 0.4057-0.05821 0.79728-0.1143 1.1783-0.16122 0.38806-0.0448 0.72672-0.11889 1.0019-0.22613 0.33867-0.11889 0.52564-0.37853 0.52564-0.73272 0-0.28434-0.12347-0.50624-0.35278-0.64523-0.20108-0.10724-0.41275-0.16545-0.63853-0.16545-0.60325 0-1.1959 0.017639-1.7604 0.049036-1.1889 0.074083-2.4941 0.069497-3.69 0-0.95956-0.049036-1.9085-0.062442-2.9669-0.0381-0.43744 0.020461-0.75141 0.23319-0.89605 0.61842l-0.0212 0.36301c0 0.19685 0.0917 0.55104 0.68086 0.63818 0.33867 0.04727 0.70909 0.08079 1.1042 0.08961 0.38805 0.01129 0.74083 0.04269 1.0583 0.0829 0.30339 0.04727 0.30339 0.16122 0.30339 0.21519 0 0.01341-0.0176 0.15452-0.42333 0.63147-0.3175 0.38312-0.7232 0.82232-1.21 1.324-0.49389 0.49742-1.0407 1.0372-1.6404 1.5974-0.59972 0.55986-1.1712 1.1021-1.711 1.6037-0.53975 0.50624-1.0301 0.96344-1.4605 1.3596-0.44097 0.40111-0.74083 0.69003-0.91369 0.85584l-0.45862 0.45932c-0.17991 0.17674-0.38805 0.36724-0.61383 0.54645-0.21872 0.17921-0.46214 0.3429-0.71261 0.47272-0.15522 0.08749-0.31397 0.14781-0.47272 0.1771 0.0459-0.2152 0.0494-0.29598 0.0494-0.3362v-1.8725c0-0.56691-4e-3 -1.1201-0.0176-1.6464-7e-3 -0.5334-0.0141-1.0799-0.0141-1.6401v-1.8725c0-0.97437 0.20108-1.3797 0.37394-1.5413 0.25753-0.25294 0.55386-0.39194 0.89959-0.43886 0.37394-0.04057 0.73377-0.04727 1.083-0.0134 0.45861 0.04022 0.76906-0.07408 0.92781-0.32491 0.06-0.096308 0.10583-0.2219 0.13405-0.381 0.0247-0.10724 0.0565-0.19932 0.0847-0.27975l0.0282-0.092075c0-0.14111-0.0564-0.39652-0.46214-0.52846-0.23989-0.074083-0.46214-0.11218-0.6738-0.11218h-0.31397c-0.54681 0-1.0901 0.027164-1.6192 0.082903-0.50095 0.062794-1.0266 0.089605-1.5593 0.089605h-1.0936c-0.60325 0-1.1994-0.033514-1.7815-0.10724-0.59972-0.065264-1.2136-0.1076-1.8274-0.1076h-0.39158c-0.21872 0-0.45861 0.033514-0.70556 0.10301-0.43391 0.11183-0.50094 0.40993-0.50094 0.57997 0 0.44379 0.19755 0.67204 0.36336 0.77505 0.20461 0.13441 0.46214 0.2286 0.76553 0.26882 0.27516 0.03387 0.5715 0.04727 0.88194 0.03387 0.26811-0.01341 0.52211 0.0042 0.75495 0.05362 0.35983 0.05151 0.57502 0.21943 0.65616 0.52634 0.0988 0.37183 0.1517 0.74154 0.1517 1.0954v4.3099c0 2.4081-0.0176 4.7604-0.0529 7.0139-0.0353 2.3541-0.0564 4.7106-0.0564 7.0115 0 0.20602-0.0106 0.43886-0.0317 0.70556-0.0282 0.25964-0.067 0.51294-0.13053 0.75494-0.0706 0.24624-0.16228 0.46602-0.28222 0.67204-0.10584 0.18803-0.25048 0.31574-0.42334 0.39652-0.16228 0.0762-0.39158 0.12312-0.69497 0.13652-0.33514 0.01341-0.66675 0.03598-0.98425 0.07408-0.33161 0.03351-0.63147 0.11395-0.889 0.22613-0.3175 0.139-0.47978 0.41451-0.47978 0.77964 0 0.36054 0.20814 0.60678 0.58561 0.67416 0.2787 0.04692 0.53975 0.07373 0.75848 0.07373 1.0054 0 1.9791-0.04022 2.8787-0.10724 0.90311-0.07408 1.8662-0.1076 2.8399-0.1076 0.49742 0 0.9772 0.03351 1.4499 0.08749 0.49742 0.05821 0.99483 0.09172 1.4852 0.09172h0.45861c0.26812 0 0.52564-0.06068 0.76906-0.18591 0.28222-0.139 0.43744-0.39194 0.43744-0.74154 0-0.39864-0.2293-0.55316-0.37041-0.60254-0.16934-0.0695-0.37395-0.1076-0.61384-0.12312-0.21519-0.01129-0.42686-0.01129-0.64205 0h-0.067c-0.14817 0-0.20461-0.02681-0.23283-0.0448l-0.067-0.04727-0.0811 0.0067c-0.43391 0.04057-0.78316-0.02681-1.0125-0.20602-0.24342-0.18803-0.43392-0.43886-0.54681-0.74577-0.11994-0.33373-0.19755-0.70556-0.23283-1.1155-0.0388-0.4124-0.0529-0.79975-0.0529-1.1448 0-0.87136 7e-3 -1.7339 0.0141-2.5806 0.0106-0.84667 0.0176-1.7071 0.0176-2.5785v-1.5861c0-0.32702 7e-3 -0.64064 0.0212-0.92498 0.0141-0.35384 0.0353-0.51752 0.0459-0.58244 0-0.02011 7e-3 -0.0314 0.0141-0.04692 0.14111 0.04692 0.3175 0.08043 0.56092 0.10054 0.26106 0.14111 0.61031 0.41451 1.0442 0.81315 0.47625 0.44132 1.0019 0.95885 1.5663 1.5459 0.56092 0.58455 1.1606 1.2319 1.7745 1.9198 0.61383 0.68086 1.203 1.355 1.7674 2.0115 0.56798 0.65617 1.0724 1.2633 1.5416 1.8009l1.0548 1.2432c0.0529 0.08079 0.14111 0.2039 0.27516 0.37641 0.127 0.16122 0.26459 0.33373 0.4057 0.52634 0.14464 0.18803 0.26811 0.36054 0.38453 0.51541 0.10936 0.13194 0.17991 0.21696 0.21166 0.28646 0.0847 0.13018 0.10231 0.19932 0.10936 0.21061-0.15169 0.0628-0.30338 0.08537-0.46566 0.08537-0.11289 0-0.32456-0.0046-0.62795-0.01799-0.31044-0.0046-0.64911 0.0067-0.9913 0.06032-0.34572 0.04727-0.6597 0.14111-0.92428 0.26882-0.40569 0.1905-0.49389 0.49953-0.49389 0.71684 0 0.381 0.11642 0.62265 0.3422 0.71473 0.16933 0.07161 0.37747 0.10724 0.65263 0.10724 0.89959 0 1.8239-0.02681 2.7305-0.08714 1.6792-0.11218 3.3232-0.13441 4.9142 0 0.72319 0.06033 1.4781 0.08714 2.2437 0.08714 0.15522 0 0.34219-0.02222 0.57855-0.05362 0.43745-0.07373 0.53622-0.36054 0.55386-0.54222 0.0423-0.63606-0.32103-0.8442-0.53622-0.90488"/><path d="m644.41 11.477c-1.2629-1.1783-2.7517-2.1036-4.4309-2.7598-1.6792-0.65864-3.489-0.98566-5.3622-0.98566-1.9473 0-3.7782 0.35172-5.4151 1.0594-1.651 0.70132-3.0868 1.6891-4.2968 2.9277-1.203 1.2323-2.1519 2.7174-2.8152 4.4175-0.67027 1.687-1.0054 3.5482-1.0054 5.5196s0.33161 3.8149 0.98072 5.4659c0.65617 1.6531 1.584 3.1115 2.7446 4.3321 1.1783 1.2143 2.6 2.1731 4.2333 2.854 1.6298 0.67874 3.4361 1.0283 5.3622 1.0283 1.9544 0 3.8065-0.381 5.5245-1.1359 1.7145-0.74577 3.2244-1.7695 4.505-3.0441 1.277-1.2746 2.2895-2.7866 3.0162-4.4849 0.72319-1.7 1.0936-3.5348 1.0936-5.4388 0-2.0002-0.37395-3.8552-1.1148-5.4949-0.7373-1.6464-1.7568-3.078-3.0198-4.2605m-10.259-2.0119c0.88194 0 1.7145 0.13441 2.48 0.40111 1.2806 0.44591 2.4165 1.1515 3.3584 2.099 0.95955 0.95885 1.7639 2.1191 2.3812 3.4586 0.62794 1.3395 1.0795 2.7711 1.3617 4.2517 0.22931 1.3261 0.33867 2.7418 0.31044 4.2002-0.0212 1.4559-0.26458 2.8515-0.72672 4.1554-0.45861 1.2901-1.1853 2.4328-2.1731 3.3778-0.97367 0.94756-2.3248 1.5727-4.0181 1.8729-0.66675 0.11853-1.3018 0.18133-1.8944 0.18133-0.98425 0-1.8874-0.17004-2.6846-0.48824-1.3053-0.52634-2.4342-1.3194-3.3443-2.3453-0.93133-1.0396-1.6792-2.2535-2.2437-3.6135-0.5715-1.373-0.9772-2.7598-1.203-4.1261-0.25752-1.3282-0.381-2.7217-0.37394-4.1466 0.0106-1.4199 0.24342-2.7665 0.6985-4.0118 0.44097-1.2344 1.1677-2.3209 2.1449-3.2346 0.97719-0.91193 2.3495-1.5325 4.0675-1.8549 0.64205-0.11853 1.2665-0.17709 1.8591-0.17709"/><path d="m676.33 11.477c-1.263-1.1783-2.7517-2.1036-4.4344-2.7598-1.6792-0.65864-3.4749-0.98566-5.3587-0.98566-1.9509 0-3.7747 0.35172-5.4187 1.0594-1.6439 0.70132-3.0833 1.6891-4.2933 2.9277-1.2065 1.2365-2.1484 2.7263-2.8152 4.4175-0.66675 1.687-1.009 3.5482-1.009 5.5196s0.33514 3.8149 0.98425 5.4659c0.65617 1.6531 1.5804 3.1115 2.7517 4.3321 1.1677 1.2143 2.5894 2.1731 4.2228 2.854 1.6334 0.67874 3.4396 1.0283 5.3658 1.0283 1.9544 0 3.8135-0.381 5.5316-1.1359 1.7074-0.74577 3.2173-1.7695 4.4944-3.0441 1.2771-1.2746 2.2895-2.7866 3.0162-4.4849 0.72673-1.7089 1.0936-3.5348 1.0936-5.4388 0-2.0002-0.37394-3.8506-1.1112-5.4949-0.7373-1.6464-1.7533-3.078-3.0198-4.2605m-10.259-2.0119c0.88194 0 1.711 0.13441 2.48 0.40111 1.2806 0.44591 2.4095 1.1515 3.3655 2.099 0.9525 0.95885 1.7568 2.1191 2.3742 3.4586 0.62442 1.3395 1.0866 2.7711 1.3617 4.2517 0.23284 1.3215 0.33867 2.7351 0.3175 4.2002-0.0247 1.4605-0.27164 2.8515-0.73377 4.1554-0.46214 1.2901-1.1853 2.4328-2.1731 3.3778-0.97013 0.94756-2.3283 1.5727-4.0181 1.8729-0.66675 0.11853-1.3053 0.18133-1.905 0.18133-0.9772 0-1.8732-0.17004-2.6705-0.48824-1.3123-0.52634-2.4377-1.3194-3.3514-2.3453-0.92781-1.0396-1.6792-2.2535-2.2401-3.6135-0.5715-1.3663-0.97719-2.7552-1.21-4.1261-0.25752-1.3282-0.37394-2.7217-0.37041-4.1466 0.0141-1.4199 0.25047-2.7707 0.69497-4.0118 0.44803-1.2344 1.1712-2.3209 2.1519-3.2346 0.98073-0.91193 2.3495-1.5325 4.0675-1.8549 0.64206-0.11853 1.263-0.17709 1.8591-0.17709"/><path d="m704.14 26.762c-0.13053-0.27305-0.36336-0.46143-0.68086-0.53305-0.32456-0.07408-0.62089-0.0067-0.91017 0.2219-0.06 0.05821-0.16933 0.20355-0.53269 0.8375-0.25753 0.45932-0.55739 0.97472-0.91017 1.548-0.3422 0.57115-0.72672 1.1201-1.1324 1.6376-0.39511 0.50624-0.77258 0.86924-1.1359 1.0753-0.19756 0.1277-0.58561 0.30021-1.1536 0.49953-0.5715 0.20602-1.2241 0.36512-1.9403 0.46814-0.70203 0.10301-1.4393 0.11183-2.1837 0.01799-0.72319-0.08749-1.3723-0.34502-1.9226-0.75953-0.12347-0.1143-0.23283-0.33373-0.3175-0.65617-0.0847-0.3496-0.15875-0.75494-0.20108-1.2054-0.0459-0.43886-0.0776-0.91828-0.0953-1.4245-4e-3 -0.50624-7e-3 -0.97437-7e-3 -1.3935v-1.3395c0-2.1459 7e-3 -4.2471 0.0282-6.308 0.0282-2.11 0.0423-4.2291 0.0423-6.3101 0-0.18168 0-0.39899 0.0106-0.6611 0.0176-0.25294 0.0353-0.50624 0.0706-0.75248 0.0353-0.24412 0.0952-0.48613 0.16581-0.70132 0.0706-0.20814 0.16933-0.35842 0.30338-0.47237 0.20462-0.16157 0.4692-0.25329 0.80081-0.28469l1.1359-0.1076c0.38453-0.04022 0.73025-0.09842 1.0125-0.18803 0.35983-0.10513 0.56091-0.37183 0.56091-0.75283 0-0.25294-0.13405-0.49953-0.39158-0.72566l-0.06-0.053622h-0.0811c-0.99483 0-1.8944 0.020108-2.6811 0.073731-1.5381 0.085372-3.302 0.11218-4.8824-0.060325-0.79727-0.078317-1.6157-0.121-2.4342-0.121-0.27517 0-0.55739 0.028928-0.83609 0.073731-0.22225 0.0381-0.58208 0.18838-0.58208 0.77964 0 0.43462 0.254 0.72143 0.72319 0.79516 0.37042 0.060678 0.78317 0.11889 1.2453 0.17921 0.44097 0.05398 0.86078 0.16581 1.2559 0.33831 0.33514 0.1457 0.54328 0.43251 0.62442 0.88724 0.0952 0.45226 0.14111 0.96767 0.14111 1.5455v10.311c0 0.66111 0.0247 1.4672 0.0705 2.4014 0.0494 0.92745 0.067 1.8595 0.067 2.7598 0 0.88265-0.0459 1.7071-0.13758 2.4462-0.0847 0.70802-0.26106 1.1896-0.49389 1.427-0.30692 0.2801-0.62795 0.44132-0.98778 0.4953-0.38806 0.05362-0.75847 0.09172-1.1042 0.11853-0.39159 0.02681-0.69498 0.08079-0.94545 0.16581-0.2293 0.08749-0.49389 0.29563-0.49389 0.82868 0 0.1838 0.06 0.36512 0.18345 0.51752 0.13405 0.17251 0.31397 0.26211 0.52211 0.26211 0.77258 0 1.4605-0.02222 2.0532-0.07373 0.57503-0.04939 1.1254-0.09631 1.6581-0.14111 0.53269-0.04727 1.0795-0.09208 1.6581-0.139 0.56091-0.04939 1.2453-0.0695 2.0179-0.0695 1.5416 0 3.1538 0.10971 4.7766 0.31574 1.6545 0.21061 3.2808 0.31821 4.8331 0.31821 0.36689 0 0.53975-0.45261 0.65264-0.84455 0.127-0.46143 0.28575-1.0661 0.47272-1.8076 0.18345-0.74154 0.44803-1.5794 0.77258-2.4934 0.32103-0.90488 0.77964-1.8411 1.3617-2.7665l0.06-0.09172z"/><path d="m253.44 145.61c0.0224-0.89158 0.0403-1.7899 0.0403-2.7015 0-0.26882 4e-3 -0.51075 0.0201-0.71907 7e-3 -0.10082 0.0336-0.17699 0.0672-0.22627 0.0134-0.0201 0.0695-0.0829 0.24641-0.13889 0.11875-0.0358 0.36739-0.0851 0.8109-0.0851 0.2733 0 0.51971-0.0359 0.74372-0.0963 0.42545-0.12319 0.67875-0.48387 0.67875-0.96771 0-0.23971-0.11218-0.47043-0.32032-0.67652l-0.16581-0.17473h-2.3162c-0.23745 0-0.48835 0.0157-0.73924 0.0403-0.67427 0.0695-1.2948 0.0336-1.7674-0.0314-0.38082-0.0538-0.81315-0.0806-1.2925-0.0806h-0.2643c-0.15681 0-0.32484 0.0157-0.50627 0.0471-0.43907 0.0649-0.72355 0.40322-0.72355 0.85347 0 0.64738 0.41218 0.8938 0.58914 0.96771 0.21279 0.0873 0.46369 0.14111 0.74595 0.16129 0.19935 0.0112 0.4144 0.0425 0.63172 0.0806 0.11645 0.0157 0.21501 0.0649 0.24415 0.0851 4e-3 7e-3 0.0538 0.0941 0.10305 0.40767 0.0425 0.28673 0.065 0.54885 0.065 0.79075v0.45251c0 0.39426-4e-3 0.78179-0.0112 1.1783-9e-3 0.39875-0.0112 0.80645-0.0112 1.2141l-0.0246 2.1975c0 0.27777-0.0202 0.56674-0.0582 0.86914-0.0247 0.22849-0.0829 0.28899-0.10305 0.31139-0.0874 0.0739-0.19265 0.12767-0.33824 0.15681-0.22402 0.0515-0.44133 0.10079-0.65187 0.13886-0.24641 0.0471-0.45698 0.1053-0.64068 0.17025-0.39648 0.13441-0.63616 0.45025-0.63616 0.84451 0 0.43459 0.23072 0.78179 0.61154 0.92068 0.21502 0.0806 0.44129 0.11871 0.66753 0.11871h0.33154c0.2576 0 0.47939-9e-3 0.67426-0.0269 0.18592-0.0157 0.36065-0.0403 0.52642-0.0627 0.13663-0.0224 0.28673-0.0381 0.44802-0.0538 0.46592-0.0448 1.1895-0.0224 1.8324 0.0471 0.72354 0.0762 1.4673 0.10753 2.155 0.0336 0.52867-0.0538 0.87122-0.43455 0.87122-0.97667 0-0.40993-0.26424-0.73699-0.68969-0.84451-0.19275-0.0582-0.41229-0.10079-0.66092-0.14559-0.23072-0.0381-0.46147-0.0851-0.70337-0.13216-0.14563-0.0224-0.24868-0.0695-0.30466-0.11874-0.0403-0.0381-0.0986-0.10305-0.12771-0.24864-0.0381-0.20387-0.0672-0.40097-0.0806-0.59587v-0.31137c0-0.9005 0.0134-1.7876 0.0336-2.6724"/><path d="m265.43 149.58c-0.30903 0.21953-0.68086 0.32258-1.149 0.32258-0.55316 0-0.98778-0.12993-1.3307-0.38753-0.36724-0.28451-0.65864-0.64964-0.87348-1.0842-0.2286-0.47714-0.3877-0.99681-0.48613-1.5456-0.0963-0.5757-0.14358-1.129-0.14358-1.6487 0-0.27552 9e-3 -0.53089 0.0339-0.77283l0.0603-0.60035c0.10971-0.12097 0.24412-0.2576 0.3944-0.39423 0.20814-0.19714 0.44344-0.38083 0.69427-0.55556 0.24412-0.16351 0.5087-0.30914 0.78634-0.4301 0.70767-0.29793 1.4605-0.15678 1.9646 0.13218 0.34043 0.20384 0.61136 0.45695 0.82409 0.77953 0.22401 0.33825 0.3944 0.73477 0.50412 1.1761 0.11888 0.45695 0.1725 0.92964 0.1725 1.4023 0 0.44351-0.0515 0.91842-0.15451 1.4112-0.0963 0.4704-0.26212 0.90498-0.48154 1.2925-0.21061 0.36513-0.48401 0.66756-0.81563 0.90276m3.3648-7.9231c-0.43921-0.48835-0.98566-0.8714-1.6129-1.1514-1.0238-0.45473-2.3273-0.55778-3.4766-0.23072-0.42545 0.12545-0.82867 0.28-1.1938 0.47265-0.10759 0.0538-0.2039 0.10979-0.3115 0.17251 0.25083-0.69219 0.55774-1.3575 0.91828-1.9914 0.63641-1.1133 1.4584-2.1147 2.4529-2.9704 0.2286-0.20161 0.45473-0.38082 0.69003-0.55777 0.23072-0.16577 0.46602-0.32706 0.68333-0.45473 0.0582-0.0291 0.16122-0.0762 0.3115-0.14563 0.17463-0.0762 0.33796-0.15233 0.49707-0.23745 0.18379-0.10079 0.35383-0.20832 0.49741-0.32703 0.26423-0.21505 0.39652-0.45473 0.39652-0.71907 0-0.27777-0.1143-0.52641-0.32279-0.71906-0.12312-0.10753-0.23495-0.19714-0.34713-0.26212l-0.16581-0.0918-0.18344 0.0157c-0.23072 0.0224-0.48401 0.0896-0.77294 0.20832-0.242 0.0963-0.44591 0.18817-0.63182 0.27104-1.1335 0.52867-2.2063 1.1962-3.1877 1.9892-0.98108 0.79523-1.8591 1.7069-2.6007 2.7082-0.74365 1.0125-1.3328 2.1236-1.7515 3.3041-0.43004 1.1895-0.64311 2.4619-0.64311 3.7746 0 0.67649 0.072 1.3485 0.21307 1.9914 0.14782 0.65634 0.36936 1.2791 0.67416 1.8548 0.30445 0.58466 0.70097 1.1156 1.1829 1.577 0.48154 0.46817 1.0682 0.85347 1.7628 1.1536 0.83114 0.34495 1.6711 0.52193 2.5044 0.52193 0.86254 0 1.6598-0.18146 2.3791-0.53763 0.70555-0.34942 1.3102-0.83555 1.8164-1.4292 0.49283-0.59362 0.88053-1.2746 1.156-2.0183 0.28223-0.75491 0.41417-1.5456 0.41417-2.3543 0-0.74821-0.10972-1.4516-0.33585-2.0967-0.2353-0.65856-0.57362-1.2387-1.0125-1.7204"/><path d="m279.99 147.3c-0.45226-0.43011-1.0079-0.75269-1.6485-0.96548-0.1972-0.065-0.39864-0.11423-0.60925-0.15008 0.27094-0.27555 0.53517-0.58017 0.79058-0.90275 0.32702-0.41441 0.62054-0.85348 0.85795-1.3037 0.26459-0.49953 0.399-0.9677 0.399-1.4023 0-0.58018-0.1076-1.0909-0.3295-1.5076-0.21731-0.40771-0.50165-0.74821-0.85795-1.0148-0.34714-0.25985-0.73696-0.44803-1.1624-0.56003-0.81985-0.21954-1.7025-0.24642-2.6077 0.11874-0.42545 0.168-0.81527 0.38527-1.1716 0.63394-0.36266 0.25312-0.66287 0.5309-0.89818 0.83104-0.2868 0.37187-0.42545 0.74147-0.38735 1.1402 0.0335 0.22849 0.14993 0.4301 0.32703 0.60035 0.19262 0.16577 0.38312 0.19936 0.51082 0.19936 0.19015 0 0.36724-0.0762 0.53305-0.24194 0.34043-0.38304 0.66075-0.69888 0.94756-0.92964 0.39194-0.32702 1.2231-0.39648 1.7741 0.13441 0.25964 0.2509 0.39405 0.67204 0.39405 1.2657 0 0.3248-0.0984 0.65635-0.29563 1.0058-0.22154 0.392-0.50623 0.76609-0.84208 1.12-0.34501 0.36065-0.71684 0.68771-1.1112 0.97889-0.40075 0.29347-0.76835 0.53093-1.0619 0.69666l-0.46566 0.2218c-0.56022 0.27329-0.64982 0.67648-0.64982 0.89602 0 0.58691 0.381 0.99236 0.94086 0.99236 0.21519 0 0.4325-0.0919 0.74612-0.30914 0.15875-0.10305 0.27552-0.17473 0.40323-0.23297 0.20355-0.10753 0.39193-0.15904 0.59337-0.15904l0.10971 9e-3c0.3295 0.0314 0.64065 0.0739 0.93663 0.12993 0.31362 0.0627 0.59125 0.18592 0.82867 0.35394 0.24659 0.18144 0.45262 0.40097 0.62054 0.65857 0.17462 0.27552 0.3115 0.58244 0.40534 0.90498 0.10089 0.33154 0.14781 0.66308 0.14781 0.98118 0 0.62946-0.12982 1.2074-0.37853 1.7114-0.26423 0.51523-0.61383 0.9834-1.0594 1.3822-0.45473 0.41215-0.99906 0.77283-1.6108 1.073-0.61807 0.30018-1.2746 0.55107-1.9399 0.74595-0.21942 0.0269-0.40322 0.14337-0.51964 0.3114-0.0963 0.1344-0.16122 0.30014-0.18133 0.47265-0.0268 0.21505 0.0268 0.41889 0.14782 0.59584 0.0896 0.12322 0.29351 0.33154 0.68333 0.33154h0.0109c0.89182-0.0201 1.8214-0.22401 2.7665-0.61602 0.93204-0.38753 1.7988-0.91394 2.565-1.5636 0.77963-0.66531 1.4312-1.4381 1.942-2.3073 0.52211-0.90723 0.79092-1.8705 0.79092-2.874 0-0.67426-0.12558-1.3149-0.3496-1.9041-0.24412-0.5981-0.58702-1.1178-1.035-1.5524"/><path d="m293.79 147.09c-0.0917-0.19936-0.27552-0.46817-0.68792-0.62946-0.42545-0.17022-0.86889-0.0359-1.1645 0.36738l-0.67663 0.97218c-0.1658 0.23524-0.33161 0.47717-0.51294 0.72803-0.18168 0.24867-0.3429 0.47713-0.48613 0.65634-5e-3 4e-3 -0.10759 0.0919-0.53551 0.18147-0.42545 0.0874-0.88688 0.14559-1.3822 0.168-0.43674 0.0202-0.85549 0.0202-1.2541 0 0.13864-0.1456 0.29774-0.31137 0.46143-0.49058 0.32456-0.3472 0.66746-0.73473 1.0146-1.1648 0.36301-0.43011 0.70132-0.86918 1.0192-1.3194 0.31609-0.45025 0.60254-0.88706 0.83784-1.3104 0.25753-0.4525 0.43251-0.85347 0.51965-1.2096 0.381-1.3664 0.25329-2.4999-0.37642-3.3691-0.63606-0.88036-1.6372-1.3216-2.9725-1.3216-0.25083 0-0.49495 0.0112-0.73696 0.0269-0.27763 0.0202-0.56444 0.0739-0.85337 0.16577-0.29351 0.0986-0.60713 0.25312-0.92075 0.46595-0.30903 0.21057-0.62935 0.49953-0.96766 0.8714-0.0649 0.0605-0.1457 0.16577-0.2533 0.30688l-0.24165 0.33824c-0.11219 0.15459-0.20391 0.30688-0.27799 0.45699-0.0871 0.20161-0.13441 0.36512-0.13441 0.52416 0 0.2957 0.13229 0.55777 0.3743 0.73476 0.25964 0.18369 0.58914 0.21506 0.88018 0.0694 0.2039-0.10079 0.37183-0.28222 0.52211-0.54656 0.067-0.12322 0.16581-0.25763 0.29563-0.41219 0.10971-0.12319 0.26423-0.23519 0.46813-0.32928 0.13441-0.0695 0.40323-0.14337 0.89818-0.14337 0.89393 0 1.1402 0.36961 1.2231 0.49506 0.22189 0.33824 0.20179 0.85347-0.0515 1.5233-0.17004 0.4077-0.40075 0.87139-0.68086 1.3687-0.30021 0.52193-0.63641 1.064-1.0082 1.6151-0.38276 0.55552-0.78846 1.1178-1.2273 1.68-0.43921 0.56004-0.87383 1.0842-1.2813 1.5367-0.23989 0.23746-0.28928 0.48835-0.28928 0.65412 0 0.1456 0 0.59362 0.34078 0.86018 0.15452 0.12767 0.35172 0.19488 0.58244 0.21954l0.16792 0.0157c0.31821 0 0.52846-0.20832 0.66075-0.36513 0.36513 0 0.76624-9e-3 1.2051-0.0157 0.51294-9e-3 0.96767-0.0112 1.36-0.0112 0.97649 0.0291 1.7964 0.0986 2.4257 0.19488 0.67875 0.10304 1.2545 0.17699 1.687 0.20835l0.0963 4e-3c0.34714 0 0.71896-0.23971 0.77047-0.77731 0.0134-0.16577 0.0473-0.41219 0.0875-0.72581 0.0469-0.30462 0.14323-0.69666 0.28434-1.1626 0.13229-0.45025 0.3877-0.97444 0.75283-1.5568l0.1658-0.26434z"/><path d="m224.67 34.97 46.95-22.356 46.946 22.356z"/></g><g fill-rule="evenodd"><path d="m222.44 43.907h98.355v-4.4734h-98.355z"/><path d="m222.44 122.16h26.832v-13.416h-26.832z"/><path d="m293.97 122.16h26.82v-13.416h-26.82z"/><path d="m258.22 122.16h8.9357v-13.416h-8.9357z"/><path d="m276.09 122.16h8.9357v-13.416h-8.9357z"/></g><g><path d="m230.26 48.371 1.1156 55.899h-8.9357l1.1111-55.899z"/><path d="m248.15 48.371 1.1156 55.899h-8.9446l1.1156-55.899z"/><path d="m266.03 48.371 1.1158 55.899h-8.9426l1.118-55.899z"/><path d="m283.91 48.371 1.1155 55.899h-8.9359l1.1091-55.899z"/><path d="m301.8 48.371 1.1155 55.899h-8.9447l1.1243-55.899z"/><path d="m319.68 48.371 1.1155 55.899h-8.9359l1.1091-55.899z"/><path d="m271.62 1.4383-49.179 23.478v5.5778l49.179-23.471 49.177 23.471v-5.5778z"/></g></g></svg>
