<?xml version="1.0" encoding="UTF-8" standalone="no"?>
<!-- Created with Inkscape (http://www.inkscape.org/) -->

<svg
   width="269.99716mm"
   height="51.566284mm"
   viewBox="0 0 269.99716 51.566284"
   version="1.1"
   id="svg5"
   xml:space="preserve"
   inkscape:version="1.2.2 (b0a8486541, 2022-12-01)"
   sodipodi:docname="poster.svg"
   xmlns:inkscape="http://www.inkscape.org/namespaces/inkscape"
   xmlns:sodipodi="http://sodipodi.sourceforge.net/DTD/sodipodi-0.dtd"
   xmlns="http://www.w3.org/2000/svg"
   xmlns:svg="http://www.w3.org/2000/svg"><sodipodi:namedview
     id="namedview7"
     pagecolor="#505050"
     bordercolor="#ffffff"
     borderopacity="1"
     inkscape:showpageshadow="0"
     inkscape:pageopacity="0"
     inkscape:pagecheckerboard="1"
     inkscape:deskcolor="#505050"
     inkscape:document-units="mm"
     showgrid="false"
     inkscape:zoom="0.125"
     inkscape:cx="1352"
     inkscape:cy="2420"
     inkscape:window-width="1920"
     inkscape:window-height="1009"
     inkscape:window-x="1920"
     inkscape:window-y="0"
     inkscape:window-maximized="1"
     inkscape:current-layer="layer1" /><defs
     id="defs2" /><g
     id="g6512"
     transform="matrix(0.32912363,0,0,0.32912363,-73.209861,-0.47327746)"><path
       d="m 400.58729,124.02845 2.03658,-2.90925 c -1.40617,-0.67875 -2.32762,-1.72156 -2.76401,-3.12738 -0.3877,-1.40617 -0.5334,-3.56411 -0.43639,-6.47347 l 0.29105,-13.382624 c 0.097,-1.6002 0.0483,-3.103386 -0.14535,-4.509558 -0.1457,-1.454503 -0.55774,-2.860675 -1.23648,-4.218517 -0.72743,-1.503186 -1.8669,-2.642658 -3.41842,-3.418416 -1.50319,-0.775759 -3.37009,-1.163461 -5.60035,-1.163461 -2.61867,0 -5.13997,0.436386 -7.56426,1.309158 -2.42464,0.872772 -4.75191,2.084917 -6.98253,3.636433 l 2.03659,2.909359 c 1.45485,-1.260828 3.24873,-2.327275 5.38233,-3.200048 2.13324,-0.873125 4.31553,-1.3335 6.54579,-1.382183 1.26083,0 2.32763,0.194028 3.2004,0.582083 0.87277,0.387703 1.62419,0.921103 2.2546,1.599848 0.58173,0.630414 0.96979,1.479197 1.16382,2.545644 0.19402,1.0668 0.29068,2.472972 0.29068,4.218517 V 100.463 c -0.19367,0 -0.60607,-0.024 -1.23613,-0.0727 h -2.03658 c -5.91574,0 -10.5463,1.0668 -13.89204,3.2004 -3.34574,2.13325 -5.04261,5.3093 -5.09129,9.52782 0,1.69722 0.33937,3.3214 1.01847,4.87327 0.67874,1.55152 1.89089,2.83634 3.63643,3.85481 1.74555,0.96978 4.12151,1.47874 7.12788,1.52724 2.1336,0 4.07282,-0.41215 5.81836,-1.23655 1.7459,-0.77576 3.39443,-2.03659 4.94595,-3.78214 0.29104,1.35785 0.82444,2.47298 1.6002,3.34575 0.77575,0.92145 1.76988,1.57596 2.98203,1.96388 z m -14.61911,-3.34564 c -2.86103,-0.0487 -4.9216,-0.75177 -6.18243,-2.10926 -1.26048,-1.40617 -1.89089,-3.24873 -1.89089,-5.52767 0,-3.2004 1.16346,-5.57636 3.49109,-7.12788 2.32727,-1.55151 5.91573,-2.32727 10.76431,-2.32727 h 1.74554 c 0.58208,0 1.11548,0.024 1.6002,0.0727 v 11.41907 c -1.0668,1.74554 -2.42429,3.10303 -4.07282,4.07281 -1.64888,0.96979 -3.49144,1.45486 -5.52767,1.45486 v -0.0727 z"
       style="fill:#ffffff;fill-opacity:1;fill-rule:nonzero;stroke:none;stroke-width:0.352778"
       id="path5933" /><path
       d="m 412.87489,122.86474 h 4.07282 V 98.353743 c 0,-1.454503 0.19403,-2.618317 0.58173,-3.491089 0.38806,-0.872772 1.0668,-1.769886 2.03659,-2.690989 0.96978,-0.969786 1.98825,-1.697214 3.0547,-2.18193 1.0668,-0.48507 2.18228,-0.727428 3.34574,-0.727428 0.29105,0 0.58209,0.02434 0.87278,0.07267 0.29104,0.09701 0.5334,0.194028 0.72742,0.291042 l 1.6002,-4.363861 c -0.097,-0.04868 -0.33937,-0.121356 -0.72742,-0.21837 -0.38771,-0.09701 -0.82409,-0.145344 -1.30916,-0.145344 -1.01812,0 -2.06058,0.194028 -3.12738,0.58173 -1.0668,0.388056 -2.1336,0.994128 -3.2004,1.818217 -0.77576,0.582083 -1.50318,1.212497 -2.18193,1.891242 -0.67874,0.727428 -1.26083,1.478844 -1.74554,2.254603 0,-1.890889 -0.14535,-3.369734 -0.43639,-4.436534 -0.29104,-1.0668 -0.50906,-1.697214 -0.65475,-1.891241 l -4.07282,1.018469 c 0.14534,0.193675 0.36371,0.872772 0.6544,2.036233 0.29104,1.163814 0.43639,2.958042 0.43639,5.382331 v 29.238576 -0.0727 z"
       style="fill:#ffffff;fill-opacity:1;fill-rule:nonzero;stroke:none;stroke-width:0.352778"
       id="path5935" /><path
       d="m 442.76328,123.22839 h 4.14585 l 13.67366,-37.457172 h -4.36386 l -9.89154,28.147432 c -0.38805,1.0668 -0.70308,2.03659 -0.94544,2.90936 -0.24271,0.87277 -0.36371,1.4545 -0.36371,1.74554 h -0.1457 c -0.097,-0.29104 -0.2667,-0.87277 -0.50906,-1.74554 -0.19403,-0.87277 -0.46073,-1.81822 -0.8001,-2.83669 l -9.89153,-28.802185 -4.14585,0.872772 13.23728,37.239223 z"
       style="fill:#ffffff;fill-opacity:1;fill-rule:nonzero;stroke:none;stroke-width:0.352778"
       id="path5937" /><path
       d="m 492.87183,124.02845 2.69099,-2.69123 c -0.67874,-0.72708 -1.16381,-1.64854 -1.4545,-2.76367 -0.29104,-1.16381 -0.43639,-2.83668 -0.43639,-5.01861 V 85.189135 l -4.07317,0.727428 v 27.711047 c -1.26083,2.1336 -2.81234,3.78213 -4.6549,4.94594 -1.84256,1.16382 -3.73345,1.74555 -5.67302,1.74555 -1.01847,0 -1.96391,-0.14535 -2.83669,-0.43639 -0.87277,-0.29104 -1.6002,-0.67874 -2.18193,-1.16381 -0.77575,-0.63042 -1.35784,-1.43016 -1.74554,-2.39995 -0.38806,-1.01847 -0.58208,-2.30328 -0.58208,-3.8548 V 85.116463 l -3.92748,0.872772 v 27.638375 c 0,1.21214 0.1457,2.30329 0.43639,3.27307 0.24271,1.01812 0.60607,1.8669 1.09114,2.54565 0.72743,1.35749 1.81822,2.42429 3.27307,3.20004 1.4545,0.77597 3.24873,1.16389 5.38198,1.16389 2.42464,0 4.6549,-0.50913 6.69149,-1.52725 2.03658,-0.96978 3.78213,-2.42464 5.23663,-4.36421 0.19403,1.45485 0.5334,2.64266 1.01847,3.56411 0.48472,0.92111 1.16346,1.76971 2.03623,2.54554 v -0.0727 z"
       style="fill:#ffffff;fill-opacity:1;fill-rule:nonzero;stroke:none;stroke-width:0.352778"
       id="path5939" /><path
       d="m 514.46889,123.883 c 1.16381,0 2.23061,-0.097 3.2004,-0.29093 0.96978,-0.19396 1.84256,-0.4849 2.61832,-0.87267 l -0.58209,-2.61867 c -0.48471,0.24271 -1.04246,0.43674 -1.67287,0.58208 -0.58173,0.14535 -1.30916,0.21802 -2.18193,0.21802 -1.84256,0 -3.15172,-0.50906 -3.92748,-1.52718 -0.77575,-1.01847 -1.16381,-2.54564 -1.16381,-4.58223 V 89.043938 h 8.00065 l 1.30916,-3.054703 h -9.16411 c 0,-1.648531 0.0483,-3.200047 0.14534,-4.654903 0.097,-1.454503 0.19403,-2.690989 0.29104,-3.709106 0.097,-1.0668 0.19368,-1.745544 0.29069,-2.036586 l -4.29119,0.872773 c -0.097,0.291041 -0.19367,0.945444 -0.29068,1.963913 -0.097,1.066448 -0.19403,2.278945 -0.29105,3.636434 -0.097,1.357841 -0.14534,2.690989 -0.14534,4.000147 h -4.8006 v 3.055056 h 4.8006 v 26.838277 c 0,1.69686 0.24236,3.12737 0.72707,4.29119 0.48507,1.16381 1.21215,2.03658 2.18193,2.61831 0.58209,0.38788 1.26083,0.70309 2.03659,0.94552 0.77576,0.29093 1.67287,0.43638 2.69134,0.43638 v -0.0727 z"
       style="fill:#ffffff;fill-opacity:1;fill-rule:nonzero;stroke:none;stroke-width:0.352778"
       id="path5941" /><path
       d="m 530.4656,77.334185 c 0.87277,0 1.62454,-0.315031 2.25495,-0.945445 0.63006,-0.582083 0.94545,-1.3335 0.94545,-2.254955 0,-0.969434 -0.31539,-1.745545 -0.94545,-2.327275 -0.63041,-0.581731 -1.38218,-0.872772 -2.25495,-0.872772 -0.92111,0 -1.69686,0.31503 -2.32728,0.945444 -0.63041,0.582083 -0.94544,1.3335 -0.94544,2.254603 0,0.921455 0.31503,1.672872 0.94544,2.254955 0.63042,0.630414 1.40617,0.945445 2.32728,0.945445 z m -2.18193,45.530555 h 4.21851 V 85.04379 l -4.21851,0.654756 v 37.093524 -0.0727 z"
       style="fill:#ffffff;fill-opacity:1;fill-rule:nonzero;stroke:none;stroke-width:0.352778"
       id="path5943" /><path
       d="m 553.44483,123.883 c 1.16382,0 2.23026,-0.097 3.20005,-0.29093 0.96979,-0.19396 1.84256,-0.4849 2.61867,-0.87267 l -0.58208,-2.61867 c -0.48472,0.24271 -1.04246,0.43674 -1.67288,0.58208 -0.58173,0.14535 -1.30915,0.21802 -2.18193,0.21802 -1.84255,0 -3.15171,-0.50906 -3.92747,-1.52718 -0.77576,-1.01847 -1.16381,-2.54564 -1.16381,-4.58223 V 89.043938 h 8.00064 l 1.30916,-3.054703 h -9.16446 c 0,-1.648531 0.0487,-3.200047 0.1457,-4.654903 0.097,-1.454503 0.19403,-2.690989 0.29069,-3.709106 0.097,-1.0668 0.19402,-1.745544 0.29104,-2.036586 l -4.29119,0.872773 c -0.097,0.291041 -0.19403,0.945444 -0.29104,1.963913 -0.0967,1.066448 -0.19368,2.278945 -0.29069,3.636434 -0.097,1.357841 -0.1457,2.690989 -0.1457,4.000147 h -4.80025 v 3.055056 h 4.80025 v 26.838277 c 0,1.69686 0.24271,3.12737 0.72743,4.29119 0.48507,1.16381 1.21214,2.03658 2.18193,2.61831 0.58208,0.38788 1.26083,0.70309 2.03659,0.94552 0.77575,0.29093 1.67287,0.43638 2.69098,0.43638 v -0.0727 z"
       style="fill:#ffffff;fill-opacity:1;fill-rule:nonzero;stroke:none;stroke-width:0.352778"
       id="path5945" /><path
       d="m 580.78934,123.59207 c 2.3742,0 4.5332,-0.36368 6.46995,-1.09104 1.98966,-0.67875 3.76061,-1.69721 5.31283,-3.0547 l -1.60161,-2.61832 c -1.25942,1.16381 -2.667,2.03659 -4.21922,2.61832 -1.55222,0.5334 -3.24909,0.8001 -5.09059,0.8001 -2.08491,0 -3.95111,-0.38806 -5.60211,-1.16382 -1.64747,-0.77576 -2.98097,-1.91523 -3.99873,-3.41841 -0.67875,-1.0668 -1.23649,-2.37596 -1.67287,-3.92748 -0.43639,-1.55152 -0.67875,-3.3214 -0.72708,-5.30966 v -1.89089 h 23.85766 v -0.87277 c 0,-2.71533 -0.14817,-4.994274 -0.43745,-6.836832 -0.2928,-1.842558 -0.75142,-3.394428 -1.38289,-4.654903 -0.63147,-1.260827 -1.42875,-2.375958 -2.39889,-3.345744 -1.11477,-1.115131 -2.44827,-2.012245 -4.0005,-2.690989 -1.55222,-0.679097 -3.32316,-1.018469 -5.3093,-1.018469 -2.22956,0 -4.21922,0.436386 -5.96547,1.309158 -1.74484,0.872772 -3.24803,2.060928 -4.50886,3.564114 -1.4545,1.745544 -2.54564,3.757789 -3.27272,6.036733 -0.72742,2.230261 -1.09114,4.921602 -1.09114,8.073322 0,3.92747 0.60608,7.34589 1.81822,10.25525 1.21214,2.90936 2.98203,5.1883 5.30966,6.83683 2.32692,1.64853 5.18795,2.4729 8.58167,2.47294 z m -11.20245,-22.2563 c 0.24271,-4.412188 1.26082,-7.709602 3.05505,-9.891532 1.84327,-2.230262 4.1716,-3.345745 6.98324,-3.345745 1.74625,0 3.24908,0.339372 4.5085,1.01847 1.25941,0.727075 2.25425,1.672872 2.98097,2.836333 0.58208,0.969786 1.04422,2.206272 1.38289,3.709458 0.33866,1.454503 0.508,3.297061 0.508,5.527676 h -19.49133 v -0.0727 z"
       style="fill:#ffffff;fill-opacity:1;fill-rule:nonzero;stroke:none;stroke-width:0.352778"
       id="path5947" /><path
       d="m 627.9134,124.02845 2.03552,-2.90925 c -1.40405,-0.67875 -2.3248,-1.72156 -2.76225,-3.12738 -0.38805,-1.40617 -0.53269,-3.56411 -0.43744,-6.47347 l 0.29281,-13.382624 c 0.0952,-1.6002 0.0494,-3.103386 -0.14464,-4.509558 -0.14817,-1.454503 -0.56092,-2.860675 -1.23825,-4.218517 -0.72672,-1.503186 -1.8662,-2.642658 -3.41842,-3.418416 -1.50283,-0.775759 -3.36903,-1.163461 -5.59858,-1.163461 -2.62114,0 -5.13997,0.436386 -7.56709,1.309158 -2.42358,0.872772 -4.75191,2.084917 -6.98147,3.636433 l 2.03553,2.909359 c 1.45697,-1.260828 3.24908,-2.327275 5.38339,-3.200048 2.1343,-0.873125 4.31447,-1.3335 6.54755,-1.382183 1.25942,0 2.32481,0.194028 3.1997,0.582083 0.87136,0.387703 1.62278,0.921103 2.25425,1.599848 0.58208,0.630414 0.97014,1.479197 1.16417,2.545644 0.19402,1.0668 0.28927,2.472972 0.28927,4.218517 V 100.463 c -0.19402,0 -0.60677,-0.024 -1.23472,-0.0727 h -2.03905 c -5.91256,0 -10.54453,1.0668 -13.88887,3.2004 -3.34786,2.13325 -5.04472,5.3093 -5.09411,9.52782 0,1.69722 0.3422,3.3214 1.01953,4.87327 0.67733,1.55152 1.89089,2.83634 3.63714,3.85481 1.74625,0.96978 4.12044,1.47874 7.12611,1.52724 2.13431,0 4.07458,-0.41215 5.82083,-1.23655 1.74625,-0.77576 3.39373,-2.03659 4.94595,-3.78214 0.28928,1.35785 0.82197,2.47298 1.59808,3.34575 0.77611,0.92145 1.77095,1.57596 2.9845,1.96388 z m -14.61911,-3.34564 c -2.86103,-0.0487 -4.92125,-0.75177 -6.18067,-2.10926 -1.26294,-1.40617 -1.89089,-3.24873 -1.89089,-5.52767 0,-3.2004 1.16417,-5.57636 3.48897,-7.12788 2.32834,-1.55151 5.91609,-2.32727 10.76678,-2.32727 h 1.74272 c 0.58209,0 1.11831,0.024 1.60161,0.0727 v 11.41907 c -1.06538,1.74554 -2.42358,3.10303 -4.07458,4.07281 -1.64747,0.96979 -3.48897,1.45486 -5.5245,1.45486 v -0.0727 z"
       style="fill:#ffffff;fill-opacity:1;fill-rule:nonzero;stroke:none;stroke-width:0.352778"
       id="path5949" /><path
       d="m 652.71015,123.44658 c 2.1343,0 4.07458,-0.38788 5.82083,-1.16357 1.69686,-0.77611 3.175,-2.01224 4.43442,-3.70946 0.0988,0.92111 0.24341,1.81822 0.43744,2.69099 0.19403,0.87278 0.36336,1.45486 0.508,1.74565 h 4.07458 c -0.38805,-1.0669 -0.67733,-2.47272 -0.87136,-4.21862 -0.19403,-1.74554 -0.2928,-4.09716 -0.2928,-7.05485 V 69.260865 l -4.07106,-0.727427 v 21.528969 c -1.1183,-1.503186 -2.54705,-2.667 -4.2933,-3.491089 -1.74625,-0.824442 -3.73239,-1.236486 -5.96195,-1.236486 -1.50636,0 -2.93511,0.242358 -4.2933,0.727075 -1.3582,0.485069 -2.667,1.260828 -3.92642,2.327628 -2.13431,1.745544 -3.73592,3.976158 -4.80131,6.691489 -1.06538,2.71533 -1.59808,5.915376 -1.59808,9.600496 0,2.76401 0.28928,5.30966 0.87136,7.63693 0.58209,2.27895 1.42875,4.21852 2.54706,5.81872 1.25941,1.74554 2.83633,3.07904 4.72722,4.00015 1.89089,0.96985 4.09575,1.45475 6.61811,1.45475 z m 0.14816,-3.4912 c -1.94028,0 -3.61244,-0.3877 -5.02002,-1.16381 -1.40759,-0.77576 -2.56823,-1.96356 -3.4925,-3.56376 -0.67734,-1.16381 -1.16064,-2.69099 -1.45345,-4.58223 -0.28928,-1.84256 -0.43744,-3.87915 -0.43744,-6.10941 0,-2.81234 0.24341,-5.139968 0.73025,-6.982527 0.4833,-1.842558 1.23472,-3.466747 2.25425,-4.872919 0.92075,-1.357489 2.06022,-2.375959 3.41841,-3.054703 1.3582,-0.678745 2.81164,-1.01847 4.36386,-1.01847 2.3742,0 4.33917,0.388056 5.89139,1.163814 1.55222,0.775759 2.76225,1.794228 3.63714,3.054703 v 21.528972 c -0.77611,1.55151 -1.98967,2.86067 -3.63714,3.92747 -1.651,1.0668 -3.73591,1.62454 -6.25475,1.67287 v -0.0727 z"
       style="fill:#ffffff;fill-opacity:1;fill-rule:nonzero;stroke:none;stroke-width:0.352778"
       id="path5951" /><path
       d="m 704.63903,124.02845 2.6917,-2.69123 c -0.68086,-0.72708 -1.16417,-1.64854 -1.45698,-2.76367 -0.28927,-1.16381 -0.43391,-2.83668 -0.43391,-5.01861 V 85.189135 l -4.07459,0.727428 v 27.711047 c -1.25941,2.1336 -2.81163,3.78213 -4.65666,4.94594 -1.8415,1.16382 -3.73239,1.74555 -5.67267,1.74555 -1.016,0 -1.96144,-0.14535 -2.83633,-0.43639 -0.87136,-0.29104 -1.59808,-0.67874 -2.18017,-1.16381 -0.77611,-0.63042 -1.35819,-1.43016 -1.74625,-2.39995 -0.38805,-1.01847 -0.58208,-2.30328 -0.58208,-3.8548 V 85.116463 l -3.92642,0.872772 v 27.638375 c 0,1.21214 0.14464,2.30329 0.43392,3.27307 0.24342,1.01812 0.60678,1.8669 1.09361,2.54565 0.72672,1.35749 1.81681,2.42429 3.27025,3.20004 1.45697,0.77597 3.24908,1.16389 5.38339,1.16389 2.42358,0 4.65666,-0.50913 6.69219,-1.52725 2.03553,-0.96978 3.78178,-2.42464 5.23522,-4.36421 0.19403,1.45485 0.5327,2.64266 1.01953,3.56411 0.48331,0.92111 1.16417,1.76971 2.03553,2.54554 v -0.0727 z"
       style="fill:#ffffff;fill-opacity:1;fill-rule:nonzero;stroke:none;stroke-width:0.352778"
       id="path5953" /><path
       d="m 727.68953,123.73752 c 4.0252,-0.0485 7.2002,-1.11514 9.52853,-3.20005 2.32833,-2.03659 3.51367,-4.8006 3.56305,-8.29169 0,-2.5213 -0.75141,-4.63056 -2.25425,-6.32778 -1.55222,-1.69721 -4.0005,-2.88501 -7.34483,-3.56376 l -4.8013,-1.01847 c -2.08492,-0.43638 -3.63714,-1.16346 -4.65314,-2.181927 -1.01953,-1.0668 -1.52753,-2.472972 -1.52753,-4.218517 0,-2.036233 0.67733,-3.685116 2.03553,-4.945591 1.35819,-1.260828 3.34433,-1.915231 5.96194,-1.963914 1.651,0 3.22439,0.242358 4.73075,0.727428 1.50283,0.484716 2.93158,1.11513 4.28978,1.890889 l 1.60161,-2.982031 c -1.45697,-0.872772 -3.10444,-1.551517 -4.94594,-2.036586 -1.84503,-0.533047 -3.76062,-0.799747 -5.74675,-0.799747 -3.83117,0.04833 -6.83684,1.042458 -9.02053,2.98203 -2.18017,1.93922 -3.29495,4.484864 -3.34433,7.636934 0,2.618316 0.77611,4.751562 2.32833,6.400442 1.55222,1.64854 3.78178,2.76367 6.68866,3.3454 l 4.65667,0.87277 c 2.42358,0.5334 4.16983,1.38218 5.23522,2.54564 1.06892,1.16382 1.60161,2.61867 1.60161,4.36422 0,2.27894 -0.75141,4.09716 -2.25425,5.455 -1.55222,1.35749 -3.68652,2.03623 -6.39938,2.03623 -2.13431,0 -4.17337,-0.29069 -6.11012,-0.87277 -1.94027,-0.58173 -3.76061,-1.40617 -5.45747,-2.47297 l -1.59808,2.98203 c 1.74625,1.11548 3.73239,1.98825 5.96194,2.61867 2.23309,0.6302 4.53673,0.94537 6.91092,0.94541 v -0.0727 z"
       style="fill:#ffffff;fill-opacity:1;fill-rule:nonzero;stroke:none;stroke-width:0.352778"
       id="path5955" /><path
       d="m 764.05033,123.59207 c 2.37773,0 4.53673,-0.36368 6.47348,-1.09104 1.98966,-0.67875 3.76061,-1.69721 5.3093,-3.0547 l -1.59808,-2.61832 c -1.26295,1.16381 -2.667,2.03659 -4.21922,2.61832 -1.55223,0.5334 -3.24909,0.8001 -5.09059,0.8001 -2.08491,0 -3.95111,-0.38806 -5.60211,-1.16382 -1.64747,-0.77576 -2.98097,-1.91523 -4.0005,-3.41841 -0.67733,-1.0668 -1.23472,-2.37596 -1.67216,-3.92748 -0.43745,-1.55152 -0.67734,-3.3214 -0.72673,-5.30966 v -1.89089 h 23.85484 v -0.87277 c 0,-2.71533 -0.14464,-4.994274 -0.43392,-6.836832 -0.29281,-1.842558 -0.75142,-3.394428 -1.38289,-4.654903 -0.63147,-1.260827 -1.42875,-2.375958 -2.39889,-3.345744 -1.11478,-1.115131 -2.44828,-2.012245 -4.0005,-2.690989 -1.55222,-0.679097 -3.32316,-1.018469 -5.3093,-1.018469 -2.23309,0 -4.21922,0.436386 -5.96547,1.309158 -1.74625,0.872772 -3.24909,2.060928 -4.5085,3.564114 -1.45698,1.745544 -2.54706,3.757789 -3.27378,6.036733 -0.72672,2.230261 -1.09009,4.921602 -1.09009,8.073322 0,3.92747 0.60678,7.34589 1.81681,10.25525 1.21356,2.90936 2.98097,5.1883 5.30931,6.83683 2.32833,1.64853 5.18936,2.4729 8.58308,2.47294 z m -11.20069,-22.2563 c 0.24342,-4.412188 1.26295,-7.709602 3.05506,-9.891532 1.84502,-2.230262 4.16983,-3.345745 6.985,-3.345745 1.74272,0 3.24555,0.339372 4.5085,1.01847 1.25941,0.727075 2.25425,1.672872 2.98097,2.836333 0.58208,0.969786 1.04422,2.206272 1.38289,3.709458 0.33866,1.454503 0.508,3.297061 0.508,5.527676 h -19.49097 v -0.0727 z"
       style="fill:#ffffff;fill-opacity:1;fill-rule:nonzero;stroke:none;stroke-width:0.352778"
       id="path5957" /><path
       d="m 805.86508,77.334185 c 0.87136,0 1.62278,-0.315031 2.25425,-0.945445 0.63148,-0.582083 0.94545,-1.3335 0.94545,-2.254955 0,-0.969434 -0.31397,-1.745545 -0.94545,-2.327275 -0.63147,-0.581731 -1.38289,-0.872772 -2.25425,-0.872772 -0.92075,0 -1.69686,0.31503 -2.32833,0.945444 -0.63147,0.582083 -0.94544,1.3335 -0.94544,2.254603 0,0.921455 0.31397,1.672872 0.94544,2.254955 0.63147,0.630414 1.40758,0.945445 2.32833,0.945445 z m -2.18369,45.530555 h 4.21922 V 85.04379 l -4.21922,0.654756 v 37.093524 -0.0727 z"
       style="fill:#ffffff;fill-opacity:1;fill-rule:nonzero;stroke:none;stroke-width:0.352778"
       id="path5959" /><path
       d="m 820.98867,122.86474 h 3.92641 V 94.353596 c 1.55222,-1.745545 3.34786,-3.151717 5.38339,-4.218517 1.98614,-1.018116 3.85586,-1.527528 5.59858,-1.527528 1.06892,0 2.03906,0.170039 2.91042,0.509412 0.87136,0.290688 1.55222,0.703086 2.03553,1.236486 0.58208,0.678744 1.01953,1.478844 1.3088,2.399947 0.29281,0.921455 0.43745,2.230614 0.43745,3.927475 v 26.183869 h 4.07458 V 94.644638 c 0,-0.969787 -0.12347,-1.891242 -0.36336,-2.764014 -0.29281,-0.872773 -0.65617,-1.648531 -1.09361,-2.327275 -0.72672,-1.357842 -1.81681,-2.424642 -3.27025,-3.2004 -1.45697,-0.775759 -3.15383,-1.163814 -5.09411,-1.163814 -2.13078,0 -4.19453,0.509411 -6.18067,1.527528 -2.03553,1.018116 -3.9758,2.497313 -5.8173,4.436533 -0.0494,-1.648531 -0.21873,-3.00602 -0.51153,-4.07282 -0.28928,-1.0668 -0.48331,-1.697213 -0.58208,-1.891241 l -3.92642,1.018469 c 0.28928,0.581731 0.58208,1.454503 0.87136,2.618317 0.29281,1.163814 0.43744,2.763661 0.43744,4.800247 v 29.311252 -0.0727 z"
       style="fill:#ffffff;fill-opacity:1;fill-rule:nonzero;stroke:none;stroke-width:0.352778"
       id="path5961" /><path
       d="m 868.6948,123.73752 c 4.0252,-0.0485 7.20372,-1.11514 9.52853,-3.20005 2.32833,-2.03659 3.51719,-4.8006 3.56658,-8.29169 0,-2.5213 -0.75494,-4.63056 -2.25777,-6.32778 -1.5487,-1.69721 -4.0005,-2.88501 -7.34484,-3.56376 l -4.8013,-1.01847 c -2.08492,-0.43638 -3.63361,-1.16346 -4.65314,-2.181927 -1.01953,-1.0668 -1.52753,-2.472972 -1.52753,-4.218517 0,-2.036233 0.67733,-3.685116 2.03553,-4.945591 1.35819,-1.260828 3.34786,-1.915231 5.96547,-1.963914 1.64747,0 3.22439,0.242358 4.72722,0.727428 1.50284,0.484716 2.93159,1.11513 4.28978,1.890889 l 1.60161,-2.982031 c -1.45344,-0.872772 -3.10444,-1.551517 -4.94594,-2.036586 -1.8415,-0.533047 -3.75709,-0.799747 -5.74675,-0.799747 -3.83117,0.04833 -6.83684,1.042458 -9.017,2.98203 -2.1837,1.93922 -3.29848,4.484864 -3.34786,7.636934 0,2.618316 0.77611,4.751562 2.32833,6.400442 1.55222,1.64854 3.78178,2.76367 6.69219,3.3454 l 4.65314,0.87277 c 2.42711,0.5334 4.16984,1.38218 5.23875,2.54564 1.06539,1.16382 1.59809,2.61867 1.59809,4.36422 0,2.27894 -0.75142,4.09716 -2.25425,5.455 -1.55223,1.35749 -3.683,2.03623 -6.39939,2.03623 -2.13431,0 -4.16984,-0.29069 -6.11011,-0.87277 -1.94028,-0.58173 -3.75709,-1.40617 -5.45395,-2.47297 l -1.60161,2.98203 c 1.74625,1.11548 3.73239,1.98825 5.96547,2.61867 2.22956,0.6302 4.5332,0.94537 6.90739,0.94541 v -0.0727 z"
       style="fill:#ffffff;fill-opacity:1;fill-rule:nonzero;stroke:none;stroke-width:0.352778"
       id="path5963" /><path
       d="m 899.38647,123.883 c 1.16416,0 2.22955,-0.097 3.19969,-0.29093 0.97014,-0.19396 1.8415,-0.4849 2.61761,-0.87267 l -0.58208,-2.61867 c -0.48331,0.24271 -1.0407,0.43674 -1.67217,0.58208 -0.58208,0.14535 -1.3088,0.21802 -2.18369,0.21802 -1.8415,0 -3.15031,-0.50906 -3.92642,-1.52718 -0.77611,-1.01847 -1.16416,-2.54564 -1.16416,-4.58223 V 89.043938 h 8.00099 l 1.30881,-3.054703 h -9.16517 c 0,-1.648531 0.0494,-3.200047 0.14817,-4.654903 0.0953,-1.454503 0.19403,-2.690989 0.28928,-3.709106 0.0988,-1.0668 0.19403,-1.745544 0.2928,-2.036586 l -4.2933,0.872773 c -0.0953,0.291041 -0.19403,0.945444 -0.28928,1.963913 -0.0988,1.066448 -0.19403,2.278945 -0.2928,3.636434 -0.0952,1.357841 -0.14464,2.690989 -0.14464,4.000147 h -4.80131 v 3.055056 h 4.80131 v 26.838277 c 0,1.69686 0.24341,3.12737 0.72672,4.29119 0.48683,1.16381 1.21355,2.03658 2.18369,2.61831 0.58209,0.38788 1.25942,0.70309 2.03553,0.94552 0.77611,0.29093 1.67217,0.43638 2.6917,0.43638 v -0.0727 z"
       style="fill:#ffffff;fill-opacity:1;fill-rule:nonzero;stroke:none;stroke-width:0.352778"
       id="path5965" /><path
       d="m 915.38141,77.334185 c 0.87489,0 1.62631,-0.315031 2.25425,-0.945445 0.63147,-0.582083 0.94545,-1.3335 0.94545,-2.254955 0,-0.969434 -0.31398,-1.745545 -0.94545,-2.327275 -0.62794,-0.581731 -1.37936,-0.872772 -2.25425,-0.872772 -0.92075,0 -1.69686,0.31503 -2.32833,0.945444 -0.62795,0.582083 -0.94545,1.3335 -0.94545,2.254603 0,0.921455 0.3175,1.672872 0.94545,2.254955 0.63147,0.630414 1.40758,0.945445 2.32833,0.945445 z m -2.18017,45.530555 h 4.2157 V 85.04379 l -4.2157,0.654756 v 37.093524 -0.0727 z"
       style="fill:#ffffff;fill-opacity:1;fill-rule:nonzero;stroke:none;stroke-width:0.352778"
       id="path5967" /><path
       d="m 938.36135,123.883 c 1.16417,0 2.22956,-0.097 3.1997,-0.29093 0.97014,-0.19396 1.8415,-0.4849 2.61761,-0.87267 l -0.58208,-2.61867 c -0.48331,0.24271 -1.0407,0.43674 -1.67217,0.58208 -0.58208,0.14535 -1.30881,0.21802 -2.18017,0.21802 -1.84502,0 -3.15383,-0.50906 -3.92994,-1.52718 -0.77611,-1.01847 -1.16417,-2.54564 -1.16417,-4.58223 V 89.043938 h 8.001 l 1.30881,-3.054703 h -9.16164 c 0,-1.648531 0.0459,-3.200047 0.14464,-4.654903 0.0952,-1.454503 0.19403,-2.690989 0.28928,-3.709106 0.0988,-1.0668 0.19402,-1.745544 0.2928,-2.036586 l -4.2933,0.872773 c -0.0952,0.291041 -0.19403,0.945444 -0.28928,1.963913 -0.0988,1.066448 -0.19403,2.278945 -0.29281,3.636434 -0.0952,1.357841 -0.14464,2.690989 -0.14464,4.000147 h -4.79777 v 3.055056 h 4.79777 v 26.838277 c 0,1.69686 0.24342,3.12737 0.72673,4.29119 0.48683,1.16381 1.21355,2.03658 2.18369,2.61831 0.58208,0.38788 1.25942,0.70309 2.03553,0.94552 0.77611,0.29093 1.67216,0.43638 2.69169,0.43638 v -0.0727 z"
       style="fill:#ffffff;fill-opacity:1;fill-rule:nonzero;stroke:none;stroke-width:0.352778"
       id="path5969" /><path
       d="m 976.90585,124.02845 2.6917,-2.69123 c -0.68086,-0.72708 -1.16417,-1.64854 -1.45698,-2.76367 -0.28927,-1.16381 -0.43391,-2.83668 -0.43391,-5.01861 V 85.189135 l -4.07459,0.727428 v 27.711047 c -1.25941,2.1336 -2.81163,3.78213 -4.65666,4.94594 -1.8415,1.16382 -3.73239,1.74555 -5.67267,1.74555 -1.016,0 -1.96144,-0.14535 -2.83633,-0.43639 -0.87136,-0.29104 -1.59808,-0.67874 -2.18017,-1.16381 -0.77611,-0.63042 -1.35819,-1.43016 -1.74625,-2.39995 -0.38805,-1.01847 -0.58208,-2.30328 -0.58208,-3.8548 V 85.116463 l -3.92642,0.872772 v 27.638375 c 0,1.21214 0.14464,2.30329 0.43392,3.27307 0.24342,1.01812 0.60678,1.8669 1.09361,2.54565 0.72672,1.35749 1.81681,2.42429 3.27025,3.20004 1.45697,0.77597 3.24908,1.16389 5.38339,1.16389 2.42358,0 4.65667,-0.50913 6.69219,-1.52725 2.03553,-0.96978 3.78178,-2.42464 5.23522,-4.36421 0.19403,1.45485 0.5327,2.64266 1.01953,3.56411 0.48331,0.92111 1.16417,1.76971 2.03553,2.54554 v -0.0727 z"
       style="fill:#ffffff;fill-opacity:1;fill-rule:nonzero;stroke:none;stroke-width:0.352778"
       id="path5971" /><path
       d="m 1015.3763,124.02845 2.6917,-2.69123 c -0.6809,-0.72708 -1.1642,-1.64854 -1.457,-2.76367 -0.2893,-1.16381 -0.4339,-2.83668 -0.4339,-5.01861 V 85.189135 l -4.0746,0.727428 v 27.711047 c -1.2594,2.1336 -2.8116,3.78213 -4.6531,4.94594 -1.8451,1.16382 -3.736,1.74555 -5.6727,1.74555 -1.0195,0 -1.96499,-0.14535 -2.83988,-0.43639 -0.87136,-0.29104 -1.59808,-0.67874 -2.18016,-1.16381 -0.77611,-0.63042 -1.3582,-1.43016 -1.74625,-2.39995 -0.38806,-1.01847 -0.58209,-2.30328 -0.58209,-3.8548 V 85.116463 l -3.92641,0.872772 v 27.638375 c 0,1.21214 0.14464,2.30329 0.43744,3.27307 0.23989,1.01812 0.60325,1.8669 1.09009,2.54565 0.72672,1.35749 1.8168,2.42429 3.27377,3.20004 1.45345,0.77597 3.24909,1.16389 5.37989,1.16389 2.4271,0 4.6566,-0.50913 6.6922,-1.52725 2.0355,-0.96978 3.7817,-2.42464 5.2352,-4.36421 0.194,1.45485 0.5362,2.64266 1.0195,3.56411 0.4869,0.92111 1.1642,1.76971 2.0355,2.54554 v -0.0727 z"
       style="fill:#ffffff;fill-opacity:1;fill-rule:nonzero;stroke:none;stroke-width:0.352778"
       id="path5973" /><path
       d="m 1036.9733,123.883 c 1.1642,0 2.2296,-0.097 3.1997,-0.29093 0.9702,-0.19396 1.8415,-0.4849 2.6176,-0.87267 l -0.5821,-2.61867 c -0.4833,0.24271 -1.0407,0.43674 -1.6721,0.58208 -0.5821,0.14535 -1.3088,0.21802 -2.1802,0.21802 -1.845,0 -3.1538,-0.50906 -3.9299,-1.52718 -0.7761,-1.01847 -1.1642,-2.54564 -1.1642,-4.58223 V 89.043938 h 8.001 l 1.3088,-3.054703 h -9.1616 c 0,-1.648531 0.046,-3.200047 0.1446,-4.654903 0.095,-1.454503 0.194,-2.690989 0.2893,-3.709106 0.099,-1.0668 0.194,-1.745544 0.2928,-2.036586 l -4.2933,0.872773 c -0.095,0.291041 -0.1905,0.945444 -0.2893,1.963913 -0.095,1.066448 -0.194,2.278945 -0.2893,3.636434 -0.099,1.357841 -0.1481,2.690989 -0.1481,4.000147 h -4.7978 v 3.055056 h 4.7978 v 26.838277 c 0,1.69686 0.2434,3.12737 0.7267,4.29119 0.4868,1.16381 1.2135,2.03658 2.1837,2.61831 0.5821,0.38788 1.2594,0.70309 2.0355,0.94552 0.7761,0.29093 1.6722,0.43638 2.6917,0.43638 v -0.0727 z"
       style="fill:#ffffff;fill-opacity:1;fill-rule:nonzero;stroke:none;stroke-width:0.352778"
       id="path5975" /><path
       d="m 394.92062,7.664454 c -0.0917,-0.2801056 -0.33831,-0.6071306 -0.96555,-0.6071306 -0.1905,0 -0.35843,0.1121834 -0.49954,0.3337278 -0.0942,0.1456972 -0.20814,0.3115028 -0.34043,0.4995333 -0.13441,0.1725084 -0.28681,0.3383139 -0.47025,0.4953 -0.15699,0.1386417 -0.35842,0.2240139 -0.58914,0.2642306 -0.34502,0.046919 -0.70132,0.074083 -1.05516,0.085019 -1.52788,0.049389 -2.9658,0.022578 -4.34587,0.053975 -2.34526,0.053622 -4.94382,0.046919 -7.60518,-0.017992 -1.44709,-0.035983 -2.90512,-0.089606 -4.33211,-0.1612195 -0.3115,-0.020108 -0.55351,-0.085372 -0.72143,-0.2060222 -0.17921,-0.1255889 -0.32491,-0.2599972 -0.43215,-0.3944056 -0.11219,-0.1524 -0.21061,-0.2843388 -0.2914,-0.3986388 -0.15663,-0.2264834 -0.34713,-0.2734028 -0.47942,-0.2734028 -0.36054,0 -0.64735,0.1008944 -0.85337,0.2935111 -0.18803,0.1725083 -0.33585,0.3986389 -0.43004,0.6674555 -0.0875,0.2532945 -0.14781,0.5376334 -0.16369,0.8445501 l -0.0155,0.1143 c -0.0226,0.2529416 -0.0381,0.4949472 -0.0582,0.7189611 -0.121,1.205089 -0.2667,2.15265 -0.45261,2.8067 -0.19474,0.694619 -0.29351,1.238955 -0.29351,1.664405 0,0.338314 0.0829,0.560211 0.25999,0.69462 0.15664,0.127705 0.37395,0.192616 0.66746,0.192616 0.1838,0 0.36512,-0.163688 0.62265,-0.600427 0.20849,-0.345017 0.42369,-0.723548 0.62971,-1.122186 0.21273,-0.416631 0.40993,-0.811037 0.60008,-1.191684 0.22401,-0.436739 0.35172,-0.618419 0.41239,-0.678744 0.44556,-0.423334 0.91405,-0.710142 1.3776,-0.851253 0.48824,-0.147814 0.99448,-0.219428 1.51659,-0.219428 h 2.18617 c 0.55103,0 1.07068,0.03775 1.56139,0.118534 0.56233,0.09172 0.62512,0.248708 0.62936,0.275519 0.0247,0.127706 0.0427,0.412044 0.0473,0.620536 0.0134,0.309033 0.0201,0.524228 0.0201,0.642761 v 17.098786 c 0,0.644878 -0.0335,1.1938 -0.0988,1.626306 -0.0692,0.407458 -0.19932,0.752475 -0.38735,1.019175 -0.18803,0.262114 -0.47272,0.468136 -0.83785,0.613833 -0.40075,0.16122 -0.93415,0.27305 -1.62419,0.345017 -0.0448,0.01552 -0.15204,0.02681 -0.40287,0.02681 -0.26211,0 -0.51329,0.04904 -0.75283,0.143228 -0.21272,0.0829 -0.45473,0.280105 -0.45473,0.752828 0,0.521758 0.34714,0.620536 0.49072,0.631472 0.20602,0.02716 0.41416,0.04269 0.60677,0.04269 0.86043,0 1.7138,-0.02681 2.54918,-0.08961 1.71838,-0.125588 3.57081,-0.1143 5.30013,0 0.92533,0.0628 1.86831,0.08961 2.82046,0.08961 0.30903,0 0.55774,-0.01552 0.74365,-0.04269 0.28681,-0.0381 0.43216,-0.31115 0.43216,-0.813153 0,-0.23495 -0.10302,-0.624769 -0.81316,-0.705555 l -1.3977,-0.159103 c -0.48825,-0.05362 -0.96097,-0.194734 -1.41358,-0.407459 -0.40993,-0.195086 -0.65194,-0.5715 -0.75918,-1.164872 -0.0695,-0.365125 -0.11677,-0.734836 -0.12347,-1.102078 -0.0109,-0.374297 -0.0176,-0.746125 -0.0176,-1.117952 0.0469,-2.07645 0.0423,-4.168775 -0.0205,-6.227234 -0.0515,-2.045405 -0.0603,-4.13773 -0.0134,-6.209594 l 0.0674,-4.314472 c 0,-0.526345 0.0314,-0.922867 0.0896,-1.171575 0.0561,-0.302331 0.14111,-0.414514 0.18379,-0.461434 0.0536,-0.05362 0.10055,-0.07408 0.19932,-0.08079 0.31362,0.02716 0.64488,0.02716 1.1938,0.0067 0.65405,-0.03351 1.53212,-0.02893 2.43064,0.03598 0.54187,0.0314 1.02129,0.09172 1.4852,0.170392 0.44132,0.07832 0.83749,0.201436 1.1557,0.367242 0.28681,0.1524 0.48401,0.345016 0.58455,0.571147 0.12771,0.327025 0.1838,0.681214 0.16157,1.041753 -0.0201,0.398638 -0.054,0.76835 -0.0829,1.104194 -0.0448,0.360892 -0.0339,0.669925 0.0155,0.918633 0.0402,0.183445 0.18838,0.50165 0.70803,0.50165 0.31362,0 0.73907,-0.156633 0.96308,-0.931686 0.1591,-0.517525 0.28469,-1.151466 0.36759,-1.872897 0.0759,-0.705556 0.14993,-1.440392 0.21026,-2.181931 0.0561,-0.7168438 0.16369,-1.2968105 0.32032,-1.7226133 0.11218,-0.3069166 0.10548,-0.6406444 -0.0155,-0.9944805"
       style="fill:#ffffff;fill-opacity:1;fill-rule:nonzero;stroke:none;stroke-width:0.352778"
       id="path5977" /><path
       d="m 421.60014,33.018946 c -0.29562,-0.08961 -0.63394,-0.170039 -1.01247,-0.23495 -0.36724,-0.06738 -0.73907,-0.172509 -1.11125,-0.311503 -0.34043,-0.123119 -0.59584,-0.371828 -0.78387,-0.775053 -1.18957,-2.479675 -2.34527,-5.006622 -3.42971,-7.513108 -1.05727,-2.464153 -2.09655,-5.0292 -3.10021,-7.631995 -0.54433,-1.33985 -1.0929,-2.706158 -1.65982,-4.09963 -0.56903,-1.386417 -1.12218,-2.7527252 -1.66229,-4.0901058 -0.0536,-0.1322917 -0.13193,-0.2734028 -0.23953,-0.4212167 -0.13441,-0.1880305 -0.32914,-0.2801055 -0.55986,-0.2801055 -0.26458,0 -0.44591,0.06738 -0.54681,0.212725 -0.0737,0.1033639 -0.1344,0.2264833 -0.18803,0.3788833 -0.87136,2.1413607 -1.73849,4.2739027 -2.61196,6.3951557 -0.87383,2.117019 -1.74272,4.254147 -2.61409,6.395508 l -1.5367,3.763434 c -0.49741,1.211791 -0.99906,2.479675 -1.50318,3.758847 -0.0741,0.163336 -0.17039,0.42545 -0.2981,0.76588 -0.13441,0.340784 -0.27093,0.687917 -0.42545,1.032934 -0.1524,0.353836 -0.30021,0.687564 -0.44132,1.005769 -0.17463,0.396522 -0.25542,0.535164 -0.30233,0.589139 -0.1771,0.286808 -0.39864,0.470253 -0.63642,0.551039 -0.28892,0.08961 -0.55985,0.154517 -0.82655,0.199319 -0.29563,0.05609 -0.53764,0.127706 -0.74789,0.235303 -0.1771,0.09172 -0.39899,0.306917 -0.39899,0.790575 0,0.188384 0.0494,0.363009 0.16121,0.515409 0.12348,0.179211 0.31151,0.27305 0.54681,0.27305 0.54434,0 1.04599,-0.03563 1.49613,-0.09384 1.03046,-0.138995 2.41265,-0.107598 3.71193,0.0314 0.78846,0.08714 1.57021,0.129822 2.32092,0.129822 0.23954,0 0.46144,-0.08749 0.63818,-0.248708 0.19262,-0.172509 0.28469,-0.391936 0.28469,-0.638528 0,-0.452261 -0.26,-0.759178 -0.73695,-0.866775 -0.3743,-0.08079 -0.79975,-0.145697 -1.27917,-0.199319 -0.43921,-0.0381 -0.83785,-0.134409 -1.19839,-0.2667 -0.17921,-0.06703 -0.4258,-0.219428 -0.4258,-0.754945 0,-0.0381 0.0201,-0.217311 0.21978,-0.931686 0.16122,-0.537633 0.36512,-1.218847 0.62018,-2.004836 0.25788,-0.802217 0.56903,-1.693686 0.93416,-2.652536 0.33831,-0.92957 0.72813,-1.881364 1.12924,-2.8448 0.27552,-0.04939 0.61136,-0.09172 1.00788,-0.111831 0.93628,-0.0448 1.92194,-0.0381 2.80917,-0.01799 0.46567,0.01341 0.83785,0.01799 1.1176,0.01799 h 0.67451 c 0.38524,0 0.77047,0.02011 1.1423,0.05362 0.32244,0.02928 0.55986,0.121003 0.72355,0.273403 0,0 0.0402,0.05362 0.14111,0.286808 0.085,0.192617 0.18591,0.407459 0.29809,0.633942 0.35596,0.846667 0.70097,1.673225 1.02588,2.472972 0.32703,0.801864 0.62724,1.527528 0.88018,2.184048 l 0.67451,1.715911 c 0.18345,0.472722 0.31115,0.826558 0.39194,1.093258 0.0201,0.06244 0.0402,0.127353 0.0603,0.192617 0.0201,0.06033 0.0268,0.123119 0.0268,0.174625 0,0.385233 -0.17922,0.486128 -0.33797,0.53093 -0.31608,0.08961 -0.67451,0.147814 -1.06856,0.165806 -0.4258,0.02681 -0.80892,0.06244 -1.12677,0.107244 -0.59373,0.08749 -0.68545,0.461786 -0.68545,0.676628 0,0.273403 0.11183,0.510822 0.32703,0.690033 0.1972,0.181328 0.43885,0.268817 0.70555,0.268817 0.83538,0 1.65982,-0.03351 2.47086,-0.107597 1.34408,-0.118533 2.75519,-0.172508 4.10809,0 0.5715,0.06491 1.15147,0.107597 1.7272,0.107597 h 0.38312 c 0.25541,0 0.52176,-0.04727 0.79763,-0.134408 0.45226,-0.1524 0.51506,-0.472722 0.51506,-0.647347 0,-0.398992 -0.20391,-0.685448 -0.57574,-0.790928 M 410.15568,21.079535 c -0.0406,0.01552 -0.0808,0.02681 -0.1076,0.04022 -1.44709,0 -2.57386,0.0067 -3.37573,0.02011 -0.80856,0.01341 -1.40899,0.01341 -1.81222,0.01341 h -0.63182 c 0.4191,-0.992364 0.76623,-1.827742 1.03716,-2.488494 0.30904,-0.73025 0.58032,-1.391356 0.82233,-1.984728 0.23495,-0.587022 0.46567,-1.151467 0.70097,-1.704975 0.19262,-0.441325 0.40781,-0.947561 0.65863,-1.520825 0.0469,0.131939 0.1143,0.306917 0.19474,0.533047 0.19932,0.564445 0.43921,1.252361 0.72601,2.065514 0.27976,0.815269 0.58667,1.686631 0.91829,2.620786 0.30233,0.846667 0.58702,1.646414 0.86924,2.405945"
       style="fill:#ffffff;fill-opacity:1;fill-rule:nonzero;stroke:none;stroke-width:0.352778"
       id="path5979" /><path
       d="m 450.36776,34.709457 c -0.25506,-0.05362 -0.50624,-0.138642 -0.79728,-0.266347 -0.94544,-0.197203 -1.78999,-0.633942 -2.51107,-1.27247 -0.74366,-0.656166 -1.41147,-1.431219 -2.01824,-2.307166 -0.60043,-0.887237 -1.15394,-1.834798 -1.63971,-2.817989 -0.50201,-1.001537 -0.95885,-1.949098 -1.40018,-2.84727 -0.44344,-0.907344 -0.88724,-1.693333 -1.31939,-2.338564 -0.3429,-0.499533 -0.69462,-0.880533 -1.06644,-1.120069 0.49953,-0.253295 0.99906,-0.533047 1.49859,-0.85337 0.63642,-0.407811 1.21215,-0.878064 1.73179,-1.41358 0.52176,-0.533047 0.95426,-1.142295 1.2767,-1.807634 0.32703,-0.672041 0.49954,-1.411463 0.49954,-2.191102 0,-1.419931 -0.27552,-2.614084 -0.81069,-3.539067 -0.5334,-0.92075 -1.20755,-1.662289 -2.0073,-2.2087417 -0.79728,-0.53975 -1.66194,-0.92075 -2.58516,-1.1246555 -0.90029,-0.1993195 -1.76494,-0.3069167 -2.55129,-0.3069167 -0.91404,0 -1.83021,0.020108 -2.71039,0.051505 -0.88935,0.033867 -1.79669,0.056092 -2.69487,0.056092 h -3.07128 c -0.25541,0 -0.51506,-0.015522 -0.78176,-0.033514 -0.55985,-0.047272 -1.08408,-0.069497 -1.61713,0.049389 -0.21061,0.055739 -0.54222,0.2240139 -0.54222,0.8018639 0,0.3002139 0.1524,0.5217583 0.41875,0.6226528 0.20602,0.0762 0.47484,0.1298222 0.79093,0.1566333 0.29104,0.020461 0.60254,0.047273 0.93627,0.069498 0.30903,0.02258 0.60043,0.08537 0.88265,0.183797 0.25082,0.0896 0.44803,0.242005 0.61595,0.472722 0.16122,0.221544 0.23953,0.542219 0.23953,0.967669 0,1.973439 -0.0176,3.980745 -0.0515,5.965473 -0.031,2.006952 -0.0536,4.023077 -0.0536,5.974291 v 7.277806 c 0,0.452614 -0.0808,0.797631 -0.24871,1.046339 -0.16334,0.261761 -0.37853,0.45473 -0.64276,0.606778 -0.27552,0.145697 -0.56692,0.253294 -0.87383,0.306916 -0.32456,0.05821 -0.64065,0.112184 -0.92957,0.159103 -0.30445,0.0448 -0.55986,0.107597 -0.75706,0.167922 -0.27341,0.08749 -0.43251,0.284692 -0.43251,0.537634 0,0.430036 0.0695,0.660752 0.23742,0.76835 0.13229,0.08749 0.35631,0.118886 0.72143,0.118886 0.73695,0 1.47849,-0.0314 2.19322,-0.105481 1.51871,-0.147814 3.08681,-0.134408 4.63903,0.02046 0.84455,0.08043 1.71132,0.127353 2.56505,0.127353 0.49283,0 0.85795,-0.04233 1.12888,-0.12065 0.22613,-0.06738 0.49954,-0.2667 0.49954,-0.808919 0,-0.279753 -0.14993,-0.483659 -0.40111,-0.559859 -0.18133,-0.0515 -0.37853,-0.07832 -0.59337,-0.07832 -0.14111,0 -0.1838,-0.01376 -0.1838,-0.01376 l -0.0561,-0.0134 c -0.50624,-0.09842 -0.92745,-0.172509 -1.28799,-0.221545 -0.34714,-0.0381 -0.64276,-0.123119 -0.89818,-0.257527 -0.2286,-0.118887 -0.40781,-0.306917 -0.54222,-0.575734 -0.14111,-0.271286 -0.20602,-0.705908 -0.20602,-1.277055 v -7.277806 c 0,-0.690033 0.0829,-0.943328 0.13653,-1.026231 0.018,-0.04233 0.13899,-0.176741 0.67204,-0.176741 0.79763,0 1.47179,0.199319 2.00942,0.593372 0.55316,0.414514 1.05057,0.934156 1.46967,1.559278 0.42545,0.627239 0.81316,1.348669 1.14441,2.134658 0.3429,0.790928 0.71685,1.586089 1.10879,2.327628 0.72143,1.857022 1.7787,3.449814 3.14748,4.744508 1.37548,1.292578 3.1115,2.125839 5.14985,2.495198 0.1658,0.01799 0.3743,0.0448 0.61595,0.06526 0.23777,0.02681 0.47942,0.0381 0.72601,0.0381 0.61384,0 1.04846,-0.05398 1.34409,-0.154869 l 0.0804,-0.05151 c 0.25541,-0.250825 0.37853,-0.476955 0.37853,-0.680861 0,-0.183797 -0.0691,-0.510822 -0.57573,-0.618419 M 440.09487,18.045646 c -0.32702,0.678744 -0.77505,1.225197 -1.3395,1.6129 -0.57361,0.394405 -1.26788,0.667455 -2.05175,0.813152 -0.81774,0.145698 -1.69827,0.230717 -2.61656,0.230717 -0.39863,0 -0.69461,-0.0381 -0.86677,-0.09631 -0.17709,-0.0695 -0.23072,-0.16122 -0.25329,-0.226131 -0.0536,-0.141111 -0.0762,-0.322791 -0.0582,-0.5334 0.0113,-0.255411 0.0201,-0.553155 0.0201,-0.913694 0,-0.940859 0.007,-2.000603 0.0314,-3.174295 0.0222,-1.178277 0.036,-2.240139 0.036,-3.185583 v -1.198386 c 0,-0.508353 0.11183,-0.896056 0.33796,-1.148997 0.14569,-0.165806 0.51752,-0.3651253 1.4605,-0.3651253 0.84031,0 1.62419,0.1185333 2.33433,0.3584223 0.69673,0.237419 1.3081,0.586669 1.81222,1.048455 0.50623,0.458964 0.91157,1.039284 1.20085,1.711325 0.29104,0.678745 0.43427,1.480609 0.43427,2.387953 0,1.092906 -0.15663,1.991431 -0.48154,2.678995"
       style="fill:#ffffff;fill-opacity:1;fill-rule:nonzero;stroke:none;stroke-width:0.352778"
       id="path5981" /><path
       d="m 474.63146,7.0573234 c -0.19262,0 -0.36936,0.1143 -0.50165,0.3337278 -0.0942,0.1456972 -0.20849,0.3136194 -0.33831,0.4995333 -0.13441,0.1725084 -0.29563,0.3407834 -0.46602,0.4953 -0.15664,0.136525 -0.36266,0.2261306 -0.59338,0.2642306 -0.34748,0.046919 -0.70802,0.074083 -1.05057,0.087489 -1.52999,0.046919 -2.97039,0.020108 -4.35045,0.051506 -2.34527,0.053622 -4.95265,0.049036 -7.60483,-0.020108 -1.44498,-0.031397 -2.90548,-0.085372 -4.33247,-0.1569861 -0.31573,-0.022225 -0.55315,-0.089606 -0.72143,-0.2060222 -0.18344,-0.1298223 -0.32455,-0.2621139 -0.43215,-0.3965223 -0.1143,-0.1524 -0.21273,-0.2843388 -0.29351,-0.3986388 -0.1524,-0.2264834 -0.34502,-0.2734028 -0.47943,-0.2734028 -0.35842,0 -0.64734,0.1008944 -0.85125,0.2956278 -0.18803,0.1725083 -0.33584,0.3986388 -0.43004,0.6632222 -0.0875,0.2554111 -0.14569,0.5418667 -0.1725,0.8487833 l -0.0155,0.2106084 c -0.0159,0.2151944 -0.0293,0.4191 -0.0494,0.6226527 -0.12312,1.2054417 -0.27552,2.1505337 -0.45474,2.8024667 -0.19261,0.690033 -0.29139,1.247775 -0.29139,1.668992 0,0.331258 0.0875,0.562328 0.25788,0.69215 0.16122,0.125236 0.37395,0.194733 0.66746,0.194733 0.18591,0 0.36512,-0.167922 0.62935,-0.597958 0.20391,-0.349603 0.41452,-0.728134 0.62265,-1.128889 0.21308,-0.414514 0.41452,-0.80645 0.60043,-1.185333 0.21978,-0.440973 0.34961,-0.622653 0.41452,-0.680862 0.44591,-0.42545 0.91157,-0.714375 1.37759,-0.851252 0.48613,-0.149931 0.99448,-0.221545 1.5166,-0.221545 h 2.18193 c 0.55527,0 1.07526,0.03775 1.56104,0.118534 0.56691,0.09419 0.62971,0.248708 0.63429,0.275519 0.0268,0.125589 0.0377,0.409928 0.0469,0.618419 0.0134,0.31362 0.0201,0.526345 0.0201,0.644878 v 17.098786 c 0,0.640645 -0.0335,1.1938 -0.1076,1.628423 -0.0603,0.405341 -0.19473,0.754944 -0.38523,1.019175 -0.18803,0.257527 -0.46602,0.466019 -0.84243,0.611716 -0.39194,0.16122 -0.9271,0.27552 -1.61043,0.347134 -0.0515,0.0134 -0.16122,0.02893 -0.40535,0.02893 -0.26458,0 -0.5154,0.0448 -0.75741,0.138995 -0.20355,0.08749 -0.45226,0.280105 -0.45226,0.750358 0,0.522111 0.34043,0.620536 0.49495,0.633942 0.20602,0.02716 0.41204,0.04269 0.60713,0.04269 0.86254,0 1.71132,-0.02681 2.54247,-0.08749 1.72261,-0.127705 3.57505,-0.11183 5.30225,0 0.92286,0.06068 1.87501,0.08749 2.8268,0.08749 0.3048,0 0.5514,-0.01552 0.73731,-0.04269 0.28434,-0.0381 0.42757,-0.31115 0.42757,-0.810683 0,-0.233187 -0.10055,-0.629709 -0.80645,-0.710142 l -1.39771,-0.156986 c -0.48824,-0.05362 -0.96767,-0.194734 -1.41358,-0.407459 -0.40746,-0.1905 -0.65405,-0.5715 -0.76376,-1.167341 -0.0695,-0.367242 -0.10972,-0.732367 -0.11642,-1.097492 -0.0134,-0.373944 -0.0201,-0.748242 -0.0201,-1.120069 0.0469,-2.074334 0.0381,-4.168775 -0.0201,-6.225117 -0.054,-2.074333 -0.0607,-4.166658 -0.0134,-6.214181 l 0.0649,-4.314119 c 0,-0.524228 0.0356,-0.916164 0.0896,-1.171575 0.0582,-0.298097 0.14535,-0.414514 0.18803,-0.459317 0.0515,-0.05362 0.0917,-0.06033 0.19932,-0.08079 0.3048,0.02716 0.64312,0.02716 1.18957,0.0092 0.65405,-0.03598 1.52788,-0.02928 2.43734,0.02893 0.53058,0.03387 1.02341,0.09631 1.47602,0.177095 0.44803,0.08079 0.83997,0.199319 1.15147,0.365125 0.29563,0.1524 0.49742,0.345016 0.59796,0.571147 0.12347,0.327025 0.17709,0.68333 0.15699,1.039636 -0.0226,0.400755 -0.054,0.76835 -0.0829,1.106311 -0.0448,0.360892 -0.0381,0.667808 0.0155,0.914047 0.0448,0.188031 0.18839,0.506236 0.70803,0.506236 0.31574,0 0.74154,-0.161219 0.96767,-0.931686 0.15452,-0.519994 0.27093,-1.153936 0.35842,-1.87078 0.0808,-0.709789 0.14993,-1.442509 0.21061,-2.179461 0.0582,-0.7235478 0.16792,-1.3013978 0.32244,-1.7272006 0.1143,-0.3090333 0.1076,-0.6406444 -0.0134,-0.9944805 -0.0942,-0.2801056 -0.33831,-0.6071306 -0.96555,-0.6071306"
       style="fill:#ffffff;fill-opacity:1;fill-rule:nonzero;stroke:none;stroke-width:0.352778"
       id="path5983" /><path
       d="m 506.48835,8.4130484 -0.0741,-0.013405 c -0.62266,0 -1.27247,0.020108 -1.91523,0.051505 -1.21426,0.069497 -2.52448,0.080786 -3.73663,-0.011289 -0.63605,-0.053622 -1.26329,-0.07373 -1.87254,-0.07373 -0.1972,0 -0.39864,0.026811 -0.58702,0.082903 -0.15452,0.03563 -0.40534,0.1792111 -0.40534,0.6314722 0,0.5041194 0.24412,0.7528278 0.44591,0.8717139 0.24165,0.1411115 0.53975,0.2462395 0.88018,0.3090335 0.32244,0.05821 0.64734,0.1143 0.98354,0.159103 0.28434,0.0381 0.51717,0.145344 0.69639,0.306917 0.16827,0.147814 0.29351,0.458964 0.35171,0.904875 0.0741,0.49283 0.10972,1.061861 0.10972,1.68663 0,0.633942 -0.0155,1.285875 -0.0356,1.966736 -0.0247,0.6858 -0.0402,1.299281 -0.0402,1.846086 v 7.557912 c 0,0.687563 -0.0653,1.359605 -0.20637,2.016125 -0.20356,1.169458 -0.49707,2.168525 -0.86678,2.965802 -0.35842,0.784225 -0.83785,1.429103 -1.41358,1.924403 -0.57326,0.494947 -1.27917,0.85337 -2.09656,1.068211 -0.83784,0.217311 -1.85949,0.324909 -3.04447,0.324909 -0.98319,0 -1.89054,-0.09842 -2.69699,-0.306917 -0.78634,-0.199319 -1.47178,-0.564444 -2.04505,-1.0795 -0.57361,-0.519994 -1.04634,-1.238956 -1.39559,-2.1463 -0.3563,-0.918281 -0.58702,-2.105378 -0.67662,-3.53695 -0.0423,-0.714375 -0.0762,-1.447095 -0.0871,-2.181931 -0.007,-0.732366 -0.0159,-1.45803 -0.0159,-2.18828 v -6.503106 c 0,-0.349603 0.009,-0.728133 0.0159,-1.120069 0.0109,-0.407811 0.0381,-0.795161 0.0737,-1.1557 0.0314,-0.371828 0.0716,-0.710142 0.121,-1.010356 0.0448,-0.286808 0.0984,-0.506236 0.15911,-0.651933 0.13652,-0.322439 0.36512,-0.521758 0.69215,-0.620536 0.37853,-0.111831 0.77293,-0.208139 1.16028,-0.282222 0.40781,-0.06491 0.77964,-0.1524 1.09785,-0.2529425 0.41204,-0.1188861 0.64276,-0.4191 0.64276,-0.8403167 0,-0.365125 -0.23072,-0.6067778 -0.60925,-0.6720417 -0.30903,-0.053622 -0.54681,-0.07373 -0.74366,-0.07373 -0.82444,0 -1.64218,0.033514 -2.44192,0.1075972 -1.50072,0.1319389 -3.08011,0.1478139 -4.62104,0 -0.75071,-0.074083 -1.512,-0.1075972 -2.26483,-0.1075972 -0.58702,0 -0.92957,0.3203222 -0.92957,0.8868833 0,0.2353028 0.10089,0.4346222 0.28892,0.5647972 0.15452,0.1072445 0.33585,0.1880304 0.54893,0.2307164 0.18591,0.0381 0.36724,0.06491 0.55985,0.06914 0.17921,0.01376 0.32703,0.02258 0.45262,0.02258 h 0.38735 c 0.41451,0 0.70802,0.107598 0.92075,0.318206 0.22401,0.241653 0.37853,0.515056 0.47942,0.853369 0.0984,0.340431 0.15911,0.721431 0.16334,1.128889 0.0138,0.4191 0.0226,0.797631 0.0226,1.124656 0,2.006953 -0.0268,3.998383 -0.0762,5.927019 -0.0469,1.953331 -0.0628,3.949348 -0.0628,5.945364 v 1.305984 c 0,0.214841 0.005,0.432152 0.009,0.647347 0.0155,0.219428 0.0356,0.432153 0.0536,0.647347 0.14781,1.391003 0.50165,2.562578 1.06397,3.476625 0.55104,0.92075 1.27706,1.668992 2.15265,2.226733 0.85796,0.553156 1.85491,0.947562 2.96616,1.178278 1.09079,0.230717 2.26236,0.342547 3.47204,0.342547 1.00577,0 2.06516,-0.08043 3.14043,-0.232833 1.07315,-0.1524 2.11701,-0.427919 3.12278,-0.804333 1.16276,-0.46355 2.06763,-1.128889 2.7104,-1.982259 0.623,-0.840316 1.09537,-1.798814 1.41146,-2.83845 0.30692,-1.048102 0.49036,-2.148064 0.55316,-3.288241 0.0628,-1.131359 0.085,-2.233436 0.085,-3.257198 0,-0.640644 0,-1.283405 -0.0134,-1.913113 -0.009,-0.633942 -0.018,-1.265414 -0.018,-1.908528 0,-0.705556 -0.009,-1.529997 -0.0155,-2.475089 -0.0134,-0.936272 -0.0134,-1.845733 0,-2.710392 0.007,-0.867128 0.0469,-1.626305 0.121,-2.260247 0.0942,-0.837847 0.23742,-0.945444 0.24871,-0.952147 0.0536,-0.03351 0.1972,-0.09172 0.60713,-0.145697 0.35136,-0.04692 0.71896,-0.116417 1.09749,-0.19932 0.39652,-0.08961 0.74824,-0.208139 1.03258,-0.3538359 0.45261,-0.2218972 0.54892,-0.5535083 0.54892,-0.7951611 0,-0.2331861 -0.1143,-0.5443361 -0.64276,-0.7327195"
       style="fill:#ffffff;fill-opacity:1;fill-rule:nonzero;stroke:none;stroke-width:0.352778"
       id="path5985" /><path
       d="m 538.75693,5.9270234 c 0.0536,0.035983 0.12771,0.046919 0.2152,0.046919 0.62053,0 1.14441,-0.2014361 1.57691,-0.5845528 0.43216,-0.3940528 0.65405,-0.9274528 0.65405,-1.5748 0,-0.6004278 -0.20814,-1.0999611 -0.60042,-1.4894278 -0.39194,-0.3697111 -0.89359,-0.5623278 -1.4919,-0.5623278 -0.62265,0 -1.13559,0.1993195 -1.53212,0.5912556 -0.39405,0.3944055 -0.59795,0.8939389 -0.59795,1.4918972 0,0.5221111 0.16792,0.9877778 0.49706,1.3934722 0.31821,0.3965223 0.75283,0.6272389 1.27917,0.6875639"
       style="fill:#ffffff;fill-opacity:1;fill-rule:nonzero;stroke:none;stroke-width:0.352778"
       id="path5987" /><path
       d="m 531.79839,5.934079 c 0.56445,0 1.07527,-0.1792111 1.50072,-0.53975 0.43921,-0.3742973 0.65652,-0.8738306 0.65652,-1.4717889 0,-0.5489222 -0.19509,-1.0484556 -0.58244,-1.4897806 -0.39652,-0.4459111 -0.88935,-0.6720416 -1.4672,-0.6720416 -0.59373,0 -1.12466,0.2017888 -1.5614,0.6004277 -0.44591,0.4053417 -0.67204,0.9182806 -0.67204,1.5187084 0,0.6071305 0.2152,1.1066639 0.63606,1.4873111 0.41451,0.3785305 0.91405,0.5669139 1.48978,0.5669139"
       style="fill:#ffffff;fill-opacity:1;fill-rule:nonzero;stroke:none;stroke-width:0.352778"
       id="path5989" /><path
       d="m 547.55556,8.4130484 -0.0741,-0.013405 c -0.62477,0 -1.2767,0.020108 -1.91735,0.051505 -1.21638,0.069497 -2.52236,0.080786 -3.73415,-0.011289 -0.64065,-0.053622 -1.26788,-0.07373 -1.87501,-0.07373 -0.19932,0 -0.39653,0.026811 -0.58456,0.082903 -0.15451,0.03563 -0.40781,0.1792111 -0.40781,0.6314722 0,0.5108222 0.24624,0.7595305 0.44803,0.8717139 0.23742,0.1411115 0.53763,0.2462395 0.87806,0.3090335 0.32033,0.05821 0.64523,0.1143 0.98108,0.159103 0.28892,0.0381 0.51964,0.145344 0.69673,0.306917 0.17251,0.147814 0.29563,0.458964 0.35631,0.904875 0.0716,0.49283 0.10513,1.061861 0.10513,1.68663 0,0.633942 -0.0113,1.285875 -0.0335,1.966736 -0.0247,0.6858 -0.0381,1.299281 -0.0381,1.846086 v 7.557912 c 0,0.687563 -0.0695,1.359605 -0.20849,2.016125 -0.20355,1.169458 -0.49953,2.168525 -0.86466,2.965802 -0.35842,0.784225 -0.83996,1.429103 -1.41322,1.924403 -0.57362,0.494947 -1.27918,0.85337 -2.09903,1.068211 -0.84455,0.217311 -1.8662,0.324909 -3.042,0.324909 -0.98778,0 -1.88842,-0.09842 -2.69699,-0.306917 -0.79093,-0.199319 -1.47426,-0.564444 -2.04964,-1.0795 -0.57362,-0.519994 -1.04175,-1.238956 -1.39135,-2.1463 -0.36054,-0.918281 -0.58667,-2.105378 -0.68087,-3.53695 -0.0402,-0.714375 -0.0716,-1.447095 -0.085,-2.181931 -0.009,-0.732366 -0.0134,-1.45803 -0.0134,-2.18828 v -6.503106 c 0,-0.349603 0.004,-0.728133 0.0134,-1.120069 0.0134,-0.401109 0.0423,-0.779639 0.0737,-1.1557 0.0293,-0.371828 0.0716,-0.710142 0.11888,-1.010356 0.0448,-0.286808 0.0984,-0.506236 0.16792,-0.651933 0.1323,-0.322439 0.35843,-0.521758 0.68333,-0.620536 0.38277,-0.111831 0.77506,-0.208139 1.16241,-0.282222 0.40569,-0.06491 0.77752,-0.1524 1.09784,-0.2529425 0.41416,-0.1188861 0.64276,-0.4191 0.64276,-0.8403167 0,-0.365125 -0.2286,-0.6067778 -0.61383,-0.6720417 -0.29775,-0.053622 -0.53975,-0.07373 -0.74154,-0.07373 -0.81739,0 -1.63724,0.033514 -2.43946,0.1075972 -1.50071,0.1319389 -3.07763,0.1478139 -4.6168,0 -0.75248,-0.074083 -1.51624,-0.1075972 -2.26695,-0.1075972 -0.58667,0 -0.92957,0.3203222 -0.92957,0.8868833 0,0.2353028 0.10089,0.4346222 0.28893,0.5647972 0.15451,0.1072445 0.33161,0.1880304 0.5468,0.2307164 0.18344,0.0381 0.36513,0.06491 0.55986,0.06914 0.18168,0.01376 0.32949,0.02258 0.45261,0.02258 h 0.38735 c 0.4124,0 0.71473,0.107598 0.91864,0.318206 0.22824,0.241653 0.38311,0.515056 0.48365,0.853369 0.0963,0.340431 0.15699,0.721431 0.16369,1.128889 0.0134,0.4191 0.0201,0.797631 0.0201,1.124656 0,2.013655 -0.0268,4.011789 -0.0741,5.927019 -0.0448,2.007306 -0.067,4.007556 -0.067,5.945364 v 1.305984 c 0,0.214841 0,0.432152 0.0155,0.647347 0.0113,0.210608 0.0339,0.432153 0.0515,0.647347 0.14816,1.391003 0.49741,2.562578 1.06186,3.476625 0.55351,0.92075 1.27705,1.668992 2.153,2.226733 0.85549,0.553156 1.85702,0.947562 2.96334,1.178278 1.09537,0.230717 2.26695,0.342547 3.4745,0.342547 1.00577,0 2.06763,-0.08043 3.1429,-0.232833 1.06856,-0.1524 2.11667,-0.427919 3.12244,-0.804333 1.15817,-0.46355 2.07433,-1.128889 2.70615,-1.982259 0.62724,-0.840316 1.09997,-1.798814 1.4157,-2.83845 0.3048,-1.0414 0.49072,-2.148064 0.54892,-3.288241 0.0628,-1.131359 0.0896,-2.233436 0.0896,-3.257198 0,-0.640644 0,-1.283405 -0.0134,-1.913113 -0.0134,-0.633942 -0.0226,-1.265414 -0.0226,-1.908528 0,-0.705556 -0.005,-1.529997 -0.0113,-2.475089 -0.0155,-0.936272 -0.0155,-1.845733 0,-2.710392 0.007,-0.867128 0.0473,-1.626305 0.121,-2.260247 0.0942,-0.837847 0.23742,-0.945444 0.24412,-0.952147 0.054,-0.03351 0.20179,-0.09172 0.60713,-0.145697 0.35172,-0.04692 0.72143,-0.116417 1.09996,-0.19932 0.39441,-0.08961 0.74613,-0.208139 1.03505,-0.3538359 0.45226,-0.2218972 0.54646,-0.5535083 0.54646,-0.7951611 0,-0.2331861 -0.1143,-0.5443361 -0.64065,-0.7327195"
       style="fill:#ffffff;fill-opacity:1;fill-rule:nonzero;stroke:none;stroke-width:0.352778"
       id="path5991" /><path
       d="m 572.64053,26.228326 c -0.32491,-0.06491 -0.62054,-0.0067 -0.90734,0.219781 -0.0674,0.06032 -0.1704,0.208139 -0.53305,0.839964 -0.26212,0.461433 -0.56021,0.974372 -0.91193,1.545519 -0.34925,0.573617 -0.72778,1.122186 -1.13559,1.639711 -0.39194,0.508706 -0.77047,0.864659 -1.13348,1.075267 -0.19932,0.127706 -0.58455,0.300214 -1.15817,0.499533 -0.56903,0.208492 -1.22096,0.365125 -1.93322,0.463903 -0.70767,0.109714 -1.43792,0.116417 -2.18405,0.02011 -0.72143,-0.08502 -1.37548,-0.345016 -1.91981,-0.757061 -0.12983,-0.1143 -0.23742,-0.33408 -0.32244,-0.651933 -0.0875,-0.354189 -0.16122,-0.764117 -0.20179,-1.209675 -0.0423,-0.436739 -0.0783,-0.92075 -0.0938,-1.42487 -0.007,-0.506236 -0.0134,-0.974372 -0.0134,-1.393119 v -1.339497 c 0,-2.148417 0.0134,-4.244975 0.0381,-6.305903 0.0268,-2.112433 0.0381,-4.233686 0.0381,-6.312606 0,-0.179211 0,-0.398638 0.0109,-0.660752 0.0134,-0.253295 0.0339,-0.506236 0.0674,-0.754945 0.0335,-0.250825 0.0938,-0.484011 0.16792,-0.696736 0.0716,-0.206022 0.17039,-0.363008 0.30904,-0.474839 0.1972,-0.159103 0.46602,-0.253294 0.79974,-0.286808 l 1.13136,-0.105128 c 0.38735,-0.04057 0.73484,-0.09878 1.01036,-0.1883832 0.36054,-0.1051278 0.56197,-0.3718278 0.56197,-0.752475 0,-0.250825 -0.13441,-0.5020028 -0.39193,-0.7281334 l -0.0628,-0.053622 h -0.0783 c -0.99449,0 -1.89266,0.022225 -2.679,0.0762 -1.54129,0.089606 -3.302,0.1118306 -4.8835,-0.060678 -0.79728,-0.080433 -1.61713,-0.1185333 -2.43487,-0.1185333 -0.28223,0 -0.56021,0.024342 -0.83326,0.07373 -0.2219,0.0381 -0.58703,0.1859139 -0.58703,0.7775223 0,0.4342694 0.25753,0.7210778 0.72567,0.7951611 0.37182,0.058205 0.78422,0.1185325 1.24354,0.1792105 0.44344,0.05362 0.86219,0.165806 1.25412,0.338314 0.34079,0.145344 0.54893,0.43427 0.62971,0.880182 0.0938,0.461432 0.13653,0.978958 0.13653,1.554691 v 10.310988 c 0,0.660753 0.0247,1.440392 0.0741,2.399242 0.0469,0.947561 0.067,1.879247 0.067,2.75978 0,0.886884 -0.0469,1.704623 -0.14111,2.446162 -0.0829,0.705555 -0.25753,1.184981 -0.49072,1.426986 -0.30656,0.279752 -0.62688,0.440972 -0.98531,0.494948 -0.38981,0.0515 -0.76411,0.09172 -1.10913,0.118532 -0.38523,0.0247 -0.69215,0.07867 -0.94297,0.165807 -0.23072,0.0896 -0.49495,0.295628 -0.49495,0.826558 0,0.188383 0.0603,0.367595 0.18344,0.519995 0.13441,0.174625 0.31151,0.261761 0.52211,0.261761 0.76835,0 1.46262,-0.02222 2.05423,-0.07585 0.57115,-0.04727 1.12889,-0.09208 1.65982,-0.138994 0.53093,-0.04692 1.07985,-0.09172 1.6577,-0.141111 0.55986,-0.04692 1.24107,-0.06491 2.01366,-0.06491 1.54799,0 3.15207,0.105128 4.77837,0.313619 1.65524,0.210609 3.28366,0.320322 4.83412,0.320322 0.35806,0 0.53975,-0.45473 0.64946,-0.847019 0.13229,-0.458965 0.28892,-1.066094 0.47942,-1.807634 0.18133,-0.73907 0.44556,-1.576917 0.77047,-2.490964 0.32491,-0.914048 0.77752,-1.83903 1.36102,-2.768599 l 0.0564,-0.09208 -0.0459,-0.107245 c -0.12347,-0.275519 -0.35983,-0.459316 -0.67698,-0.5334"
       style="fill:#ffffff;fill-opacity:1;fill-rule:nonzero;stroke:none;stroke-width:0.352778"
       id="path5993" /><path
       d="m 583.86909,16.785171 c 0.0353,-1.465086 0.0494,-2.9591 0.0494,-4.4196 0,-0.405342 0.0141,-0.766234 0.0317,-1.079853 0.0282,-0.266347 0.10231,-0.486128 0.24342,-0.658636 0.13405,-0.172509 0.36336,-0.306917 0.65617,-0.38735 0.34572,-0.08749 0.8255,-0.134409 1.43933,-0.134409 0.35278,0 0.66322,-0.0381 0.91722,-0.1142996 0.19756,-0.058208 0.5327,-0.2374194 0.5327,-0.8110361 0,-0.096308 -0.0282,-0.212725 -0.0847,-0.3605389 -0.06,-0.1524 -0.12347,-0.2529416 -0.19403,-0.3182055 l -0.0635,-0.069145 h -3.16442 c -0.32808,0 -0.6738,0.020108 -1.03716,0.060325 -0.36336,0.031397 -0.70203,0.046919 -1.00895,0.046919 -0.6738,0 -1.36172,-0.033514 -2.04964,-0.098425 -0.70202,-0.074083 -1.40405,-0.1097139 -2.08491,-0.1097139 h -0.39158 c -0.1905,0 -0.41275,0.015522 -0.64912,0.056092 -0.32808,0.053622 -0.51858,0.2797528 -0.51858,0.6201834 0,0.5266972 0.25047,0.746125 0.46567,0.8336139 0.23989,0.1072444 0.55033,0.1654527 0.90311,0.1926167 0.32103,0.02681 0.65969,0.06491 1.00541,0.125236 0.30339,0.04727 0.56798,0.188383 0.78317,0.387702 0.0776,0.111831 0.18697,0.353837 0.27164,0.89147 0.0741,0.459317 0.10231,0.887236 0.10231,1.281289 v 0.667455 c 0,0.584906 -0.004,1.180748 -0.0141,1.763184 -0.0141,0.591255 -0.0141,1.1938 -0.0141,1.80093 l -0.0423,12.371917 v 0.739069 c 0,0.434623 -0.0247,0.893939 -0.0917,1.368778 -0.0423,0.425803 -0.16934,0.710142 -0.37042,0.871361 -0.19755,0.188384 -0.46567,0.318206 -0.78316,0.394406 -0.34925,0.08043 -0.68439,0.154517 -0.99484,0.212725 -0.32455,0.06068 -0.61736,0.134408 -0.8643,0.221897 -0.32103,0.111831 -0.49742,0.338314 -0.49742,0.644878 0,0.365478 0.16933,0.634294 0.47272,0.746125 0.25047,0.09419 0.508,0.141111 0.76906,0.141111 h 0.49389 c 0.71261,0 1.36877,-0.04269 1.93675,-0.127706 1.0548,-0.1524 2.46944,-0.161219 3.83822,-0.02222 1.03364,0.113948 2.03553,0.16122 3.06211,0.06244 0.44803,-0.04692 0.70555,-0.337961 0.70555,-0.799747 0,-0.178858 -0.0705,-0.506236 -0.54327,-0.633942 -0.26106,-0.07373 -0.56092,-0.136525 -0.92781,-0.199319 -0.34219,-0.06032 -0.68792,-0.127706 -1.0548,-0.192617 -0.32456,-0.06703 -0.57856,-0.183444 -0.762,-0.34043 -0.24342,-0.219428 -0.39159,-0.53975 -0.44098,-0.960967 -0.0564,-0.459317 -0.0882,-0.878064 -0.0882,-1.245306 v -9.002889 c 0,-1.507772 0.0176,-2.98838 0.0564,-4.415366"
       style="fill:#ffffff;fill-opacity:1;fill-rule:nonzero;stroke:none;stroke-width:0.352778"
       id="path5995" /><path
       d="m 619.05162,33.090912 c -0.28222,-0.08079 -0.58914,-0.1524 -0.89606,-0.199319 -0.56797,-0.134408 -1.09008,-0.365125 -1.56986,-0.69215 -0.49741,-0.333728 -0.97719,-0.721431 -1.42522,-1.162756 -0.45155,-0.436739 -0.889,-0.911577 -1.31233,-1.411111 -0.42686,-0.506236 -0.83961,-0.987778 -1.24531,-1.447094 -0.1658,-0.159103 -0.47978,-0.492831 -0.9525,-0.999067 l -1.61925,-1.747308 c -0.61383,-0.660753 -1.25941,-1.359606 -1.94733,-2.107847 -0.67733,-0.736953 -1.30528,-1.431573 -1.88383,-2.07645 -0.58209,-0.6477 -1.07598,-1.207559 -1.48167,-1.677812 -0.37042,-0.425802 -0.5327,-0.638527 -0.60678,-0.737305 0.0741,-0.09172 0.23989,-0.279753 0.62442,-0.658283 0.43744,-0.42792 0.97719,-0.934156 1.61219,-1.521178 0.62795,-0.587022 1.31939,-1.211792 2.07434,-1.886303 0.73025,-0.647347 1.45697,-1.272117 2.15547,-1.863725 0.68086,-0.579967 1.28058,-1.074914 1.81328,-1.500717 0.63852,-0.515055 0.92075,-0.696736 1.04775,-0.754944 0.27869,-0.1524 0.61736,-0.259645 1.00541,-0.31362 0.4057,-0.05821 0.79728,-0.1143 1.17828,-0.161219 0.38806,-0.0448 0.72672,-0.118886 1.00189,-0.2261306 0.33867,-0.1188861 0.52564,-0.3785305 0.52564,-0.7327194 0,-0.2843389 -0.12347,-0.5062361 -0.35278,-0.6452306 -0.20108,-0.1072444 -0.41275,-0.1654528 -0.63853,-0.1654528 -0.60325,0 -1.19591,0.017639 -1.76036,0.049036 -1.18886,0.074083 -2.49414,0.069497 -3.69005,0 -0.95956,-0.049036 -1.90853,-0.062442 -2.96687,-0.0381 -0.43744,0.020461 -0.75141,0.2331861 -0.89605,0.6184194 l -0.0212,0.3630083 c 0,0.19685 0.0917,0.5510389 0.68086,0.6381757 0.33867,0.04727 0.70909,0.08079 1.1042,0.08961 0.38805,0.01129 0.74083,0.04269 1.05833,0.0829 0.30339,0.04727 0.30339,0.161219 0.30339,0.215194 0,0.01341 -0.0176,0.154517 -0.42333,0.631473 -0.3175,0.383116 -0.7232,0.822325 -1.21003,1.323975 -0.49389,0.497416 -1.0407,1.037166 -1.64042,1.597377 -0.59972,0.559859 -1.17122,1.102078 -1.71097,1.603728 -0.53975,0.506236 -1.03011,0.963436 -1.4605,1.359606 -0.44097,0.401108 -0.74083,0.690033 -0.91369,0.855839 l -0.45862,0.459316 c -0.17991,0.176742 -0.38805,0.367242 -0.61383,0.546453 -0.21872,0.179211 -0.46214,0.3429 -0.71261,0.472722 -0.15522,0.08749 -0.31397,0.147814 -0.47272,0.177095 0.0459,-0.215195 0.0494,-0.295981 0.0494,-0.336198 v -1.872544 c 0,-0.566914 -0.004,-1.120069 -0.0176,-1.646414 -0.007,-0.5334 -0.0141,-1.079853 -0.0141,-1.640064 v -1.872544 c 0,-0.974372 0.20108,-1.379714 0.37394,-1.541286 0.25753,-0.252942 0.55386,-0.391936 0.89959,-0.438856 0.37394,-0.04057 0.73377,-0.04727 1.08302,-0.0134 0.45861,0.04022 0.76906,-0.07408 0.92781,-0.324909 0.06,-0.096308 0.10583,-0.2218972 0.13405,-0.381 0.0247,-0.1072444 0.0565,-0.1993194 0.0847,-0.2797528 l 0.0282,-0.092075 c 0,-0.1411111 -0.0564,-0.3965222 -0.46214,-0.5284611 -0.23989,-0.074083 -0.46214,-0.1121833 -0.6738,-0.1121833 h -0.31397 c -0.54681,0 -1.09009,0.027164 -1.61925,0.082903 -0.50095,0.062794 -1.02659,0.089605 -1.55928,0.089605 h -1.09361 c -0.60325,0 -1.19945,-0.033514 -1.78153,-0.1072444 -0.59972,-0.065264 -1.21356,-0.1075973 -1.82739,-0.1075973 h -0.39158 c -0.21872,0 -0.45861,0.033514 -0.70556,0.1030112 -0.43391,0.1118305 -0.50094,0.4099277 -0.50094,0.5799666 0,0.4437945 0.19755,0.6720417 0.36336,0.7750528 0.20461,0.1344083 0.46214,0.2286003 0.76553,0.2688173 0.27516,0.03387 0.5715,0.04727 0.88194,0.03387 0.26811,-0.01341 0.52211,0.0042 0.75495,0.05362 0.35983,0.05151 0.57502,0.219428 0.65616,0.526344 0.0988,0.371828 0.1517,0.741539 0.1517,1.095375 v 4.309886 c 0,2.408061 -0.0176,4.760384 -0.0529,7.013928 -0.0353,2.354086 -0.0564,4.710642 -0.0564,7.011458 0,0.206023 -0.0106,0.438856 -0.0317,0.705556 -0.0282,0.259645 -0.067,0.512939 -0.13053,0.754945 -0.0706,0.246238 -0.16228,0.466019 -0.28222,0.672041 -0.10584,0.188031 -0.25048,0.315736 -0.42334,0.396522 -0.16228,0.0762 -0.39158,0.12312 -0.69497,0.136525 -0.33514,0.01341 -0.66675,0.03598 -0.98425,0.07408 -0.33161,0.03351 -0.63147,0.113947 -0.889,0.22613 -0.3175,0.138995 -0.47978,0.414514 -0.47978,0.779639 0,0.360539 0.20814,0.606778 0.58561,0.674159 0.2787,0.04692 0.53975,0.07373 0.75848,0.07373 1.00541,0 1.97908,-0.04022 2.87866,-0.107244 0.90311,-0.07408 1.8662,-0.107598 2.83986,-0.107598 0.49742,0 0.9772,0.03351 1.44992,0.08749 0.49742,0.05821 0.99483,0.09172 1.48519,0.09172 h 0.45861 c 0.26812,0 0.52564,-0.06068 0.76906,-0.185914 0.28222,-0.138995 0.43744,-0.391936 0.43744,-0.741539 0,-0.398639 -0.2293,-0.553156 -0.37041,-0.602545 -0.16934,-0.0695 -0.37395,-0.107597 -0.61384,-0.123119 -0.21519,-0.01129 -0.42686,-0.01129 -0.64205,0 h -0.067 c -0.14817,0 -0.20461,-0.02681 -0.23283,-0.0448 l -0.067,-0.04727 -0.0811,0.0067 c -0.43391,0.04057 -0.78316,-0.02681 -1.01247,-0.206023 -0.24342,-0.18803 -0.43392,-0.438855 -0.54681,-0.745772 -0.11994,-0.333728 -0.19755,-0.705555 -0.23283,-1.115483 -0.0388,-0.412397 -0.0529,-0.799747 -0.0529,-1.144764 0,-0.871361 0.007,-1.733903 0.0141,-2.58057 0.0106,-0.846666 0.0176,-1.707091 0.0176,-2.578452 v -1.586089 c 0,-0.327025 0.007,-0.640645 0.0212,-0.924984 0.0141,-0.353836 0.0353,-0.517525 0.0459,-0.582436 0,-0.02011 0.007,-0.0314 0.0141,-0.04692 0.14111,0.04692 0.3175,0.08043 0.56092,0.100542 0.26106,0.141111 0.61031,0.414513 1.04422,0.813152 0.47625,0.441325 1.00189,0.95885 1.56633,1.545873 0.56092,0.584552 1.16064,1.2319 1.77448,1.919816 0.61383,0.680861 1.20297,1.35502 1.76741,2.011539 0.56798,0.656167 1.07245,1.263297 1.54164,1.800931 l 1.05481,1.243189 c 0.0529,0.08079 0.14111,0.203905 0.27516,0.376414 0.127,0.161219 0.26459,0.333727 0.4057,0.526344 0.14464,0.188031 0.26811,0.360539 0.38453,0.515408 0.10936,0.131939 0.17991,0.216959 0.21166,0.286456 0.0847,0.130175 0.10231,0.199319 0.10936,0.210608 -0.15169,0.0628 -0.30338,0.08537 -0.46566,0.08537 -0.11289,0 -0.32456,-0.0046 -0.62795,-0.01799 -0.31044,-0.0046 -0.64911,0.0067 -0.9913,0.06032 -0.34572,0.04727 -0.6597,0.141111 -0.92428,0.268816 -0.40569,0.1905 -0.49389,0.499534 -0.49389,0.716845 0,0.381 0.11642,0.622653 0.3422,0.714728 0.16933,0.07161 0.37747,0.107244 0.65263,0.107244 0.89959,0 1.82387,-0.02681 2.7305,-0.08714 1.67923,-0.112183 3.32317,-0.134408 4.9142,0 0.72319,0.06033 1.47814,0.08714 2.24367,0.08714 0.15522,0 0.34219,-0.02222 0.57855,-0.05362 0.43745,-0.07373 0.53622,-0.360539 0.55386,-0.54222 0.0423,-0.636058 -0.32103,-0.844197 -0.53622,-0.904875"
       style="fill:#ffffff;fill-opacity:1;fill-rule:nonzero;stroke:none;stroke-width:0.352778"
       id="path5997" /><path
       d="M 644.41281,11.476571 C 643.14987,10.298293 641.66115,9.3729568 639.98192,8.7167901 638.3027,8.058154 636.49295,7.731129 634.6197,7.731129 c -1.94733,0 -3.77825,0.3517194 -5.41514,1.0593917 -1.651,0.7013222 -3.0868,1.6891003 -4.29683,2.9277023 -1.20297,1.232253 -2.15194,2.717448 -2.81517,4.417484 -0.67027,1.686983 -1.00541,3.548239 -1.00541,5.519561 0,1.971322 0.33161,3.814939 0.98072,5.465939 0.65617,1.653116 1.58397,3.1115 2.74461,4.332111 1.17828,1.214261 2.59997,2.173111 4.23333,2.853972 1.62984,0.678745 3.43606,1.028347 5.36223,1.028347 1.95438,0 3.80647,-0.381 5.5245,-1.135944 1.7145,-0.745772 3.22438,-1.769533 4.50497,-3.044119 1.27705,-1.274587 2.28953,-2.786592 3.01625,-4.484864 0.72319,-1.700037 1.09361,-3.534834 1.09361,-5.438775 0,-2.00025 -0.37395,-3.855156 -1.11478,-5.494867 -0.7373,-1.646414 -1.75683,-3.077986 -3.01978,-4.260497 M 634.15404,9.464679 c 0.88194,0 1.7145,0.1344083 2.48002,0.4011083 1.28059,0.4459107 2.41653,1.1514667 3.35845,2.0990277 0.95955,0.95885 1.76389,2.119136 2.38125,3.458633 0.62794,1.339498 1.0795,2.77107 1.36172,4.251678 0.22931,1.326092 0.33867,2.741789 0.31044,4.200172 -0.0212,1.455914 -0.26458,2.851503 -0.72672,4.15537 -0.45861,1.290108 -1.18533,2.432755 -2.17311,3.377847 -0.97367,0.947561 -2.3248,1.572684 -4.01814,1.872897 -0.66675,0.118534 -1.30175,0.181328 -1.89441,0.181328 -0.98425,0 -1.88737,-0.170039 -2.68464,-0.488244 -1.30528,-0.526345 -2.43417,-1.319389 -3.34434,-2.345267 -0.93133,-1.039636 -1.67922,-2.253544 -2.24366,-3.613503 -0.5715,-1.373011 -0.9772,-2.75978 -1.20298,-4.126089 -0.25752,-1.328208 -0.381,-2.72168 -0.37394,-4.14655 0.0106,-1.41993 0.24342,-2.766483 0.6985,-4.011789 0.44097,-1.234369 1.16769,-2.320925 2.14489,-3.234619 0.97719,-0.911931 2.3495,-1.5324667 4.06753,-1.8549056 0.64205,-0.1185333 1.26647,-0.1770944 1.85914,-0.1770944"
       style="fill:#ffffff;fill-opacity:1;fill-rule:nonzero;stroke:none;stroke-width:0.352778"
       id="path5999" /><path
       d="M 676.32862,11.476571 C 675.06567,10.298293 673.57695,9.3729568 671.8942,8.7167901 670.21498,8.058154 668.41934,7.731129 666.53551,7.731129 c -1.95086,0 -3.77473,0.3517194 -5.41867,1.0593917 -1.64394,0.7013222 -3.08328,1.6891003 -4.29331,2.9277023 -1.2065,1.236487 -2.14841,2.726267 -2.81516,4.417484 -0.66675,1.686983 -1.00895,3.548239 -1.00895,5.519561 0,1.971322 0.33514,3.814939 0.98425,5.465939 0.65617,1.653116 1.58045,3.1115 2.75167,4.332111 1.16769,1.214261 2.58939,2.173111 4.22275,2.853972 1.63336,0.678745 3.43958,1.028347 5.36575,1.028347 1.95439,0 3.81353,-0.381 5.53155,-1.135944 1.70745,-0.745772 3.21734,-1.769533 4.49439,-3.044119 1.27706,-1.274587 2.28953,-2.786592 3.01625,-4.484864 0.72673,-1.708856 1.09361,-3.534834 1.09361,-5.438775 0,-2.00025 -0.37394,-3.85057 -1.11125,-5.494867 -0.7373,-1.646414 -1.7533,-3.077986 -3.01977,-4.260497 M 666.06984,9.464679 c 0.88194,0 1.71097,0.1344083 2.48003,0.4011083 1.28058,0.4459107 2.40947,1.1514667 3.3655,2.0990277 0.9525,0.95885 1.75683,2.119136 2.37419,3.458633 0.62442,1.339498 1.08656,2.77107 1.36172,4.251678 0.23284,1.321506 0.33867,2.735086 0.3175,4.200172 -0.0247,1.4605 -0.27164,2.851503 -0.73377,4.15537 -0.46214,1.290108 -1.18534,2.432755 -2.17312,3.377847 -0.97013,0.947561 -2.32833,1.572684 -4.01813,1.872897 -0.66675,0.118534 -1.30528,0.181328 -1.905,0.181328 -0.9772,0 -1.87325,-0.170039 -2.67053,-0.488244 -1.31233,-0.526345 -2.4377,-1.319389 -3.35139,-2.345267 -0.92781,-1.039636 -1.67922,-2.253544 -2.24014,-3.613503 -0.5715,-1.366308 -0.97719,-2.755194 -1.21003,-4.126089 -0.25752,-1.328208 -0.37394,-2.72168 -0.37041,-4.14655 0.0141,-1.41993 0.25047,-2.770716 0.69497,-4.011789 0.44803,-1.234369 1.17122,-2.320925 2.15194,-3.234619 0.98073,-0.911931 2.3495,-1.5324667 4.06753,-1.8549056 0.64206,-0.1185333 1.26295,-0.1770944 1.85914,-0.1770944"
       style="fill:#ffffff;fill-opacity:1;fill-rule:nonzero;stroke:none;stroke-width:0.352778"
       id="path6001" /><path
       d="m 704.13809,26.761726 c -0.13053,-0.27305 -0.36336,-0.461433 -0.68086,-0.533047 -0.32456,-0.07408 -0.62089,-0.0067 -0.91017,0.221897 -0.06,0.05821 -0.16933,0.203553 -0.53269,0.837495 -0.25753,0.459316 -0.55739,0.974725 -0.91017,1.547989 -0.3422,0.571147 -0.72672,1.120069 -1.13242,1.637594 -0.39511,0.506236 -0.77258,0.869245 -1.13594,1.075267 -0.19756,0.127705 -0.58561,0.300214 -1.15359,0.499533 -0.5715,0.206022 -1.22413,0.365125 -1.94027,0.468136 -0.70203,0.103011 -1.43934,0.111831 -2.1837,0.01799 -0.72319,-0.08749 -1.3723,-0.345017 -1.92264,-0.759531 -0.12347,-0.1143 -0.23283,-0.333727 -0.3175,-0.656166 -0.0847,-0.349603 -0.15875,-0.754945 -0.20108,-1.205442 -0.0459,-0.438856 -0.0776,-0.918281 -0.0953,-1.424517 -0.004,-0.506236 -0.007,-0.974372 -0.007,-1.393472 v -1.339497 c 0,-2.145947 0.007,-4.247092 0.0282,-6.30802 0.0282,-2.109964 0.0423,-4.2291 0.0423,-6.310136 0,-0.18168 0,-0.398991 0.0106,-0.661105 0.0176,-0.252942 0.0353,-0.506236 0.0706,-0.752475 0.0353,-0.244123 0.0952,-0.486128 0.16581,-0.701323 0.0706,-0.208138 0.16933,-0.358422 0.30338,-0.472369 0.20462,-0.161572 0.4692,-0.253294 0.80081,-0.284692 l 1.13594,-0.107597 c 0.38453,-0.04022 0.73025,-0.09842 1.01248,-0.1880305 0.35983,-0.1051277 0.56091,-0.3718277 0.56091,-0.7528277 0,-0.2529417 -0.13405,-0.4995334 -0.39158,-0.7256639 l -0.06,-0.053622 h -0.0811 c -0.99483,0 -1.89442,0.020108 -2.68111,0.073731 -1.53811,0.085372 -3.302,0.1121833 -4.88245,-0.060325 -0.79727,-0.078317 -1.61572,-0.1210028 -2.43416,-0.1210028 -0.27517,0 -0.55739,0.028928 -0.83609,0.073731 -0.22225,0.0381 -0.58208,0.1883833 -0.58208,0.7796389 0,0.4346222 0.254,0.7214305 0.72319,0.7951611 0.37042,0.060678 0.78317,0.1188859 1.24531,0.1792109 0.44097,0.05398 0.86078,0.165806 1.25589,0.338314 0.33514,0.145697 0.54328,0.432506 0.62442,0.887236 0.0952,0.452261 0.14111,0.96767 0.14111,1.54552 v 10.310988 c 0,0.661106 0.0247,1.467203 0.0705,2.401359 0.0494,0.927453 0.067,1.859491 0.067,2.75978 0,0.88265 -0.0459,1.707092 -0.13758,2.446162 -0.0847,0.708025 -0.26106,1.189566 -0.49389,1.426986 -0.30692,0.280105 -0.62795,0.441325 -0.98778,0.4953 -0.38806,0.05362 -0.75847,0.09172 -1.10419,0.118533 -0.39159,0.02681 -0.69498,0.08079 -0.94545,0.165806 -0.2293,0.08749 -0.49389,0.295627 -0.49389,0.828675 0,0.183797 0.06,0.365125 0.18345,0.517525 0.13405,0.172508 0.31397,0.262113 0.52211,0.262113 0.77258,0 1.4605,-0.02222 2.05316,-0.07373 0.57503,-0.04939 1.12537,-0.09631 1.65806,-0.141111 0.53269,-0.04727 1.0795,-0.09208 1.65806,-0.138995 0.56091,-0.04939 1.2453,-0.0695 2.01788,-0.0695 1.54164,0 3.15384,0.109714 4.77661,0.315736 1.65453,0.210609 3.28084,0.318206 4.83306,0.318206 0.36689,0 0.53975,-0.452614 0.65264,-0.84455 0.127,-0.461434 0.28575,-1.066095 0.47272,-1.807634 0.18345,-0.741538 0.44803,-1.579386 0.77258,-2.493433 0.32103,-0.904875 0.77964,-1.841147 1.36173,-2.766483 l 0.06,-0.09172 z"
       style="fill:#ffffff;fill-opacity:1;fill-rule:nonzero;stroke:none;stroke-width:0.352778"
       id="path6003" /><path
       d="m 253.43903,145.6108 c 0.0224,-0.89158 0.0403,-1.78986 0.0403,-2.70154 0,-0.26882 0.004,-0.51075 0.0201,-0.71907 0.007,-0.10082 0.0336,-0.17699 0.0672,-0.22627 0.0134,-0.0201 0.0695,-0.0829 0.24641,-0.13889 0.11875,-0.0358 0.36739,-0.0851 0.8109,-0.0851 0.2733,0 0.51971,-0.0359 0.74372,-0.0963 0.42545,-0.12319 0.67875,-0.48387 0.67875,-0.96771 0,-0.23971 -0.11218,-0.47043 -0.32032,-0.67652 l -0.16581,-0.17473 h -2.3162 c -0.23745,0 -0.48835,0.0157 -0.73924,0.0403 -0.67427,0.0695 -1.29477,0.0336 -1.76742,-0.0314 -0.38082,-0.0538 -0.81315,-0.0806 -1.29254,-0.0806 h -0.2643 c -0.15681,0 -0.32484,0.0157 -0.50627,0.0471 -0.43907,0.0649 -0.72355,0.40322 -0.72355,0.85347 0,0.64738 0.41218,0.8938 0.58914,0.96771 0.21279,0.0873 0.46369,0.14111 0.74595,0.16129 0.19935,0.0112 0.4144,0.0425 0.63172,0.0806 0.11645,0.0157 0.21501,0.0649 0.24415,0.0851 0.004,0.007 0.0538,0.0941 0.10305,0.40767 0.0425,0.28673 0.065,0.54885 0.065,0.79075 v 0.45251 c 0,0.39426 -0.004,0.78179 -0.0112,1.17827 -0.009,0.39875 -0.0112,0.80645 -0.0112,1.21412 l -0.0246,2.19753 c 0,0.27777 -0.0202,0.56674 -0.0582,0.86914 -0.0247,0.22849 -0.0829,0.28899 -0.10305,0.31139 -0.0874,0.0739 -0.19265,0.12767 -0.33824,0.15681 -0.22402,0.0515 -0.44133,0.10079 -0.65187,0.13886 -0.24641,0.0471 -0.45698,0.1053 -0.64068,0.17025 -0.39648,0.13441 -0.63616,0.45025 -0.63616,0.84451 0,0.43459 0.23072,0.78179 0.61154,0.92068 0.21502,0.0806 0.44129,0.11871 0.66753,0.11871 h 0.33154 c 0.2576,0 0.47939,-0.009 0.67426,-0.0269 0.18592,-0.0157 0.36065,-0.0403 0.52642,-0.0627 0.13663,-0.0224 0.28673,-0.0381 0.44802,-0.0538 0.46592,-0.0448 1.18947,-0.0224 1.83237,0.0471 0.72354,0.0762 1.46727,0.10753 2.15498,0.0336 0.52867,-0.0538 0.87122,-0.43455 0.87122,-0.97667 0,-0.40993 -0.26424,-0.73699 -0.68969,-0.84451 -0.19275,-0.0582 -0.41229,-0.10079 -0.66092,-0.14559 -0.23072,-0.0381 -0.46147,-0.0851 -0.70337,-0.13216 -0.14563,-0.0224 -0.24868,-0.0695 -0.30466,-0.11874 -0.0403,-0.0381 -0.0986,-0.10305 -0.12771,-0.24864 -0.0381,-0.20387 -0.0672,-0.40097 -0.0806,-0.59587 v -0.31137 c 0,-0.9005 0.0134,-1.78759 0.0336,-2.67239"
       style="fill:#ffffff;fill-opacity:1;fill-rule:nonzero;stroke:none;stroke-width:0.352778"
       id="path6005" /><path
       d="m 265.43001,149.58311 c -0.30903,0.21953 -0.68086,0.32258 -1.14899,0.32258 -0.55316,0 -0.98778,-0.12993 -1.33068,-0.38753 -0.36724,-0.28451 -0.65864,-0.64964 -0.87348,-1.08422 -0.2286,-0.47714 -0.3877,-0.99681 -0.48613,-1.54563 -0.0963,-0.5757 -0.14358,-1.12903 -0.14358,-1.64871 0,-0.27552 0.009,-0.53089 0.0339,-0.77283 l 0.0603,-0.60035 c 0.10971,-0.12097 0.24412,-0.2576 0.3944,-0.39423 0.20814,-0.19714 0.44344,-0.38083 0.69427,-0.55556 0.24412,-0.16351 0.5087,-0.30914 0.78634,-0.4301 0.70767,-0.29793 1.4605,-0.15678 1.96462,0.13218 0.34043,0.20384 0.61136,0.45695 0.82409,0.77953 0.22401,0.33825 0.3944,0.73477 0.50412,1.17606 0.11888,0.45695 0.1725,0.92964 0.1725,1.40229 0,0.44351 -0.0515,0.91842 -0.15451,1.41125 -0.0963,0.4704 -0.26212,0.90498 -0.48154,1.29251 -0.21061,0.36513 -0.48401,0.66756 -0.81563,0.90276 m 3.3648,-7.92314 c -0.43921,-0.48835 -0.98566,-0.8714 -1.6129,-1.15143 -1.02376,-0.45473 -2.32728,-0.55778 -3.47663,-0.23072 -0.42545,0.12545 -0.82867,0.28 -1.1938,0.47265 -0.10759,0.0538 -0.2039,0.10979 -0.3115,0.17251 0.25083,-0.69219 0.55774,-1.35749 0.91828,-1.99143 0.63641,-1.11333 1.45839,-2.11466 2.45287,-2.97036 0.2286,-0.20161 0.45473,-0.38082 0.69003,-0.55777 0.23072,-0.16577 0.46602,-0.32706 0.68333,-0.45473 0.0582,-0.0291 0.16122,-0.0762 0.3115,-0.14563 0.17463,-0.0762 0.33796,-0.15233 0.49707,-0.23745 0.18379,-0.10079 0.35383,-0.20832 0.49741,-0.32703 0.26423,-0.21505 0.39652,-0.45473 0.39652,-0.71907 0,-0.27777 -0.1143,-0.52641 -0.32279,-0.71906 -0.12312,-0.10753 -0.23495,-0.19714 -0.34713,-0.26212 l -0.16581,-0.0918 -0.18344,0.0157 c -0.23072,0.0224 -0.48401,0.0896 -0.77294,0.20832 -0.242,0.0963 -0.44591,0.18817 -0.63182,0.27104 -1.13348,0.52867 -2.20627,1.1962 -3.1877,1.98921 -0.98108,0.79523 -1.85914,1.70691 -2.60068,2.70824 -0.74365,1.0125 -1.33279,2.12358 -1.75154,3.30411 -0.43004,1.1895 -0.64311,2.46186 -0.64311,3.77455 0,0.67649 0.072,1.34853 0.21307,1.99143 0.14782,0.65634 0.36936,1.27907 0.67416,1.85476 0.30445,0.58466 0.70097,1.11556 1.18287,1.57703 0.48154,0.46817 1.06821,0.85347 1.76283,1.15365 0.83114,0.34495 1.6711,0.52193 2.50437,0.52193 0.86254,0 1.65982,-0.18146 2.37913,-0.53763 0.70555,-0.34942 1.31022,-0.83555 1.81645,-1.42917 0.49283,-0.59362 0.88053,-1.27459 1.15605,-2.01831 0.28223,-0.75491 0.41417,-1.54563 0.41417,-2.3543 0,-0.74821 -0.10972,-1.45158 -0.33585,-2.09674 -0.2353,-0.65856 -0.57362,-1.23874 -1.01247,-1.72035"
       style="fill:#ffffff;fill-opacity:1;fill-rule:nonzero;stroke:none;stroke-width:0.352778"
       id="path6007" /><path
       d="m 279.99162,147.29824 c -0.45226,-0.43011 -1.00788,-0.75269 -1.64853,-0.96548 -0.1972,-0.065 -0.39864,-0.11423 -0.60925,-0.15008 0.27094,-0.27555 0.53517,-0.58017 0.79058,-0.90275 0.32702,-0.41441 0.62054,-0.85348 0.85795,-1.30373 0.26459,-0.49953 0.399,-0.9677 0.399,-1.40229 0,-0.58018 -0.1076,-1.09093 -0.3295,-1.50756 -0.21731,-0.40771 -0.50165,-0.74821 -0.85795,-1.01477 -0.34714,-0.25985 -0.73696,-0.44803 -1.16241,-0.56003 -0.81985,-0.21954 -1.7025,-0.24642 -2.60773,0.11874 -0.42545,0.168 -0.81527,0.38527 -1.17157,0.63394 -0.36266,0.25312 -0.66287,0.5309 -0.89818,0.83104 -0.2868,0.37187 -0.42545,0.74147 -0.38735,1.14022 0.0335,0.22849 0.14993,0.4301 0.32703,0.60035 0.19262,0.16577 0.38312,0.19936 0.51082,0.19936 0.19015,0 0.36724,-0.0762 0.53305,-0.24194 0.34043,-0.38304 0.66075,-0.69888 0.94756,-0.92964 0.39194,-0.32702 1.22308,-0.39648 1.77412,0.13441 0.25964,0.2509 0.39405,0.67204 0.39405,1.26566 0,0.3248 -0.0984,0.65635 -0.29563,1.00581 -0.22154,0.392 -0.50623,0.76609 -0.84208,1.12003 -0.34501,0.36065 -0.71684,0.68771 -1.11125,0.97889 -0.40075,0.29347 -0.76835,0.53093 -1.06186,0.69666 l -0.46566,0.2218 c -0.56022,0.27329 -0.64982,0.67648 -0.64982,0.89602 0,0.58691 0.381,0.99236 0.94086,0.99236 0.21519,0 0.4325,-0.0919 0.74612,-0.30914 0.15875,-0.10305 0.27552,-0.17473 0.40323,-0.23297 0.20355,-0.10753 0.39193,-0.15904 0.59337,-0.15904 l 0.10971,0.009 c 0.3295,0.0314 0.64065,0.0739 0.93663,0.12993 0.31362,0.0627 0.59125,0.18592 0.82867,0.35394 0.24659,0.18144 0.45262,0.40097 0.62054,0.65857 0.17462,0.27552 0.3115,0.58244 0.40534,0.90498 0.10089,0.33154 0.14781,0.66308 0.14781,0.98118 0,0.62946 -0.12982,1.20738 -0.37853,1.7114 -0.26423,0.51523 -0.61383,0.9834 -1.05939,1.38215 -0.45473,0.41215 -0.99906,0.77283 -1.61078,1.07297 -0.61807,0.30018 -1.27459,0.55107 -1.93993,0.74595 -0.21942,0.0269 -0.40322,0.14337 -0.51964,0.3114 -0.0963,0.1344 -0.16122,0.30014 -0.18133,0.47265 -0.0268,0.21505 0.0268,0.41889 0.14782,0.59584 0.0896,0.12322 0.29351,0.33154 0.68333,0.33154 h 0.0109 c 0.89182,-0.0201 1.82139,-0.22401 2.76648,-0.61602 0.93204,-0.38753 1.79881,-0.91394 2.56505,-1.56358 0.77963,-0.66531 1.43121,-1.43814 1.94204,-2.30728 0.52211,-0.90723 0.79092,-1.87046 0.79092,-2.87401 0,-0.67426 -0.12558,-1.31494 -0.3496,-1.90408 -0.24412,-0.5981 -0.58702,-1.11781 -1.03505,-1.55236"
       style="fill:#ffffff;fill-opacity:1;fill-rule:nonzero;stroke:none;stroke-width:0.352778"
       id="path6009" /><path
       d="m 293.78559,147.09437 c -0.0917,-0.19936 -0.27552,-0.46817 -0.68792,-0.62946 -0.42545,-0.17022 -0.86889,-0.0359 -1.16452,0.36738 l -0.67663,0.97218 c -0.1658,0.23524 -0.33161,0.47717 -0.51294,0.72803 -0.18168,0.24867 -0.3429,0.47713 -0.48613,0.65634 -0.005,0.004 -0.10759,0.0919 -0.53551,0.18147 -0.42545,0.0874 -0.88688,0.14559 -1.38218,0.168 -0.43674,0.0202 -0.85549,0.0202 -1.25413,0 0.13864,-0.1456 0.29774,-0.31137 0.46143,-0.49058 0.32456,-0.3472 0.66746,-0.73473 1.01459,-1.16483 0.36301,-0.43011 0.70132,-0.86918 1.01918,-1.31943 0.31609,-0.45025 0.60254,-0.88706 0.83784,-1.31043 0.25753,-0.4525 0.43251,-0.85347 0.51965,-1.20964 0.381,-1.36645 0.25329,-2.49992 -0.37642,-3.36909 -0.63606,-0.88036 -1.63724,-1.32165 -2.9725,-1.32165 -0.25083,0 -0.49495,0.0112 -0.73696,0.0269 -0.27763,0.0202 -0.56444,0.0739 -0.85337,0.16577 -0.29351,0.0986 -0.60713,0.25312 -0.92075,0.46595 -0.30903,0.21057 -0.62935,0.49953 -0.96766,0.8714 -0.0649,0.0605 -0.1457,0.16577 -0.2533,0.30688 l -0.24165,0.33824 c -0.11219,0.15459 -0.20391,0.30688 -0.27799,0.45699 -0.0871,0.20161 -0.13441,0.36512 -0.13441,0.52416 0,0.2957 0.13229,0.55777 0.3743,0.73476 0.25964,0.18369 0.58914,0.21506 0.88018,0.0694 0.2039,-0.10079 0.37183,-0.28222 0.52211,-0.54656 0.067,-0.12322 0.16581,-0.25763 0.29563,-0.41219 0.10971,-0.12319 0.26423,-0.23519 0.46813,-0.32928 0.13441,-0.0695 0.40323,-0.14337 0.89818,-0.14337 0.89393,0 1.14017,0.36961 1.22308,0.49506 0.22189,0.33824 0.20179,0.85347 -0.0515,1.52326 -0.17004,0.4077 -0.40075,0.87139 -0.68086,1.36867 -0.30021,0.52193 -0.63641,1.06405 -1.00824,1.61512 -0.38276,0.55552 -0.78846,1.11778 -1.22731,1.68003 -0.43921,0.56004 -0.87383,1.0842 -1.28129,1.5367 -0.23989,0.23746 -0.28928,0.48835 -0.28928,0.65412 0,0.1456 0,0.59362 0.34078,0.86018 0.15452,0.12767 0.35172,0.19488 0.58244,0.21954 l 0.16792,0.0157 c 0.31821,0 0.52846,-0.20832 0.66075,-0.36513 0.36513,0 0.76624,-0.009 1.20509,-0.0157 0.51294,-0.009 0.96767,-0.0112 1.35996,-0.0112 0.97649,0.0291 1.79635,0.0986 2.4257,0.19488 0.67875,0.10304 1.25448,0.17699 1.68698,0.20835 l 0.0963,0.004 c 0.34714,0 0.71896,-0.23971 0.77047,-0.77731 0.0134,-0.16577 0.0473,-0.41219 0.0875,-0.72581 0.0469,-0.30462 0.14323,-0.69666 0.28434,-1.16258 0.13229,-0.45025 0.3877,-0.97444 0.75283,-1.55684 l 0.1658,-0.26434 z"
       style="fill:#ffffff;fill-opacity:1;fill-rule:nonzero;stroke:none;stroke-width:0.352778"
       id="path6011" /><path
       d="m 224.67127,34.969807 46.94964,-22.355881 46.94555,22.355881 z"
       style="fill:#ffffff;fill-opacity:1;fill-rule:nonzero;stroke:none;stroke-width:0.352778"
       id="path6013" /><path
       d="m 222.43879,43.906726 h 98.35514 v -4.473434 h -98.35514 z"
       style="fill:#ffffff;fill-opacity:1;fill-rule:evenodd;stroke:none;stroke-width:0.352778"
       id="path6015" /><path
       d="m 222.43879,122.15707 h 26.83167 v -13.41582 h -26.83167 z"
       style="fill:#ffffff;fill-opacity:1;fill-rule:evenodd;stroke:none;stroke-width:0.352778"
       id="path6017" /><path
       d="m 293.97362,122.15707 h 26.82045 v -13.41582 h -26.82045 z"
       style="fill:#ffffff;fill-opacity:1;fill-rule:evenodd;stroke:none;stroke-width:0.352778"
       id="path6019" /><path
       d="m 258.215,122.15707 h 8.93569 V 108.74125 H 258.215 Z"
       style="fill:#ffffff;fill-opacity:1;fill-rule:evenodd;stroke:none;stroke-width:0.352778"
       id="path6021" /><path
       d="m 276.09096,122.15707 h 8.93568 v -13.41582 h -8.93568 z"
       style="fill:#ffffff;fill-opacity:1;fill-rule:evenodd;stroke:none;stroke-width:0.352778"
       id="path6023" /><path
       d="m 230.26386,48.371129 1.11555,55.898701 h -8.93568 l 1.11107,-55.898701 z"
       style="fill:#ffffff;fill-opacity:1;fill-rule:nonzero;stroke:none;stroke-width:0.352778"
       id="path6025" /><path
       d="m 248.15491,48.371129 1.11555,55.898701 h -8.94464 l 1.11555,-55.898701 z"
       style="fill:#ffffff;fill-opacity:1;fill-rule:nonzero;stroke:none;stroke-width:0.352778"
       id="path6027" /><path
       d="m 266.03397,48.371129 1.11584,55.898701 h -8.94257 l 1.11796,-55.898701 z"
       style="fill:#ffffff;fill-opacity:1;fill-rule:nonzero;stroke:none;stroke-width:0.352778"
       id="path6029" /><path
       d="m 283.91204,48.371129 1.11548,55.898701 h -8.93586 l 1.10914,-55.898701 z"
       style="fill:#ffffff;fill-opacity:1;fill-rule:nonzero;stroke:none;stroke-width:0.352778"
       id="path6031" /><path
       d="m 301.80317,48.371129 1.11548,55.898701 h -8.94468 l 1.1243,-55.898701 z"
       style="fill:#ffffff;fill-opacity:1;fill-rule:nonzero;stroke:none;stroke-width:0.352778"
       id="path6033" /><path
       d="m 319.6823,48.371129 1.11548,55.898701 h -8.93586 l 1.10913,-55.898701 z"
       style="fill:#ffffff;fill-opacity:1;fill-rule:nonzero;stroke:none;stroke-width:0.352778"
       id="path6035" /><path
       d="m 271.61879,1.438279 -49.17866,23.478067 v 5.577769 L 271.61879,7.0227512 320.79531,30.494115 v -5.577769 z"
       style="fill:#ffffff;fill-opacity:1;fill-rule:nonzero;stroke:none;stroke-width:0.352778"
       id="path6037" /></g></svg>
