<svg version="1.1" viewBox="0 0 708.65 1000" xmlns="http://www.w3.org/2000/svg">
 <defs>
  <clipPath id="clipPath13">
   <path d="m520.5 626.14-14.04 41.187 19.514-3.4675 7.6335-25.479z" fill="#fffffe" fill-rule="evenodd" style="paint-order:stroke fill markers"/>
  </clipPath>
  <clipPath id="clipPath14">
   <path d="m209.25 365.24-14.008 41.095 19.47-3.4597 7.6163-25.422z" display="none" fill="#fffffe" fill-rule="evenodd" style="paint-order:stroke fill markers"/>
   <path class="powerclip" d="m186 362.1h32.027v45.899h-32.027zm23.252 3.1395-14.008 41.095 19.47-3.4597 7.6163-25.422z" fill="#fffffe" fill-rule="evenodd" style="paint-order:stroke fill markers"/>
  </clipPath>
  <filter id="filter1" x=".11828" y="0" width=".88172" height="1" color-interpolation-filters="sRGB">
   <feColorMatrix values="0.09 0.72 0.17 0 0 0.09 0.72 0.17 0 0 0.09 0.72 0.17 0 0 0 0 0 1 0 "/>
  </filter>
 </defs>
 <g transform="translate(-195.69)">
  <g transform="translate(2.4815 -.00029931)" filter="url(#filter1)">
   <g transform="matrix(27.856 0 0 27.856 -5127.3 -10226)" clip-path="url(#clipPath14)">
    <path d="m210.34 399.56-2.579 3.082c-0.552 0.553-1.758 7e-3 -1.758-0.545v-23.099c0-0.552 2.372-4.501 5-4.501l-0.028 23.007c0 1.134-0.093 1.308-0.635 2.056" fill="#e3a919"/>
    <path d="m208 377.45h-17l0.194-0.348 3.546-2.606c0.486-0.379 0.831-0.5 1.383-0.5h14.363c0.188 0 0.514 0.277 0.344 0.47z" fill="#ffd983"/>
    <path d="m207 403h-15a1 1 0 0 1-1-1v-24.546s0.448-0.454 1-0.454h15c0.552 0 1 0.454 1 0.454v24.546a1 1 0 0 1-1 1" fill="#ffcc4d"/>
    <path d="m200 394a3 3 0 0 1-3 3 3 3 0 0 1-3-3 3 3 0 0 1 3-3 3 3 0 0 1 3 3z" fill="#f4900c"/>
    <path d="m201 388a4 4 0 0 1-4 4 4 4 0 0 1-4-4 4 4 0 0 1 4-4 4 4 0 0 1 4 4z" fill="#ea596e"/>
    <path d="m206 390.5a4.5 4.5 0 0 1-4.5 4.5 4.5 4.5 0 0 1-4.5-4.5 4.5 4.5 0 0 1 4.5-4.5 4.5 4.5 0 0 1 4.5 4.5z" fill="#ffe8b6"/>
    <path d="m204 390.5a2.5 2.5 0 0 1-2.5 2.5 2.5 2.5 0 0 1-2.5-2.5 2.5 2.5 0 0 1 2.5-2.5 2.5 2.5 0 0 1 2.5 2.5z" fill="#ffcc4d"/>
    <path d="m205 375.46s-0.21 0.431-0.967 0.431-1.033-0.431-1.033-0.431v-4.122c0-1.993 0.532-3.309 1.582-3.911 1.005-0.576 2.326-0.398 3.922 0.535 1.274 0.743 4.421 2.972 4.496 3.034 0 0 0.165 0.565-0.303 1.1s-0.965 0.447-0.965 0.447c-0.018-0.014-3.101-2.191-4.236-2.855-0.881-0.515-1.584-0.623-1.904-0.436-0.279 0.16-0.592 0.726-0.592 2.086z" fill="#ccd6dd"/>
    <path d="m207.43 367.44c-1.124-0.446-2.082-0.451-2.853-0.01-0.791 0.454-1.287 1.314-1.484 2.562l1.975 0.367c0.108-0.664 0.322-0.989 0.52-1.103 0.22-0.129 0.63-0.105 1.146 0.082z" fill="#99aab5"/>
    <path d="m207.93 378h-16.431c-0.275 0-0.5-0.225-0.5-0.5s0.225-0.5 0.5-0.5h16.431c0.275 0 0.5 0.225 0.5 0.5s-0.225 0.5-0.5 0.5" fill="#ffe8b6"/>
    <path d="m210.91 374.8-2.536 3.036c-0.163 0.201-0.471 0.223-0.684 0.05-0.214-0.173-0.255-0.479-0.093-0.68l2.536-3.036c0.163-0.201 0.471-0.223 0.684-0.05 0.214 0.174 0.255 0.479 0.093 0.68" fill="#ffe8b6"/>
   </g>
   <g transform="matrix(27.793 0 0 27.793 -13765 -17454)" clip-path="url(#clipPath13)">
    <path d="m512 655.26s8-0.213 9.651-4.075c1.069-2.501-0.609-9.554-0.609-13.93 0-1.481-1.167-2.25-3.416-2.25h-14.497c-1.125 0-3.329-0.262-3.329 2.125 0 4.284-1.765 11.341-0.634 13.815 1.876 4.102 9.834 4.315 9.834 4.315v3.123s-4.584 2.34-5.498 2.883c-0.984 0.562-0.33 1.462 0.063 1.617 0.656 0.258 2.253 1.102 6.78 1.102 4.641 0 6.202-0.914 6.765-1.102 0.217-0.072 1.347-0.932 0.011-1.723-2.378-1.408-5.121-2.777-5.121-2.777z" fill="#8899a6"/>
    <path d="m521 636.44c0 1.621-2.547 2.935-10.623 2.935s-10.623-1.314-10.623-2.935c0-1.622 2.547-2.935 10.623-2.935s10.623 1.314 10.623 2.935" fill="#ccd6dd"/>
    <path d="m501.46 636.58c2.042 9.5-2.417 13.583 2.083 15.167 5.432 1.911 8.542 1.593 13.458 0 4.5-1.458 1.5-6.875 2.125-14.792 0.162-2.037-17.666-0.375-17.666-0.375" fill="#ccd6dd"/>
    <path d="m502.04 642.58c-0.083 1.083-1.09 6.129-0.625 7.292 0.5 1.25 1.75 3.25 8.917 3.25 5.25 0 8.583-1.583 9.125-3.583 0.471-1.74-0.25-5.583-0.333-7" fill="#f4900c"/>
    <ellipse cx="510.5" cy="642.5" rx="8.5" ry="1.5" fill="#ffcc4d"/>
    <path d="m517.74 632.9s-5.922 13.911-6.231 14.549c-0.377 0.78 0.601 1.874 1.47 0.483 0.868-1.391 6.741-13.698 6.741-13.698z" fill="#c1694f"/>
    <path d="m510.31 639.68c-4.291 0-7.672-1.007-8.943-1.603a1.0001 1.0001 0 0 1 0.849-1.811c0.074 0.035 7.707 3.276 16.552-0.111a1.0001 1.0001 0 0 1 0.715 1.868c-3.222 1.234-6.389 1.657-9.173 1.657" fill="#fff"/>
    <path d="m513.7 642.39-0.661 1.544c0.697-0.02 1.447-0.085 2.084-0.173l0.476-0.97c-0.617 0.011-1.236-0.116-1.899-0.401" fill="#ffac33"/>
    <path d="m511.51 647.45c-0.377 0.78 0.601 1.874 1.47 0.483 0.288-0.462 1.129-2.129 2.122-4.147-0.589 0.065-1.355 0.121-2.077 0.161a257.11 257.11 0 0 1-1.515 3.503" fill="#cc6f00"/>
    <path d="m527.4 637.62c-1.02-1.582-5.397-7.694-5.585-7.957a1.004 1.004 0 0 0-0.813-0.417c-1.459 0-4.763-0.016-7.233-0.028-1.481-7e-3 -2.663-0.013-2.975-0.013-0.648 0-1.18 0.425-1.324 1.059-0.336 1.48 1.528 4.291 7.892 7.343 4.216 2.021 6.661 2.446 7.97 2.446h1e-3c1.474 0 2.038-0.551 2.252-1.013 0.214-0.466 0.144-0.991-0.185-1.42" fill="#77b255"/>
    <path d="m519.14 638.41c3.136 1.328 5.078 1.645 6.188 1.645h1e-3c1.474 0 2.038-0.551 2.252-1.013 0.215-0.465 0.146-0.99-0.184-1.419-0.653-1.013-2.681-3.881-4.106-5.884 0.812 2.577 1.111 6.467-4.151 6.671" fill="#5c913b"/>
    <circle cx="521.19" cy="629.69" r="1.688" fill="#3e721d"/>
   </g>
  </g>
  <circle cx="500" cy="500" r="499.81" display="none" fill="none" stroke="#fff" stroke-linecap="round" stroke-linejoin="round" stroke-width=".37781" style="paint-order:stroke fill markers"/>
 </g>
</svg>
