<svg version="1.1" width="156" height="59" viewBox="0 0 156 59" xmlns="http://www.w3.org/2000/svg">
 <path d="m11.505 45.932c-1.3204 0-2.6859-0.15-4.0964-0.4501-1.3805-0.3001-2.6559-0.8103-3.8263-1.5305-0.39013-0.2701-0.66022-0.5702-0.81027-0.9003s-0.21007-0.6602-0.18006-0.9903c0.06002-0.3602 0.19506-0.6603 0.40513-0.9003 0.24008-0.2701 0.52518-0.4352 0.85529-0.4952 0.36012-0.06 0.73524 0.015 1.1254 0.2251 1.1704 0.6602 2.2958 1.1253 3.3761 1.3954 1.0804 0.2401 2.1458 0.3602 3.196 0.3602 1.5905 0 2.7909-0.2851 3.6012-0.8553s1.2154-1.3355 1.2154-2.2958c0-0.7802-0.2701-1.3804-0.8103-1.8006-0.5401-0.4501-1.3504-0.7953-2.4308-1.0353l-4.2764-0.8553c-1.8606-0.3901-3.2711-1.0804-4.2314-2.0707s-1.4405-2.2507-1.4405-3.7813c0-1.3804 0.37513-2.5808 1.1254-3.6011 0.75024-1.0204 1.8006-1.8006 3.151-2.3408 1.3504-0.5702 2.911-0.8553 4.6816-0.8553 1.3204 0 2.5659 0.165 3.7362 0.4952 1.1704 0.3301 2.2508 0.8252 3.2411 1.4854 0.3901 0.2101 0.6452 0.4952 0.7653 0.8553 0.12 0.3301 0.135 0.6603 0.045 0.9904-0.06 0.3301-0.2101 0.6302-0.4502 0.9003-0.24 0.24-0.5401 0.3901-0.9003 0.4501-0.3301 0.03-0.7052-0.06-1.1253-0.2701-0.9003-0.5702-1.8006-0.9753-2.7009-1.2154-0.8703-0.2401-1.7406-0.3601-2.6109-0.3601-1.5905 0-2.7909 0.3001-3.6012 0.9003-0.78026 0.5702-1.1704 1.3504-1.1704 2.3408 0 0.7502 0.24008 1.3654 0.72024 1.8456 0.48016 0.4801 1.2304 0.8253 2.2507 1.0353l4.2764 0.8553c1.9507 0.3901 3.4212 1.0504 4.4115 1.9807 1.0203 0.9303 1.5305 2.1907 1.5305 3.7812 0 2.0707-0.8253 3.7063-2.4758 4.9066-1.6506 1.2004-3.8413 1.8006-6.5722 1.8006zm18.844 8.0127c-0.5402 0-0.9904-0.15-1.3505-0.4501-0.3301-0.2701-0.5252-0.6453-0.5852-1.1254-0.03-0.4502 0.06-0.9453 0.2701-1.4855l3.061-6.8873v1.9356l-8.4178-19.581c-0.21-0.5402-0.2851-1.0504-0.225-1.5306 0.06-0.4801 0.2851-0.8552 0.6752-1.1253 0.3901-0.3001 0.9153-0.4502 1.5755-0.4502 0.5702 0 1.0203 0.1351 1.3505 0.4052 0.3301 0.27 0.6302 0.7352 0.9003 1.3954l6.7972 16.791h-1.2604l6.8873-16.791c0.2701-0.6902 0.5852-1.1554 0.9453-1.3954 0.3601-0.2701 0.8553-0.4052 1.4855-0.4052 0.5402 0 0.9603 0.1501 1.2604 0.4502 0.3301 0.2701 0.5252 0.6452 0.5852 1.1253 0.09 0.4502 0.015 0.9454-0.2251 1.4855l-11.254 25.884c-0.3001 0.6902-0.6452 1.1554-1.0354 1.3955-0.3601 0.2401-0.8402 0.3601-1.4404 0.3601zm20.461 0c-0.7203 0-1.2755-0.1951-1.6656-0.5852s-0.5852-0.9603-0.5852-1.7106v-26.109c0-0.7503 0.1951-1.3205 0.5852-1.7106s0.9303-0.5852 1.6205-0.5852c0.7203 0 1.2755 0.1951 1.6656 0.5852s0.5852 0.9603 0.5852 1.7106v3.9163l-0.4952-0.9453c0.4802-1.6206 1.4255-2.911 2.836-3.8713 1.4104-0.9903 3.076-1.4855 4.9966-1.4855 1.9507 0 3.6462 0.4651 5.0867 1.3955 1.4705 0.9303 2.5959 2.2357 3.3761 3.9163 0.8103 1.6805 1.2154 3.7062 1.2154 6.077 0 2.3107-0.4051 4.3364-1.2154 6.077-0.7802 1.7106-1.8906 3.031-3.3311 3.9613-1.4405 0.9003-3.151 1.3504-5.1317 1.3504-1.8906 0-3.5412-0.4801-4.9516-1.4404-1.4105-0.9604-2.3558-2.2358-2.836-3.8263h0.5402v10.984c0 0.7503-0.2101 1.3205-0.6302 1.7106-0.3901 0.3901-0.9453 0.5852-1.6655 0.5852zm8.4177-11.524c1.2605 0 2.3558-0.3001 3.2861-0.9003s1.6506-1.4855 2.1608-2.6559c0.5101-1.1704 0.7652-2.6109 0.7652-4.3214 0-2.5809-0.5702-4.5315-1.7106-5.852-1.1103-1.3204-2.6108-1.9806-4.5015-1.9806-1.2304 0-2.3257 0.3001-3.286 0.9003-0.9304 0.5702-1.6506 1.4404-2.1608 2.6108-0.5101 1.1704-0.7652 2.6109-0.7652 4.3215 0 2.5508 0.5702 4.5015 1.7106 5.8519 1.1403 1.3505 2.6408 2.0257 4.5014 2.0257zm18.178 11.524c-0.7203 0-1.2754-0.1951-1.6656-0.5852-0.3901-0.3901-0.5852-0.9603-0.5852-1.7106v-26.109c0-0.7503 0.1951-1.3205 0.5852-1.7106 0.3902-0.3901 0.9303-0.5852 1.6206-0.5852 0.7202 0 1.2754 0.1951 1.6655 0.5852 0.3902 0.3901 0.5852 0.9603 0.5852 1.7106v3.9163l-0.4951-0.9453c0.4801-1.6206 1.4254-2.911 2.8359-3.8713 1.4105-0.9903 3.076-1.4855 4.9967-1.4855 1.9506 0 3.6462 0.4651 5.0866 1.3955 1.4705 0.9303 2.5959 2.2357 3.3762 3.9163 0.8102 1.6805 1.2154 3.7062 1.2154 6.077 0 2.3107-0.4052 4.3364-1.2154 6.077-0.7803 1.7106-1.8907 3.031-3.3311 3.9613-1.4405 0.9003-3.1511 1.3504-5.1317 1.3504-1.8907 0-3.5412-0.4801-4.9517-1.4404-1.4105-0.9604-2.3558-2.2358-2.8359-3.8263h0.5402v10.984c0 0.7503-0.2101 1.3205-0.6303 1.7106-0.3901 0.3901-0.9453 0.5852-1.6655 0.5852zm8.4178-11.524c1.2604 0 2.3558-0.3001 3.2861-0.9003s1.6505-1.4855 2.1607-2.6559 0.7652-2.6109 0.7652-4.3214c0-2.5809-0.5701-4.5315-1.7105-5.852-1.1104-1.3204-2.6109-1.9806-4.5015-1.9806-1.2304 0-2.3258 0.3001-3.2861 0.9003-0.9303 0.5702-1.6506 1.4404-2.1607 2.6108-0.5102 1.1704-0.7653 2.6109-0.7653 4.3215 0 2.5508 0.5702 4.5015 1.7106 5.8519 1.1404 1.3505 2.6409 2.0257 4.5015 2.0257zm18.178 3.3761c-0.72 0-1.276-0.2101-1.666-0.6302-0.39-0.4502-0.585-1.0654-0.585-1.8456v-17.556c0-0.7803 0.195-1.3805 0.585-1.8006 0.39-0.4202 0.946-0.6302 1.666-0.6302s1.275 0.21 1.665 0.6302c0.421 0.4201 0.631 1.0203 0.631 1.8006v17.556c0 0.7802-0.195 1.3954-0.586 1.8456-0.39 0.4201-0.96 0.6302-1.71 0.6302zm0-27.144c-0.9 0-1.606-0.2251-2.116-0.6752-0.48-0.4502-0.72-1.0804-0.72-1.8907 0-0.8402 0.24-1.4704 0.72-1.8906 0.51-0.4501 1.216-0.6752 2.116-0.6752s1.59 0.2251 2.071 0.6752c0.51 0.4202 0.765 1.0504 0.765 1.8906 0 0.8103-0.255 1.4405-0.765 1.8907-0.481 0.4501-1.171 0.6752-2.071 0.6752z" fill="#fff"/>
 <path d="m150.5 52.112-4.067 4.8603c-0.871 0.8721-2.773 0.011-2.773-0.8595v-36.427c0-0.8705 3.741-7.098 7.885-7.098l-0.044 36.282c0 1.7883-0.146 2.0627-1.001 3.2423z" fill="#E3A919"/>
 <path d="m146.81 17.246h-26.808l0.306-0.5488 5.592-4.1096c0.766-0.5977 1.31-0.7885 2.181-0.7885h22.65c0.296 0 0.81 0.4368 0.542 0.7412l-4.463 4.7057z" fill="#FFD983"/>
 <path d="m145.24 57.532h-23.654c-0.419 0-0.82-0.1662-1.116-0.4619-0.295-0.2957-0.461-0.6969-0.461-1.1151v-38.709s0.706-0.716 1.577-0.716h23.654c0.871 0 1.577 0.716 1.577 0.716v38.709c0 0.4182-0.166 0.8194-0.461 1.1151-0.296 0.2957-0.697 0.4619-1.116 0.4619z" fill="#FFCC4D"/>
 <path d="m129.47 48.07c2.612 0 4.73-2.1181 4.73-4.731 0-2.6128-2.118-4.731-4.73-4.731-2.613 0-4.731 2.1182-4.731 4.731 0 2.6129 2.118 4.731 4.731 4.731z" fill="#F4900C"/>
 <path d="m129.47 40.185c3.483 0 6.307-2.8242 6.307-6.308s-2.824-6.308-6.307-6.308c-3.484 0-6.308 2.8242-6.308 6.308s2.824 6.308 6.308 6.308z" fill="#EA596E"/>
 <path d="m136.56 44.916c3.919 0 7.096-3.1772 7.096-7.0965 0-3.9192-3.177-7.0964-7.096-7.0964s-7.097 3.1772-7.097 7.0964c0 3.9193 3.178 7.0965 7.097 7.0965z" fill="#FFE8B6"/>
 <path d="m136.56 41.762c2.177 0 3.942-1.7651 3.942-3.9425 0-2.1773-1.765-3.9424-3.942-3.9424s-3.943 1.7651-3.943 3.9424c0 2.1774 1.766 3.9425 3.943 3.9425z" fill="#FFCC4D"/>
 <path d="m142.08 14.108s-0.331 0.6797-1.525 0.6797-1.629-0.6797-1.629-0.6797v-6.5003c0-3.1429 0.839-5.2183 2.495-6.1676 1.585-0.90834 3.668-0.62764 6.185 0.84369 2.009 1.1717 6.972 4.6868 7.09 4.7846 0 0 0.26 0.891-0.478 1.7347s-1.522 0.70491-1.522 0.70491c-0.028-0.02207-4.89-3.4552-6.68-4.5023-1.389-0.81215-2.498-0.98247-3.003-0.68757-0.44 0.25232-0.933 1.1449-0.933 3.2896v6.5003z" fill="#CCD6DD"/>
 <path d="m145.92 1.4543c-1.773-0.70334-3.283-0.71122-4.499-0.01577-1.248 0.71595-2.03 2.0722-2.341 4.0402l3.115 0.57875c0.17-1.0471 0.508-1.5596 0.82-1.7394 0.347-0.20343 0.994-0.16558 1.807 0.12932l1.098-2.9931z" fill="#99AAB5"/>
 <path d="m146.7 18.107h-25.912c-0.434 0-0.788-0.3548-0.788-0.7885 0-0.4336 0.354-0.7885 0.788-0.7885h25.912c0.433 0 0.788 0.3549 0.788 0.7885 0 0.4337-0.355 0.7885-0.788 0.7885z" fill="#FFE8B6"/>
 <path d="m151.4 13.055-3.999 4.7878c-0.257 0.317-0.743 0.3517-1.079 0.0788-0.337-0.2728-0.402-0.7553-0.146-1.0723l3.999-4.7878c0.257-0.3169 0.743-0.3516 1.079-0.0788 0.337 0.2744 0.402 0.7554 0.146 1.0723z" fill="#FFE8B6"/>
</svg>
