<svg version="1.1" width="156" height="57" viewBox="0 0 156 57" xmlns="http://www.w3.org/2000/svg">
 <path d="m13.078 45.286c-1.8006 0-3.3161-0.3151-4.5465-0.9453-1.2304-0.6302-2.1457-1.5605-2.7459-2.7909-0.6002-1.2304-0.9003-2.7309-0.9003-4.5015v-10.624h-2.7009c-0.6002 0-1.0654-0.1501-1.3955-0.4502-0.33011-0.3301-0.49516-0.7652-0.49516-1.3054 0-0.5702 0.16505-1.0053 0.49516-1.3054 0.33011-0.3001 0.79526-0.4502 1.3955-0.4502h2.7009v-4.6365c0-0.7503 0.19506-1.3205 0.58519-1.7106 0.42014-0.3901 0.99033-0.5852 1.7106-0.5852s1.2754 0.1951 1.6656 0.5852 0.58519 0.9603 0.58519 1.7106v4.6365h5.2668c0.6002 0 1.0653 0.1501 1.3954 0.4502s0.4952 0.7352 0.4952 1.3054c0 0.5402-0.1651 0.9753-0.4952 1.3054-0.3301 0.3001-0.7952 0.4502-1.3954 0.4502h-5.2668v10.263c0 1.5905 0.33011 2.7909 0.99038 3.6012 0.6902 0.8103 1.8005 1.2154 3.3311 1.2154 0.5401 0 1.0053-0.045 1.3954-0.1351 0.4202-0.12 0.7653-0.195 1.0354-0.225 0.3301 0 0.6002 0.12 0.8102 0.3601 0.2101 0.2101 0.3151 0.6302 0.3151 1.2604 0 0.4502-0.09 0.8703-0.2701 1.2604-0.15 0.3902-0.4351 0.6452-0.8552 0.7653-0.3602 0.12-0.8553 0.2251-1.4855 0.3151-0.6002 0.12-1.1404 0.18-1.6206 0.18zm12.562 8.0127c-0.5402 0-0.9904-0.1501-1.3505-0.4502-0.3301-0.27-0.5252-0.6452-0.5852-1.1253-0.03-0.4502 0.06-0.9453 0.2701-1.4855l3.061-6.8873v1.9356l-8.4178-19.582c-0.21-0.5401-0.2851-1.0503-0.225-1.5305 0.06-0.4801 0.2851-0.8552 0.6752-1.1253 0.3901-0.3001 0.9153-0.4502 1.5755-0.4502 0.5702 0 1.0203 0.1351 1.3505 0.4052 0.3301 0.27 0.6302 0.7352 0.9003 1.3954l6.7972 16.791h-1.2604l6.8873-16.791c0.2701-0.6902 0.5852-1.1554 0.9453-1.3954 0.3601-0.2701 0.8553-0.4052 1.4855-0.4052 0.5402 0 0.9603 0.1501 1.2604 0.4502 0.3301 0.2701 0.5252 0.6452 0.5852 1.1253 0.09 0.4502 0.015 0.9454-0.2251 1.4855l-11.254 25.884c-0.3001 0.6902-0.6452 1.1554-1.0354 1.3955-0.3601 0.2401-0.8402 0.3601-1.4404 0.3601zm20.461 0c-0.7203 0-1.2755-0.1951-1.6656-0.5852s-0.5852-0.9603-0.5852-1.7106v-26.109c0-0.7503 0.1951-1.3205 0.5852-1.7106s0.9303-0.5852 1.6205-0.5852c0.7203 0 1.2755 0.1951 1.6656 0.5852s0.5852 0.9603 0.5852 1.7106v3.9163l-0.4952-0.9453c0.4802-1.6206 1.4255-2.911 2.836-3.8713 1.4104-0.9903 3.076-1.4855 4.9966-1.4855 1.9507 0 3.6462 0.4651 5.0867 1.3954 1.4705 0.9304 2.5959 2.2358 3.3761 3.9163 0.8103 1.6806 1.2154 3.7063 1.2154 6.0771 0 2.3107-0.4051 4.3364-1.2154 6.077-0.7802 1.7105-1.8906 3.031-3.3311 3.9613-1.4405 0.9003-3.151 1.3504-5.1317 1.3504-1.8906 0-3.5412-0.4801-4.9516-1.4404-1.4105-0.9604-2.3558-2.2358-2.836-3.8263h0.5402v10.984c0 0.7503-0.2101 1.3205-0.6302 1.7106-0.3901 0.3901-0.9453 0.5852-1.6655 0.5852zm8.4177-11.524c1.2605 0 2.3558-0.3001 3.2861-0.9003s1.6506-1.4855 2.1608-2.6559c0.5101-1.1704 0.7652-2.6109 0.7652-4.3214 0-2.5809-0.5702-4.5315-1.7106-5.852-1.1103-1.3204-2.6108-1.9806-4.5015-1.9806-1.2304 0-2.3257 0.3001-3.286 0.9003-0.9304 0.5702-1.6506 1.4404-2.1608 2.6108-0.5101 1.1704-0.7652 2.6109-0.7652 4.3215 0 2.5508 0.5702 4.5015 1.7106 5.8519 1.1403 1.3505 2.6408 2.0257 4.5014 2.0257zm23.625 3.5111c-1.3204 0-2.6859-0.15-4.0964-0.4501-1.3804-0.3001-2.6558-0.8103-3.8262-1.5305-0.3902-0.2701-0.6603-0.5702-0.8103-0.9003-0.1501-0.3301-0.2101-0.6602-0.1801-0.9903 0.0601-0.3602 0.1951-0.6603 0.4052-0.9003 0.24-0.2701 0.5251-0.4352 0.8553-0.4952 0.3601-0.06 0.7352 0.015 1.1253 0.2251 1.1704 0.6602 2.2958 1.1253 3.3761 1.3954 1.0804 0.2401 2.1458 0.3602 3.1961 0.3602 1.5905 0 2.7909-0.2851 3.6012-0.8553s1.2154-1.3355 1.2154-2.2958c0-0.7803-0.2701-1.3805-0.8103-1.8006-0.5401-0.4501-1.3504-0.7953-2.4308-1.0353l-4.2764-0.8553c-1.8606-0.3901-3.2711-1.0804-4.2314-2.0707s-1.4405-2.2508-1.4405-3.7813c0-1.3804 0.3752-2.5808 1.1254-3.6012 0.7503-1.0203 1.8006-1.8006 3.151-2.3407 1.3505-0.5702 2.911-0.8553 4.6816-0.8553 1.3204 0 2.5659 0.165 3.7362 0.4952 1.1704 0.3301 2.2508 0.8252 3.2411 1.4854 0.3901 0.2101 0.6452 0.4952 0.7653 0.8553 0.12 0.3301 0.135 0.6602 0.045 0.9904-0.06 0.3301-0.2101 0.6302-0.4502 0.9003-0.24 0.24-0.5401 0.3901-0.9003 0.4501-0.3301 0.03-0.7052-0.06-1.1253-0.2701-0.9003-0.5702-1.8006-0.9753-2.7009-1.2154-0.8703-0.2401-1.7406-0.3601-2.6109-0.3601-1.5905 0-2.7909 0.3001-3.6012 0.9003-0.7803 0.5702-1.1704 1.3504-1.1704 2.3408 0 0.7502 0.2401 1.3654 0.7203 1.8456 0.4801 0.4801 1.2304 0.8253 2.2507 1.0353l4.2764 0.8553c1.9507 0.3901 3.4212 1.0504 4.4115 1.9807 1.0203 0.9303 1.5305 2.1907 1.5305 3.7812 0 2.0707-0.8253 3.7062-2.4758 4.9066-1.6506 1.2004-3.8413 1.8006-6.5722 1.8006zm16.357-0.135c-0.7202 0-1.2754-0.2101-1.6656-0.6302-0.3901-0.4502-0.5852-1.0654-0.5852-1.8456v-17.556c0-0.7803 0.1951-1.3805 0.5852-1.8006 0.3902-0.4202 0.9454-0.6303 1.6656-0.6303s1.2754 0.2101 1.6655 0.6303c0.4202 0.4201 0.6303 1.0203 0.6303 1.8006v17.556c0 0.7802-0.1951 1.3954-0.5852 1.8456-0.3902 0.4201-0.9604 0.6302-1.7106 0.6302zm0-27.144c-0.9003 0-1.6055-0.2251-2.1157-0.6752-0.4802-0.4502-0.7202-1.0804-0.7202-1.8907 0-0.8402 0.24-1.4704 0.7202-1.8906 0.5102-0.4501 1.2154-0.6752 2.1157-0.6752s1.5905 0.2251 2.0707 0.6752c0.5101 0.4202 0.7652 1.0504 0.7652 1.8906 0 0.8103-0.2551 1.4405-0.7652 1.8907-0.4802 0.4501-1.1704 0.6752-2.0707 0.6752z"/>
 <path d="m131.29 42.882s12.588-0.3352 15.186-6.4118c1.682-3.9351-0.959-15.032-0.959-21.918 0-2.3302-1.836-3.5402-5.375-3.5402h-22.81c-1.77 0-5.238-0.4123-5.238 3.3435 0 6.7406-2.777 17.844-0.997 21.737 2.952 6.4542 15.473 6.7894 15.473 6.7894v4.9138s-7.213 3.6818-8.651 4.5362c-1.548 0.8843-0.519 2.3004 0.099 2.5442 1.033 0.406 3.545 1.734 10.668 1.734 7.303 0 9.759-1.4381 10.645-1.734 0.341-0.1132 2.119-1.4664 0.017-2.711-3.742-2.2154-8.058-4.3694-8.058-4.3694v-4.9138z" fill="#8899A6"/>
 <path d="m145.45 13.281c0 2.5505-4.007 4.618-16.714 4.618s-16.715-2.0675-16.715-4.618c0-2.5521 4.008-4.618 16.715-4.618s16.714 2.0675 16.714 4.618z" fill="#CCD6DD"/>
 <path d="m114.7 13.503c3.213 14.948-3.803 21.372 3.278 23.864 8.547 3.0068 13.44 2.5065 21.175 0 7.081-2.294 2.36-10.817 3.344-23.274 0.255-3.2051-27.797-0.59-27.797-0.59z" fill="#CCD6DD"/>
 <path d="m115.62 22.943c-0.131 1.704-1.715 9.6435-0.983 11.473 0.786 1.9668 2.753 5.1137 14.03 5.1137 8.26 0 13.505-2.4908 14.358-5.6376 0.741-2.7378-0.394-8.7845-0.524-11.014" fill="#F4900C"/>
 <path d="m128.93 25.173c7.386 0 13.374-1.0566 13.374-2.3601s-5.988-2.3602-13.374-2.3602-13.374 1.0567-13.374 2.3602 5.988 2.3601 13.374 2.3601z" fill="#FFCC4D"/>
 <path d="m140.33 7.7092s-9.318 21.888-9.804 22.892c-0.594 1.2273 0.945 2.9486 2.313 0.76 1.365-2.1887 10.606-21.553 10.606-21.553l-3.115-2.099z" fill="#C1694F"/>
 <path d="m128.63 18.368c-6.751 0-12.071-1.5845-14.071-2.5223-0.787-0.3681-1.125-1.3059-0.757-2.0926 0.368-0.7883 1.306-1.1266 2.093-0.7568 0.116 0.055 12.126 5.1545 26.043-0.1747 0.809-0.3131 1.722 0.0944 2.032 0.9063 0.311 0.8119-0.096 1.7213-0.907 2.0329-5.069 1.9416-10.052 2.6072-14.433 2.6072z" fill="#fff"/>
 <path d="m133.96 22.633-1.04 2.4294c1.097-0.0315 2.277-0.1338 3.279-0.2722l0.749-1.5263c-0.971 0.0173-1.945-0.1825-2.988-0.6309z" fill="#FFAC33"/>
 <path d="m130.53 30.601c-0.594 1.2272 0.945 2.9486 2.313 0.7599 0.453-0.7269 1.776-3.3498 3.338-6.525-0.926 0.1023-2.132 0.1904-3.268 0.2533-1.269 2.9644-2.236 5.2065-2.383 5.5118z" fill="#CC6F00"/>
 <path d="m155.52 15.14c-1.605-2.4891-8.492-12.106-8.788-12.52-0.295-0.41067-0.772-0.65612-1.279-0.65612-2.295 0-7.494-0.02518-11.38-0.04406-2.331-0.01101-4.191-0.02045-4.681-0.02045-1.02 0-1.857 0.6687-2.084 1.6663-0.528 2.3287 2.405 6.7516 12.418 11.554 6.633 3.1799 10.481 3.8486 12.54 3.8486 2.319 0 3.208-0.867 3.545-1.5939 0.337-0.7332 0.227-1.5593-0.291-2.2343z" fill="#77B255"/>
 <path d="m142.53 16.379c4.934 2.0895 7.99 2.5883 9.737 2.5883h1e-3c2.319 0 3.207-0.867 3.543-1.5939 0.339-0.7316 0.23-1.5577-0.289-2.2327-1.027-1.5939-4.218-6.1065-6.461-9.2581 1.278 4.0547 1.749 10.175-6.531 10.496z" fill="#5C913B"/>
 <path d="m145.75 5.3097c1.467 0 2.656-1.1891 2.656-2.656s-1.189-2.656-2.656-2.656-2.656 1.1891-2.656 2.656 1.189 2.656 2.656 2.656z" fill="#3E721D"/>
</svg>
