<svg version="1.1" viewBox="0 0 3891 598" xmlns="http://www.w3.org/2000/svg">
 <g transform="matrix(1.3333 0 0 -1.3333 0 598)" fill="#fff">
  <g>
   <path d="m499.59 421.26-0.196 0.035c-1.686 0-3.416-0.047-5.148-0.141-3.317-0.189-6.68-0.206-10.006 0.042-1.7 0.127-3.387 0.194-5.016 0.194-0.555 0-1.086-0.071-1.582-0.213-0.401-0.118-1.085-0.496-1.085-1.692 0-1.376 0.656-2.037 1.192-2.344 0.66-0.383 1.451-0.661 2.367-0.831 0.855-0.161 1.733-0.3 2.625-0.425 0.784-0.118 1.397-0.382 1.874-0.807 0.46-0.409 0.774-1.235 0.944-2.443 0.184-1.303 0.279-2.821 0.279-4.513 0-1.693-0.031-3.459-0.09-5.281-0.064-1.834-0.094-3.481-0.094-4.95v-20.259c0-1.837-0.189-3.64-0.564-5.394-0.55-3.144-1.334-5.821-2.321-7.952-0.979-2.094-2.247-3.834-3.781-5.151-1.534-1.326-3.428-2.289-5.639-2.861-2.243-0.59-4.981-0.885-8.141-0.885-2.644 0-5.082 0.284-7.24 0.838-2.101 0.538-3.947 1.511-5.481 2.896-1.541 1.393-2.797 3.322-3.729 5.748-0.956 2.448-1.563 5.646-1.818 9.487-0.123 1.916-0.201 3.88-0.229 5.84-0.035 1.952-0.042 3.906-0.042 5.858v17.427c0 0.94 7e-3 1.948 0.042 3.015 0.028 1.057 0.095 2.089 0.182 3.087 0.094 0.984 0.208 1.9 0.33 2.707 0.118 0.779 0.267 1.369 0.432 1.752 0.371 0.85 0.985 1.4 1.863 1.664 1.045 0.314 2.084 0.559 3.104 0.744 1.085 0.188 2.077 0.413 2.955 0.677 1.093 0.326 1.688 1.128 1.688 2.254 0 0.992-0.572 1.636-1.622 1.806-0.798 0.134-1.452 0.201-1.987 0.201-2.203 0-4.396-0.095-6.532-0.288-3.97-0.354-8.313-0.39-12.397 0-2.004 0.193-4.046 0.288-6.071 0.288-1.567 0-2.464-0.867-2.464-2.377 0-0.633 0.259-1.157 0.755-1.511 0.413-0.3 0.902-0.515 1.452-0.626 0.505-0.094 0.996-0.16 1.503-0.2 0.491-0.029 0.89-0.043 1.221-0.043h1.045c1.086 0 1.922-0.292 2.467-0.859 0.6-0.644 1.025-1.388 1.279-2.273 0.265-0.914 0.425-1.933 0.454-3.031 0.03-1.128 0.047-2.131 0.047-3.009 0-5.333-0.064-10.686-0.189-15.896-0.13-5.367-0.194-10.723-0.194-15.916v-3.51c0-0.578 0.017-1.157 0.052-1.735 0.031-0.585 0.078-1.157 0.142-1.728 0.39-3.741 1.341-6.873 2.828-9.335 1.492-2.458 3.432-4.464 5.769-5.958 2.318-1.487 4.997-2.547 7.964-3.161 2.927-0.609 6.054-0.909 9.298-0.909 2.733 0 5.563 0.206 8.419 0.614 2.861 0.425 5.675 1.157 8.373 2.165 3.109 1.239 5.556 3.026 7.256 5.311 1.669 2.252 2.943 4.808 3.774 7.615 0.833 2.785 1.334 5.747 1.494 8.797 0.159 3.05 0.236 5.988 0.236 8.743 0 1.704-0.018 3.416-0.047 5.12-0.03 1.706-0.047 3.406-0.047 5.103 0 1.9-0.012 4.107-0.047 6.638-0.031 2.513-0.031 4.938 0 7.274 0.035 2.33 0.141 4.36 0.33 6.048 0.248 2.259 0.638 2.537 0.673 2.554 0.135 0.083 0.531 0.243 1.629 0.396 0.925 0.128 1.916 0.312 2.924 0.532 1.051 0.229 1.99 0.547 2.793 0.944 1.201 0.611 1.456 1.492 1.456 2.129 0 0.614-0.302 1.463-1.711 1.964"/>
   <path d="m591.95 421.3c-1.581 0-3.215-0.047-5.004-0.142-3.621-0.205-7.48-0.182-10.96 0.055-2.018 0.118-4.071 0.177-6.094 0.177-0.597 0-1.164-0.126-1.683-0.385-0.449-0.229-0.977-0.72-0.977-1.799 0-1.31 0.729-2.12 2.063-2.282 1.062-0.126 2.261-0.208 3.564-0.244 1.232-0.03 2.424-0.205 3.538-0.542 0.963-0.284 1.558-0.992 1.825-2.184 0.182-0.736 0.283-1.534 0.326-2.346 0.021-0.81 0.04-1.652 0.04-2.533 0-4.926 0.016-9.852 0.052-14.779 0.03-4.895 0.011-9.869-0.052-14.767v-11.485c0.052-0.997-0.196-1.318-0.425-1.424-5.151 6.149-9.671 11.5-13.563 16.084-3.942 4.631-7.511 8.802-10.698 12.496-3.191 3.692-6.095 7.068-8.712 10.129-2.62 3.057-5.193 6.107-7.754 9.187-1.192 1.121-2.094 2.087-2.689 2.866-0.668 0.856-1.251 1.557-1.794 2.131-0.578 0.614-1.211 1.086-1.881 1.404-0.68 0.319-1.636 0.473-2.844 0.473-1.081 0-2.132-0.026-3.116-0.09-0.921-0.064-1.912-0.087-3.038-0.087-1.464 0-2.785 0.023-4.041 0.087-1.341 0.064-2.703 0.09-4.1 0.09-0.531 0-1.157-0.166-1.912-0.527-1.091-0.524-1.322-1.293-1.322-1.853 0-0.72 0.385-1.31 1.079-1.652 0.554-0.276 1.215-0.484 1.954-0.611 0.713-0.13 1.44-0.22 2.165-0.255 0.661-0.024 1.18-0.076 1.534-0.13 1.369-0.236 2.448-0.595 3.203-1.062 0.737-0.454 1.315-1.004 1.704-1.61 0.397-0.621 0.638-1.346 0.72-2.165 0.095-0.892 0.142-1.841 0.142-2.832 0-7.535-0.064-15.069-0.194-22.377l-0.377-22.408c0-0.869-0.031-1.777-0.095-2.714-0.059-0.89-0.224-1.728-0.484-2.491-0.255-0.731-0.656-1.357-1.18-1.853-0.512-0.488-1.258-0.819-2.183-0.977-0.496-0.071-1.11-0.113-1.853-0.141-0.831-0.043-1.556-0.107-2.224-0.201-0.748-0.102-1.397-0.29-1.947-0.578-0.661-0.354-1.02-0.963-1.02-1.747 0-0.956 0.501-1.624 1.424-1.884 0.729-0.205 1.354-0.307 1.902-0.307 2.115 0 4.256 0.066 6.385 0.192 3.907 0.236 7.752 0.276 11.663 0 1.872-0.126 3.729-0.192 5.528-0.192 0.378 0 0.786 0.074 1.228 0.22 0.613 0.208 0.963 0.684 0.963 1.315 0 0.814-0.321 1.463-0.945 1.93-0.538 0.395-1.097 0.661-1.694 0.808-1.764 0.385-3.31 0.606-4.584 0.68-1.126 0.051-2.052 0.295-2.762 0.72-0.654 0.394-1.154 1.189-1.492 2.358-0.359 1.27-0.543 3.344-0.543 6.182 0 4.728-0.035 9.116-0.099 13.034-0.059 3.751-0.106 7.239-0.142 10.466-0.03 3.215-0.077 6.324-0.141 9.326-0.066 3.121-0.095 6.35-0.095 9.593 0 0.696 0.041 1.4 0.123 2.101 1.039-0.944 1.995-1.995 2.856-3.151 1.122-1.509 2.231-2.901 3.298-4.148 3.847-4.494 7.251-8.471 10.218-11.927l3.175-3.699c3.628-4.237 6.649-7.73 9.043-10.508 2.396-2.786 4.26-4.938 5.582-6.485 1.334-1.557 2.314-2.69 2.939-3.415 0.63-0.72 1.02-1.18 1.178-1.362 0.177-0.213 0.307-0.354 0.326-0.366 1.888-2.36 3.639-4.501 5.355-6.543 1.801-2.153 3.619-4.301 5.429-6.43 0.194-0.248 0.432-0.555 0.72-0.909 0.295-0.354 0.583-0.684 0.874-1.022 0.335-0.354 0.661-0.642 0.996-0.878 0.342-0.243 0.703-0.366 1.074-0.366 0.106 0 0.208 5e-3 0.302 0.024 1.072 0.17 1.733 0.909 1.851 2.082 0.101 0.944 0.148 1.959 0.148 3.033 0 6.253 0.017 11.675 0.04 16.289 0.043 4.601 0.055 8.736 0.055 12.407v19.599c0 0.625 0.016 1.605 0.047 2.919 0.035 1.322 0.094 2.68 0.189 4.096 0.087 1.374 0.259 2.7 0.507 3.951 0.3 1.459 0.626 2.12 0.836 2.408 0.349 0.444 0.956 0.739 1.813 0.866 0.998 0.161 1.994 0.283 2.99 0.38 1.039 0.087 1.976 0.257 2.802 0.493 1.039 0.284 1.612 1.004 1.612 2.026 0 0.819-0.349 2.188-2.667 2.188"/>
   <path d="m625.21 398.83c0.088 4.034 0.135 8.012 0.135 11.852 0 1.117 0.038 2.101 0.101 2.892 0.052 0.708 0.26 1.291 0.63 1.77 0.362 0.465 0.964 0.807 1.783 1.032 0.89 0.228 2.183 0.354 3.821 0.354 0.94 0 1.778 0.106 2.481 0.306 0.529 0.147 1.414 0.631 1.414 2.165 0 0.267-0.071 0.585-0.229 0.991-0.17 0.409-0.331 0.668-0.515 0.85l-0.165 0.158h-8.471c-0.926 0-1.87-0.047-2.809-0.141-0.978-0.095-1.863-0.135-2.689-0.135-1.817 0-3.659 0.087-5.476 0.276-1.83 0.189-3.716 0.286-5.599 0.286h-1.043c-0.55 0-1.141-0.054-1.747-0.149-0.885-0.137-1.386-0.736-1.386-1.664 0-1.409 0.678-1.995 1.251-2.235 0.666-0.279 1.48-0.456 2.406-0.515 0.868-0.059 1.77-0.17 2.695-0.323 0.838-0.142 1.537-0.508 2.092-1.055 0.221-0.291 0.528-0.945 0.748-2.391 0.189-1.256 0.276-2.373 0.276-3.416v-1.799c0-1.581-0.017-3.151-0.047-4.721-0.033-1.586-0.047-3.196-0.047-4.843l-0.095-33.143v-1.99c0-1.157-0.075-2.389-0.236-3.668-0.134-1.133-0.465-1.912-0.996-2.337-0.562-0.507-1.251-0.85-2.106-1.05-0.944-0.225-1.829-0.409-2.679-0.56-0.856-0.16-1.628-0.361-2.313-0.597-1.156-0.413-1.331-1.256-1.331-1.723 0-0.989 0.453-1.711 1.279-2.018 0.654-0.234 1.346-0.366 2.047-0.366h1.322c1.933 0 3.679 0.12 5.202 0.337 2.797 0.413 6.609 0.43 10.273 0.043 2.747-0.29 5.433-0.427 8.212-0.137 1.203 0.118 1.9 0.897 1.9 2.141 0 0.486-0.196 1.334-1.476 1.695-0.727 0.193-1.553 0.366-2.466 0.524-0.909 0.16-1.853 0.33-2.833 0.524-0.873 0.167-1.555 0.474-2.039 0.897-0.645 0.602-1.046 1.47-1.192 2.584-0.149 1.228-0.224 2.349-0.224 3.333v24.143c0 3.977 0.047 7.959 0.141 11.823"/>
   <path d="m717.43 421.3c-1.433 0-2.891-0.076-4.324-0.241-3.234-0.378-6.827-0.278-10.289 0.095-2.101 0.221-4.195 0.33-6.218 0.33-0.656 0-1.234-0.22-1.718-0.668-0.501-0.46-0.748-1.032-0.748-1.704 0-1.216 0.696-2.037 1.964-2.325 1.05-0.225 2.207-0.394 3.422-0.524 1.185-0.118 2.266-0.366 3.227-0.732 0.484-0.177 1.133-0.585 1.133-2.006 0-0.177-0.095-0.862-0.968-3.565-0.656-2.041-1.515-4.529-2.549-7.416-1.043-2.901-2.184-6.041-3.404-9.416-1.232-3.373-2.431-6.579-3.593-9.605-1.168-3.026-2.211-5.721-3.132-8.087-0.979-2.549-1.577-4.048-1.924-4.843l-0.337-0.72c-0.146-0.326-0.324-0.649-0.519-0.963-0.177-0.272-0.359-0.496-0.583-0.708-0.189 0.224-0.685 0.963-1.771 3.422-0.932 2.113-2.046 4.754-3.304 7.842-1.261 3.085-2.595 6.448-4.023 10.076-1.411 3.628-2.754 7.084-4.017 10.372-1.263 3.274-2.365 6.189-3.309 8.748-0.945 2.549-1.577 4.291-1.896 5.24-0.059 0.182-0.118 0.378-0.182 0.59-0.047 0.166-0.07 0.312-0.07 0.454 0 0.755 0.288 1.187 0.925 1.387 0.833 0.27 1.787 0.435 2.837 0.494 1.128 0.059 2.155 0.16 3.033 0.283 1.589 0.231 1.823 1.235 1.823 1.813 0 0.732-0.3 1.374-0.867 1.858-0.547 0.467-1.185 0.703-1.893 0.703-2.266 0-4.496-0.094-6.626-0.286-3.599-0.311-7.369-0.458-11.004 0-1.504 0.192-3.05 0.286-4.619 0.286h-1.037c-0.696 0-1.392-0.113-2.124-0.361-1.157-0.383-1.393-1.157-1.393-1.735 0-1.074 0.548-1.822 1.546-2.113 0.779-0.229 1.665-0.434 2.713-0.63 0.998-0.182 2.001-0.465 2.986-0.826 0.897-0.331 1.581-1.003 2.089-2.077 3.186-6.626 6.111-13.403 8.695-20.17 2.585-6.784 5.205-13.594 7.858-20.413 1.452-3.6 2.939-7.256 4.462-10.981 1.503-3.727 2.99-7.391 4.442-10.979 0.13-0.347 0.342-0.712 0.637-1.128 0.359-0.488 0.878-0.753 1.504-0.753 0.715 0 1.192 0.182 1.47 0.571 0.194 0.267 0.359 0.614 0.489 1.027 2.301 5.646 4.596 11.415 6.826 17.139 2.153 5.552 4.447 11.316 6.815 17.132 1.421 3.487 2.837 6.874 4.206 10.072 1.433 3.345 2.819 6.749 4.124 10.082 0.189 0.448 0.453 1.133 0.807 2.065 0.343 0.897 0.727 1.823 1.129 2.762 0.41 0.944 0.788 1.834 1.137 2.66 0.338 0.784 0.595 1.334 0.749 1.598 0.502 0.72 1.085 1.192 1.793 1.435 0.779 0.277 1.547 0.472 2.278 0.595 0.803 0.137 1.504 0.342 2.089 0.614 0.52 0.248 1.138 0.814 1.138 2.136 0 0.496-0.142 0.961-0.437 1.381-0.335 0.465-0.842 0.713-1.468 0.713"/>
   <path d="m786.98 368.18c-0.72 0-1.417-0.536-2.144-1.636-0.613-0.93-1.255-2.011-1.912-3.215-0.646-1.161-1.362-2.358-2.117-3.562-0.713-1.121-1.48-1.954-2.278-2.471-0.458-0.286-1.048-0.51-1.775-0.685-0.755-0.184-1.586-0.326-2.478-0.415-0.907-0.092-1.863-0.17-2.866-0.234-0.998-0.066-1.9-0.097-2.71-0.097h-2.929c-0.574 0-1.513 0.019-2.835 0.055-1.315 0.028-2.684 0.077-4.105 0.141-1.357 0.055-2.695 0.158-3.977 0.324-1.461 0.184-2.148 0.408-2.441 0.55-0.597 0.323-1.026 0.779-1.322 1.397-0.325 0.684-0.566 1.423-0.715 2.226-0.146 0.819-0.24 1.65-0.269 2.471-0.031 0.843-0.049 1.605-0.049 2.302v14.955c0 0.26-0.012 0.709-0.048 1.355-0.028 0.586-0.011 1.199 0.043 1.813 0.059 0.595 0.153 1.145 0.276 1.617 0.094 0.394 0.243 0.413 0.331 0.43 0.231 0.059 0.609 0.118 1.116 0.177 0.519 0.059 1.062 0.106 1.622 0.137l0.177 4e-3c0.507 0.029 0.991 0.059 1.428 0.095 0.495 0.03 0.89 0.047 1.204 0.047 1.196 0 2.577 7e-3 4.128 0.047h0.566c1.306 0 2.58-0.094 3.782-0.278 1.341-0.206 2.514-0.607 3.493-1.166 0.897-0.515 1.445-1.27 1.657-2.309l0.078-0.182c0.147-0.248 0.284-0.715 0.402-1.357 0.122-0.736 0.264-1.475 0.429-2.207 0.165-0.767 0.378-1.433 0.649-2.054 0.437-0.989 1.098-1.196 1.57-1.196 0.63 0 1.121 0.219 1.452 0.649 0.288 0.366 0.465 0.826 0.543 1.362 0.07 0.491 0.087 0.986 0.051 1.499-0.028 0.455-0.04 0.838-0.04 1.144 0 1.327-0.035 2.649-0.094 3.954-0.071 1.339-0.106 2.649-0.106 3.904 0 1.31 0.04 2.628 0.106 3.942 0.059 1.339 0.094 2.668 0.094 4.013 0 0.713-0.035 1.386-0.101 2.047-0.092 0.925-0.72 1.463-1.709 1.463-0.892 0-1.353-0.432-1.577-0.791-0.241-0.366-0.46-0.743-0.654-1.14l-0.059-0.224c-0.111-1.709-0.562-3.18-1.322-4.353-0.736-1.133-1.94-1.829-3.675-2.112-1.659-0.248-3.38-0.39-5.127-0.425-1.763-0.024-3.498-0.047-5.204-0.047-0.39 0-0.867-0.019-1.44-0.048-0.555-0.03-1.131-0.03-1.697 0-0.591 0.029-1.098 0.102-1.547 0.225-0.33 0.078-0.578 0.2-0.748 0.37-0.097 0.444-0.144 1.022-0.144 1.719v2.176c0 2.141-9e-3 4.301-0.04 6.449-0.042 2.136-0.054 4.284-0.054 6.425 0 1.062 0.035 2.176 0.094 3.333 0.059 1.102 0.255 2.117 0.586 2.998 0.311 0.854 0.79 1.534 1.468 2.065 0.649 0.517 1.647 0.777 2.95 0.777h4.171c1.256 0 2.597-0.017 4.013-0.041 1.397-0.042 2.766-0.118 4.076-0.236 1.362-0.134 2.519-0.307 3.539-0.512 1.003-0.208 1.77-0.46 2.289-0.743 0.779-0.449 1.369-1.117 1.794-2.054 0.472-1.034 0.897-2.082 1.263-3.128 0.383-1.09 0.772-2.046 1.157-2.856 0.606-1.232 1.433-1.503 2.089-1.503h0.016c1.197 0.141 1.428 1.73 1.504 2.254 0.153 1.121 0.236 2.337 0.236 3.621 0 1.133 0.019 2.084 0.054 2.868 0.029 0.798 0.04 1.487 0.04 2.058 0 1.109-0.129 2.332-0.389 3.647-0.135 0.507-0.529 1.161-1.693 1.376-0.719 0.128-1.456 0.194-2.188 0.194h-1.038c-4.485 0-8.809-0.043-12.843-0.142-4.126-0.09-8.439-0.142-12.822-0.142-2.217 0-4.407 0.052-6.501 0.142-2.07 0.099-4.249 0.142-6.461 0.142-0.571 0-1.255 0.019-2.065 0.047-0.838 0.028-1.633 0-2.424-0.095-0.791-0.106-1.452-0.278-2.035-0.512-0.755-0.307-1.168-0.927-1.168-1.723 0-0.637 0.259-1.754 1.959-2.042 0.984-0.153 2.094-0.307 3.333-0.472 1.161-0.153 2.247-0.484 3.222-0.979 0.854-0.442 1.326-1.358 1.444-2.868 0.052-0.276 0.083-0.52 0.083-0.737v-2.561c0-5.115 0.036-10.195 0.095-15.251 0.059-4.89 0.094-10.01 0.094-15.239 0-1.581 0.028-3.432 0.099-5.556 0.054-2.106 0.09-4.202 0.09-6.277 0-2.006-0.095-3.859-0.283-5.516-0.173-1.612-0.496-2.769-0.94-3.434-0.505-0.72-1.237-1.27-2.2-1.629-0.996-0.39-2.065-0.72-3.186-0.975-1.072-0.252-2.04-0.5-2.885-0.765-1.31-0.425-1.586-1.152-1.586-1.692 0-1.69 0.979-2.042 1.57-2.096 0.712-0.064 1.428-0.095 2.136-0.095 0.96 0 1.905 0.031 2.832 0.095 0.902 0.064 1.787 0.094 2.665 0.094h44.69c1.275 0 2.231 0.468 2.85 1.393l0.077 0.201c0.449 2.018 0.808 3.639 1.091 4.871l0.81 3.506c0.247 1.09 0.398 1.728 0.417 1.81 0.078 0.149 0.159 0.397 0.336 1.164 0.12 0.531 0.165 0.784 0.188 0.92 0.272 0.583 0.357 1.185 0.243 1.78-0.089 0.468-0.448 1.235-1.845 1.235"/>
   <path d="m839.13 395.46c-0.873-1.827-2.077-3.281-3.592-4.318-1.542-1.057-3.392-1.789-5.512-2.183-2.165-0.401-4.518-0.602-6.996-0.602-1.067 0-1.846 0.083-2.314 0.248-0.488 0.165-0.63 0.418-0.689 0.595-0.137 0.373-0.184 0.85-0.153 1.435 0.028 0.673 0.047 1.492 0.047 2.443 0 2.519 0.023 5.356 0.094 8.505 0.059 3.158 0.095 6.014 0.095 8.537v3.222c0 1.362 0.299 2.396 0.897 3.067 0.394 0.45 1.392 0.986 3.916 0.986 2.266 0 4.371-0.325 6.26-0.956 1.852-0.637 3.493-1.581 4.855-2.806 1.357-1.247 2.443-2.793 3.222-4.591 0.784-1.823 1.185-3.982 1.185-6.402 0-2.927-0.449-5.339-1.315-7.18m27.535-44.66c-0.68 0.142-1.353 0.366-2.132 0.708-2.542 0.541-4.808 1.7-6.748 3.421-1.976 1.753-3.794 3.835-5.392 6.189-1.635 2.377-3.115 4.914-4.409 7.553-1.326 2.677-2.57 5.214-3.746 7.61-1.178 2.436-2.37 4.549-3.538 6.288-0.916 1.334-1.865 2.342-2.849 2.996 1.307 0.656 2.653 1.418 4.005 2.289 1.693 1.093 3.255 2.361 4.648 3.777 1.4 1.423 2.545 3.05 3.416 4.832 0.892 1.817 1.34 3.805 1.34 5.894 0 3.805-0.731 6.992-2.159 9.475-1.433 2.471-3.246 4.461-5.38 5.917-2.131 1.452-4.468 2.472-6.928 3.015-2.431 0.543-4.737 0.826-6.854 0.826-2.448 0-4.891-0.052-7.256-0.142-2.361-0.094-4.792-0.141-7.228-0.141h-8.236c-0.68 0-1.369 0.03-2.084 0.087-1.527 0.125-3.002 0.16-4.341-0.154-0.543-0.122-1.447-0.571-1.447-2.126 0-0.803 0.402-1.4 1.133-1.683 0.562-0.208 1.27-0.343 2.101-0.409 0.791-0.063 1.622-0.122 2.514-0.193 0.826-0.052 1.617-0.217 2.353-0.484 0.685-0.248 1.232-0.661 1.664-1.263 0.437-0.595 0.654-1.463 0.654-2.594 0-5.276-0.047-10.65-0.141-15.994-0.095-5.375-0.142-10.757-0.142-16.014v-19.504c0-1.197-0.224-2.141-0.659-2.802-0.455-0.677-1.045-1.22-1.746-1.61-0.732-0.408-1.518-0.691-2.332-0.833-0.879-0.17-1.709-0.307-2.495-0.425-0.796-0.13-1.476-0.283-2.023-0.453-1.015-0.319-1.169-1.046-1.169-1.445 0-1.133 0.201-1.765 0.649-2.053 0.359-0.231 0.949-0.331 1.924-0.331 1.952 0 3.935 0.095 5.875 0.288 4.041 0.397 8.295 0.354 12.43-0.047 2.231-0.224 4.544-0.33 6.881-0.33 1.345 0 2.33 0.101 3.014 0.307 0.508 0.153 1.351 0.637 1.351 2.166 0 0.753-0.395 1.303-1.079 1.492-0.477 0.147-1.003 0.217-1.582 0.217-0.377 0-0.5 0.043-0.5 0.043l-0.142 0.047c-1.274 0.253-2.431 0.442-3.453 0.571-0.942 0.118-1.744 0.35-2.405 0.697-0.621 0.318-1.093 0.826-1.452 1.541-0.373 0.737-0.555 1.898-0.555 3.432v19.512c0 1.852 0.217 2.513 0.347 2.735 0.078 0.142 0.42 0.472 1.818 0.472 2.141 0 3.946-0.535 5.382-1.591 1.491-1.092 2.806-2.497 3.934-4.17 1.138-1.695 2.177-3.612 3.074-5.725 0.913-2.14 1.928-4.253 2.979-6.229 1.916-4.98 4.749-9.264 8.431-12.715 3.687-3.468 8.323-5.71 13.811-6.683 0.441-0.066 0.984-0.125 1.629-0.191 0.642-0.064 1.298-0.106 1.952-0.106 1.652 0 2.832 0.144 3.6 0.42l0.217 0.137c0.696 0.701 1.022 1.286 1.022 1.827 0 0.498-0.201 1.369-1.546 1.659"/>
   <path d="m911.43 387.79c-2.152 1.385-4.673 2.766-7.492 4.105-2.785 1.31-5.464 2.757-7.947 4.279-2.46 1.504-4.565 3.251-6.265 5.184-1.629 1.876-2.455 4.09-2.455 6.578 0 1.624 0.3 3.104 0.897 4.407 0.595 1.306 1.421 2.42 2.453 3.305 1.038 0.89 2.284 1.586 3.689 2.065 1.409 0.477 2.925 0.725 4.501 0.725 1.893 0 3.794-0.63 5.639-1.893 1.849-1.244 3.274-3.038 4.278-5.399 0.342-0.561 0.601-1.251 0.786-2.053 0.188-0.85 0.382-1.681 0.571-2.472 0.189-0.795 0.425-1.515 0.696-2.136 0.59-1.338 1.416-1.156 1.988-1.263 0.656-0.188 1.439-0.2 1.978 0.331 0.276 0.267 0.472 0.708 0.649 1.511 0.248 3.297 0.347 6.625 0.283 9.883 0 0.677 0.045 1.492 0.135 2.405 0.094 0.956 0.148 1.895 0.148 2.804 0 0.914-0.071 1.716-0.2 2.382-0.248 1.234-0.999 1.416-1.424 1.416-1.121 0-1.987-0.354-2.577-1.062-0.508-0.614-0.928-1.256-1.251-1.905-0.288-0.578-0.583-1.02-0.89-1.322-0.102-0.099-0.243-0.2-0.845 0.13-1.162 0.708-2.59 1.421-4.254 2.125-1.704 0.719-3.281 1.085-4.671 1.085-2.887 0-5.677-0.436-8.278-1.305-2.613-0.871-4.926-2.153-6.867-3.805-1.954-1.657-3.51-3.727-4.65-6.158-1.133-2.436-1.711-5.252-1.711-8.342 0-3.51 0.85-6.508 2.521-8.897 1.645-2.348 3.711-4.437 6.146-6.201 2.42-1.753 5.073-3.34 7.901-4.732 2.783-1.386 5.391-2.873 7.744-4.419 2.333-1.539 4.313-3.314 5.878-5.273 1.522-1.905 2.29-4.308 2.29-7.122 0-1.928-0.314-3.67-0.945-5.169-0.644-1.511-1.541-2.814-2.667-3.876-1.133-1.079-2.483-1.917-4.013-2.483-1.527-0.571-3.231-0.862-5.049-0.862-2.478 0-4.902 0.654-7.197 1.959-2.284 1.292-3.989 3.133-5.07 5.481-0.293 0.595-0.552 1.322-0.76 2.153-0.224 0.885-0.425 1.723-0.614 2.507-0.193 0.805-0.429 1.518-0.701 2.101-0.443 0.944-1.097 1.14-1.569 1.14-0.154 0-0.302 0.023-0.461 0.075-0.618 0.173-1.38 0.177-1.952-0.311-0.337-0.295-0.538-0.786-0.625-1.534-0.125-1.617-0.208-3.128-0.243-4.474-0.036-1.331-0.04-2.825-0.04-4.47 0-0.668-0.048-1.553-0.142-2.703-0.102-1.197-0.149-2.294-0.149-3.356 0-1.098 0.066-2.071 0.201-2.885 0.231-1.459 0.991-1.676 1.423-1.676 1.114 0 1.922 0.253 2.476 0.772 0.479 0.441 0.897 0.963 1.247 1.553 0.288 0.496 0.602 0.942 0.932 1.343 0.489 0.567 1.846 0.531 3.227-0.028 0.79-0.319 1.645-0.649 2.565-0.991 0.897-0.343 1.894-0.685 2.975-1.015 1.102-0.331 2.294-0.496 3.538-0.496 3.312 0.066 6.413 0.566 9.21 1.499 2.814 0.937 5.269 2.33 7.311 4.147 2.041 1.806 3.651 4.088 4.784 6.784 1.126 2.686 1.705 5.837 1.705 9.371-0.064 3.302-0.867 6.437-2.385 9.345-1.527 2.925-3.679 5.316-6.406 7.138"/>
   <path d="m954.22 398.83c0.094 3.881 0.141 7.87 0.141 11.852 0 1.117 0.036 2.101 0.095 2.892 0.054 0.708 0.26 1.291 0.632 1.77 0.359 0.46 0.961 0.807 1.78 1.032 0.893 0.228 2.184 0.354 3.824 0.354 0.937 0 1.775 0.106 2.479 0.306 0.535 0.147 1.416 0.631 1.416 2.165 0 0.267-0.071 0.585-0.231 0.991-0.17 0.409-0.331 0.668-0.513 0.85l-0.165 0.158h-8.474c-0.925 0-1.869-0.047-2.806-0.141-0.98-0.095-1.865-0.135-2.691-0.135-1.811 0-3.657 0.087-5.474 0.276-1.83 0.189-3.711 0.286-5.599 0.286h-1.046c-0.543 0-1.138-0.054-1.747-0.149-0.878-0.137-1.385-0.736-1.385-1.664 0-1.409 0.68-1.995 1.251-2.235 0.666-0.279 1.48-0.456 2.408-0.515 0.873-0.059 1.775-0.17 2.695-0.323 0.819-0.142 1.546-0.52 2.089-1.055 0.224-0.291 0.531-0.945 0.748-2.391 0.189-1.256 0.279-2.373 0.279-3.416v-1.799c0-1.581-0.019-3.151-0.047-4.721-0.036-1.581-0.047-3.196-0.047-4.843l-0.095-33.143v-1.99c0-1.157-0.078-2.389-0.236-3.668-0.137-1.133-0.467-1.912-0.998-2.337-0.555-0.503-1.263-0.85-2.113-1.05-0.937-0.225-1.827-0.409-2.672-0.56-0.847-0.16-1.622-0.354-2.311-0.597-1.156-0.413-1.334-1.256-1.334-1.723 0-0.989 0.454-1.711 1.28-2.018 0.654-0.234 1.345-0.366 2.046-0.366h1.329c1.929 0 3.675 0.12 5.198 0.337 2.79 0.413 6.607 0.425 10.27 0.043 2.75-0.29 5.434-0.427 8.212-0.137 1.204 0.123 1.9 0.902 1.9 2.141 0 0.486-0.188 1.334-1.475 1.695-0.72 0.193-1.551 0.366-2.467 0.524-0.913 0.16-1.85 0.33-2.825 0.524-0.878 0.167-1.57 0.474-2.047 0.897-0.642 0.602-1.043 1.463-1.184 2.584-0.154 1.223-0.232 2.342-0.232 3.333v24.143c0 4.053 0.047 8.03 0.142 11.823"/>
   <path d="m1038.6 424.9c-0.37 0-0.89-0.153-1.35-0.885-0.24-0.401-0.54-0.845-0.92-1.341-0.34-0.453-0.75-0.901-1.24-1.331-0.41-0.366-0.96-0.602-1.59-0.708-0.92-0.125-1.88-0.196-2.82-0.231-4.12-0.123-7.96-0.064-11.65-0.142-6.24-0.146-13.57-0.123-20.372 0.047-3.817 0.09-7.728 0.232-11.623 0.425-0.83 0.054-1.48 0.236-1.935 0.562-0.484 0.342-0.866 0.696-1.15 1.06-0.306 0.401-0.573 0.75-0.783 1.069-0.425 0.595-0.928 0.713-1.275 0.713-0.98 0-1.754-0.253-2.297-0.767-0.512-0.477-0.897-1.084-1.149-1.792-0.236-0.673-0.39-1.44-0.456-2.273l-0.023-0.33c-0.057-0.661-0.111-1.292-0.163-1.893-0.314-3.244-0.72-5.776-1.211-7.523-0.519-1.83-0.779-3.333-0.779-4.459 0-0.885 0.224-1.499 0.684-1.872 0.432-0.342 1.011-0.507 1.787-0.507 0.508 0 0.963 0.436 1.683 1.605 0.567 0.939 1.126 1.954 1.669 3.016 0.578 1.103 1.105 2.165 1.61 3.18 0.602 1.192 0.944 1.657 1.116 1.827 1.185 1.128 2.432 1.895 3.699 2.278 1.298 0.396 2.656 0.59 4.041 0.59h5.878c1.496 0 2.899-0.106 4.159-0.324 1.18-0.196 1.66-0.507 1.71-0.724 0.06-0.267 0.1-0.81 0.13-1.653 0.03-0.849 0.05-1.423 0.05-1.742v-45.823c0-1.739-0.1-3.203-0.27-4.36-0.18-1.102-0.53-2.022-1.04-2.738-0.5-0.689-1.26-1.237-2.26-1.645-1.035-0.413-2.463-0.72-4.327-0.913-0.135-0.043-0.437-0.083-1.086-0.083-0.697 0-1.369-0.118-2.011-0.373-0.562-0.217-1.221-0.748-1.221-2.006 0-1.402 0.914-1.662 1.322-1.709 0.553-0.066 1.095-0.102 1.622-0.102 2.278 0 4.565 0.078 6.811 0.243 4.52 0.319 9.7 0.288 14.23-7e-3 2.49-0.158 5.03-0.236 7.56-0.236 0.78 0 1.46 0.036 1.97 0.102 0.77 0.106 1.16 0.842 1.16 2.181 0 0.621-0.28 1.683-2.17 1.907l-3.75 0.425c-1.32 0.146-2.6 0.512-3.78 1.086-1.09 0.512-1.76 1.543-2.05 3.125-0.18 0.979-0.29 1.966-0.32 2.943-0.03 1.004-0.05 2.014-0.05 2.998 0.13 5.594 0.11 11.217-0.05 16.703-0.15 5.516-0.16 11.108-0.04 16.631l0.19 11.557c0 1.416 0.07 2.471 0.23 3.158 0.17 0.796 0.38 1.103 0.5 1.221 0.14 0.146 0.29 0.212 0.52 0.212h0.01c0.83-0.078 1.74-0.066 3.21 0 1.75 0.076 4.13 0.064 6.51-0.101 1.41-0.088 2.74-0.248 3.96-0.461 1.21-0.21 2.25-0.547 3.1-0.991 0.79-0.401 1.32-0.925 1.58-1.544 0.34-0.868 0.49-1.794 0.43-2.78-0.06-1.067-0.15-2.052-0.24-2.96-0.1-0.992-0.08-1.79 0.07-2.455 0.1-0.503 0.49-1.353 1.88-1.353 1.23 0 2.1 0.845 2.6 2.502 0.41 1.412 0.74 3.099 0.97 5.016 0.21 1.881 0.4 3.845 0.56 5.847 0.14 1.905 0.44 3.463 0.86 4.631 0.31 0.815 0.29 1.711-0.04 2.653-0.24 0.739-0.9 1.624-2.58 1.624"/>
   <path d="m1124.4 420.87c-0.81 0.347-1.7 0.524-2.65 0.524-1.64 0-3.3-0.111-4.96-0.342-2.92-0.402-6.11-0.425-9.07-0.048-1.45 0.196-2.95 0.291-4.43 0.291-0.69 0-1.23-0.054-1.62-0.161-0.64-0.17-0.96-0.79-0.96-1.834 0-1.168 0.65-1.928 1.81-2.136 0.91-0.165 1.91-0.276 2.95-0.335 1.03-0.066 1.94-0.231 2.75-0.503 0.43-0.134 0.93-0.43 0.93-1.44-0.01-0.059-0.11-0.418-1.05-1.905-0.75-1.173-1.69-2.596-2.88-4.336-1.17-1.704-2.44-3.55-3.83-5.533-1.45-2.077-2.76-3.899-4.02-5.575-1.29-1.735-2.42-3.257-3.4-4.544-0.96-1.267-1.63-2.094-1.99-2.448-0.11-0.118-0.27-0.266-0.48-0.443-0.09-0.081-0.17-0.135-0.24-0.175-0.1 0.064-0.18 0.134-0.24 0.21-0.16 0.231-0.34 0.467-0.54 0.739-1.64 2.023-3.23 4.128-4.71 6.264-1.52 2.179-3.03 4.372-4.56 6.598-0.57 0.76-1.28 1.692-2.14 2.802-0.8 1.05-1.62 2.188-2.43 3.38-0.81 1.185-1.48 2.266-2.06 3.316-0.54 0.977-0.82 1.775-0.82 2.37 0 0.602 0.23 0.881 0.84 0.992 0.88 0.153 1.82 0.243 2.8 0.271 1.06 0.031 2.06 0.13 2.98 0.295 1.16 0.208 1.8 0.998 1.8 2.226 0 0.524-0.33 1.008-0.97 1.433-0.58 0.389-1.07 0.571-1.5 0.571-2.43 0-4.92-0.111-7.39-0.335-4.06-0.373-8.36-0.543-12.32 0.04-1.73 0.26-3.51 0.389-5.29 0.389-0.51 0-0.99-0.035-1.51-0.099-0.34-0.054-1.15-0.314-1.15-1.617 0-0.949 0.51-1.633 1.44-1.923 0.67-0.218 1.5-0.437 2.56-0.678 0.92-0.208 1.9-0.519 2.98-0.968 0.96-0.396 1.77-1.057 2.4-1.971 3.42-4.938 6.85-9.8 10.19-14.448 3.44-4.796 6.87-9.652 10.18-14.436 0.69-0.992 1.06-2.066 1.12-3.286 0.06-1.376 0.09-3.021 0.09-4.905v-8.328c0-1.133-0.02-2.325-0.04-3.583-0.04-1.326-0.1-2.476-0.2-3.522-0.09-1.062-0.22-2.023-0.4-2.849-0.18-0.767-0.39-1.31-0.63-1.581-0.6-0.666-1.43-1.079-2.46-1.244-1.16-0.184-2.29-0.361-3.39-0.519-1.16-0.161-2.13-0.437-2.88-0.815-0.54-0.271-1.37-0.968-0.88-2.561 0.03-0.519 0.33-0.897 0.82-1.031 0.31-0.066 0.57-0.109 0.79-0.109 2.28 0 4.58 0.12 6.83 0.338 4.56 0.448 9.41 0.413 14.1 0 2.49-0.218 5.01-0.338 7.48-0.338 1.14 0 1.67 0.526 1.93 0.958 0.3 0.517 0.45 1.133 0.45 1.799l-0.04 0.217c-0.33 0.803-0.92 1.334-1.73 1.534-0.65 0.154-1.41 0.26-2.35 0.296-0.84 0.035-1.71 0.082-2.63 0.148-0.84 0.052-1.61 0.26-2.29 0.595-0.65 0.331-1.18 0.885-1.64 1.707-0.46 0.826-0.69 2.053-0.69 3.651v18.837c0 1.293 0.36 2.674 1.05 4.111 0.69 1.452 1.58 2.934 2.68 4.398 1.09 1.468 2.26 2.925 3.47 4.324 1.33 1.535 2.44 2.854 3.39 4.053 2.2 2.837 4.4 5.679 6.58 8.519 2.1 2.736 4.37 5.54 6.75 8.313 0.63 0.742 1.32 1.256 2.04 1.532 0.77 0.303 1.53 0.515 2.24 0.638 0.78 0.125 1.49 0.266 2.15 0.436 0.78 0.189 1.36 0.633 1.7 1.31 0.26 0.579 0.32 1.103 0.15 1.551-0.15 0.402-0.48 0.715-0.96 0.928"/>
   <path d="m1197.5 372.14c-0.04-2.797-0.51-5.474-1.39-7.964-0.88-2.474-2.27-4.638-4.16-6.456-1.85-1.799-4.44-2.995-7.67-3.569-1.27-0.236-2.49-0.354-3.63-0.354-1.86 0-3.59 0.319-5.12 0.939-2.5 1.004-4.65 2.512-6.4 4.483-1.77 1.99-3.21 4.319-4.3 6.925-1.1 2.644-1.87 5.311-2.31 7.931-0.49 2.543-0.73 5.222-0.71 7.969 0.03 2.722 0.47 5.299 1.34 7.684 0.84 2.353 2.22 4.442 4.1 6.182 1.87 1.734 4.47 2.919 7.75 3.533 1.24 0.231 2.44 0.342 3.57 0.342 1.68 0 3.28-0.255 4.73-0.76 2.45-0.861 4.62-2.214 6.43-4.024 1.83-1.834 3.37-4.065 4.55-6.619 1.21-2.585 2.09-5.335 2.62-8.176 0.45-2.545 0.65-5.26 0.6-8.066m0.98 24.036c-2.47 2.295-5.36 4.098-8.61 5.363-3.26 1.268-6.75 1.917-10.4 1.917-3.79 0-7.33-0.696-10.52-2.058-3.19-1.365-6-3.277-8.34-5.682-2.34-2.408-4.18-5.292-5.48-8.585-1.28-3.281-1.94-6.885-1.94-10.709 0-3.822 0.65-7.391 1.91-10.613 1.28-3.215 3.08-6.04 5.34-8.401 2.27-2.365 5.03-4.23 8.2-5.551 3.18-1.322 6.68-1.988 10.42-1.988 3.79 0 7.4 0.737 10.73 2.195 3.32 1.45 6.26 3.444 8.74 5.916 2.47 2.471 4.43 5.398 5.84 8.703 1.42 3.309 2.13 6.854 2.13 10.553 0 3.883-0.72 7.471-2.16 10.667-1.44 3.198-3.41 5.977-5.86 8.273"/>
   <path d="m1246.8 402.16c-0.07 0-0.25 5e-3 -0.5 0.028-0.29 0.024-0.62 0.038-1 0.038h-1.5c-2.09 0-4.16-0.014-6.21-0.038-2.05-0.023-4.11-0.028-6.19-0.028h-10.57c-0.37 0-1.03 5e-3 -2 0.028-0.99 0.024-2.02 0.038-3.12 0.038-1.19 0-2.11-0.014-2.78-0.038-0.71-0.023-1.26-0.099-1.67-0.229-0.5-0.165-0.81-0.408-0.98-0.738-0.13-0.272-0.19-0.572-0.19-0.937 0-0.669 0.35-1.15 0.95-1.334 0.4-0.135 0.88-0.206 1.47-0.236 0.52-0.024 1.09-0.052 1.69-0.095 0.54-0.047 1.04-0.177 1.5-0.389 0.42-0.201 0.79-0.548 1.09-1.02 0.3-0.467 0.45-1.208 0.45-2.183 0-4.355 0.04-8.743 0.11-13.441 0.06-4.227 0.1-8.618 0.1-13.414v-2.526c0-0.814-0.01-1.711-0.03-2.679-0.03-0.972-0.07-1.923-0.11-2.849-0.04-0.913-0.11-1.728-0.2-2.443-0.1-0.866-0.22-1.189-0.3-1.357-0.29-0.729-0.81-1.138-1.7-1.303-0.22-0.071-0.59-0.146-1.14-0.212-0.57-0.071-1.14-0.147-1.7-0.241-0.61-0.106-1.15-0.272-1.58-0.496-0.82-0.401-0.95-1.034-0.95-1.369 0-0.795 0.48-1.327 1.26-1.433 0.53-0.071 0.99-0.101 1.37-0.101 1.3 0 2.61 0.082 3.86 0.24 2.74 0.35 5.87 0.267 8.77 0 1.68-0.158 3.39-0.24 5.1-0.24h0.68c0.52 0 1.04 0.087 1.53 0.271 0.66 0.248 1.03 0.737 1.03 1.398 0 0.908-0.52 1.534-1.47 1.758-0.71 0.161-1.54 0.295-2.47 0.382-0.87 0.097-1.74 0.267-2.58 0.522-0.73 0.234-1.25 0.689-1.62 1.473 0 0-0.06 0.113-0.08 0.531-0.03 0.42-0.05 0.892-0.11 1.416-0.04 0.508-0.06 1.022-0.06 1.547v3.002c0 2.049 0.02 4.06 0.06 6.059 0.06 2.007 0.08 4.03 0.08 6.078 0 0.328 0.12 0.454 0.25 0.543 0.27 0.182 0.59 0.293 0.99 0.354 0.44 0.064 0.89 0.081 1.36 0.057 0.51-0.024 0.92-0.033 1.25-0.033h1.84c1.03 0 2.19-0.031 3.44-0.102 1.22-0.066 2.13-0.205 2.74-0.42 0.86-0.229 1.46-0.661 1.84-1.296 0.44-0.75 0.76-1.498 0.97-2.225l0.61-2.146c0.34-1.199 1.1-1.376 1.51-1.376 0.65 0 1.01 0.318 1.19 0.585 0.21 0.3 0.36 0.661 0.44 1.079 0.08 0.425 0.1 0.807 0.08 1.161-0.03 0.331-0.04 0.626-0.04 0.892 0 1.027-0.03 2.023-0.1 2.972-0.07 0.892-0.11 1.837-0.11 2.887 0 0.991 0.03 1.964 0.08 2.903 0.04 0.966 0.07 1.952 0.07 2.96 0 0.291-0.04 0.654-0.12 1.051-0.12 0.807-0.67 1.102-1.15 1.102-0.95 0-1.42-0.47-1.66-0.866-0.25-0.437-0.45-0.94-0.61-1.558-0.12-0.531-0.29-1.109-0.49-1.733-0.17-0.545-0.46-1.015-0.85-1.406-0.25-0.241-0.64-0.447-1.15-0.6-0.58-0.172-1.24-0.314-2.04-0.432-0.76-0.099-1.55-0.165-2.42-0.189-0.85-0.028-1.67-0.035-2.43-0.035h-2.46c-0.51 0-0.99-0.017-1.43-0.043l-0.19-4e-3c-0.28 0-0.53 0.042-0.75 0.118-0.21 0.066-0.37 0.207-0.51 0.432-0.09 0.141-0.23 0.5-0.23 1.303 0 2.046 0 4.088-0.03 6.141-0.02 2.042-0.03 4.089-0.03 6.13 0 0.89 0.06 1.721 0.17 2.479 0.09 0.623 0.46 1.149 1.11 1.593 0.27 0.163 0.85 0.383 2.06 0.536 1.09 0.135 2.03 0.201 2.9 0.201h1.5c0.49 0 1.15-0.019 1.99-0.043 0.83-0.023 1.69-0.059 2.57-0.13 0.88-0.063 1.72-0.146 2.53-0.236 0.77-0.087 1.36-0.212 1.78-0.37 0.85-0.314 1.42-0.81 1.75-1.511 0.36-0.798 0.63-1.598 0.78-2.384 0.15-0.873 0.33-1.617 0.52-2.264 0.25-0.892 0.9-1.376 1.85-1.376 0.58 0 0.9 0.26 1.08 0.496 0.19 0.26 0.32 0.578 0.38 0.937 0.05 0.302 0.07 0.626 0.07 0.987v0.885c0 0.354 0.01 0.968 0.04 1.822 0.02 0.873 0.02 1.752 0 2.66-0.03 0.885-0.08 1.712-0.17 2.439-0.09 0.677-0.28 1.48-1.06 1.633"/>
   <path d="m1347.3 415.99c0.15 1.924 0.44 3.482 0.87 4.626 0.29 0.82 0.28 1.716-0.05 2.661-0.25 0.736-0.91 1.621-2.59 1.621-0.36 0-0.89-0.16-1.34-0.892-0.25-0.399-0.55-0.843-0.91-1.331-0.35-0.461-0.77-0.904-1.24-1.322-0.43-0.378-0.96-0.614-1.59-0.72-0.94-0.123-1.89-0.201-2.84-0.229-4.11-0.137-7.96-0.066-11.64-0.142-6.24-0.153-13.57-0.129-20.38 0.048-3.81 0.087-7.72 0.229-11.62 0.424-0.83 0.052-1.48 0.241-1.93 0.56-0.49 0.342-0.88 0.696-1.16 1.062-0.3 0.401-0.57 0.748-0.78 1.067-0.43 0.597-0.93 0.72-1.28 0.72-0.97 0-1.74-0.26-2.29-0.772-0.52-0.484-0.9-1.086-1.14-1.794-0.24-0.673-0.4-1.44-0.46-2.278-0.06-0.783-0.12-1.522-0.19-2.218-0.31-3.232-0.72-5.758-1.21-7.521-0.52-1.865-0.78-3.328-0.78-4.468 0-0.883 0.23-1.492 0.69-1.863 0.42-0.342 1-0.507 1.78-0.507 0.51 0 0.97 0.437 1.68 1.61 0.57 0.937 1.14 1.952 1.67 3.009 0.58 1.11 1.11 2.165 1.62 3.18 0.6 1.192 0.94 1.657 1.12 1.829 1.18 1.126 2.42 1.889 3.69 2.276 1.29 0.391 2.66 0.592 4.04 0.592h5.88c1.5 0 2.89-0.108 4.16-0.326 1.53-0.247 1.69-0.653 1.71-0.731 0.06-0.319 0.1-1.055 0.13-1.646 0.03-0.845 0.04-1.423 0.04-1.739v-45.823c0-1.731-0.09-3.194-0.27-4.36-0.17-1.1-0.52-2.018-1.04-2.738-0.5-0.692-1.26-1.251-2.25-1.648-1.04-0.411-2.46-0.717-4.33-0.918-0.14-0.036-0.44-0.078-1.09-0.078-0.69 0-1.36-0.125-2.01-0.373-0.56-0.224-1.22-0.744-1.22-2.004 0-1.409 0.92-1.671 1.32-1.711 0.56-0.064 1.1-0.102 1.63-0.102 2.27 0 4.56 0.078 6.8 0.236 4.52 0.326 9.72 0.295 14.23 0 2.49-0.158 5.04-0.236 7.56-0.236 0.79 0 1.47 0.031 1.98 0.102 0.77 0.106 1.16 0.842 1.16 2.183 0 0.614-0.28 1.681-2.17 1.9l-3.75 0.43c-1.32 0.146-2.6 0.512-3.79 1.086-1.09 0.512-1.76 1.534-2.04 3.125-0.18 0.956-0.29 1.943-0.33 2.946-0.03 0.996-0.04 2.011-0.04 2.99 0.13 5.529 0.11 11.139-0.05 16.708-0.16 5.422-0.17 11.02-0.04 16.631l0.18 11.557c0 1.423 0.08 2.478 0.23 3.151 0.17 0.803 0.39 1.11 0.5 1.228 0.16 0.153 0.31 0.224 0.53 0.219 0.83-0.082 1.75-0.066 3.21-7e-3 1.76 0.071 4.14 0.064 6.51-0.099 1.41-0.097 2.75-0.25 3.97-0.46 1.2-0.215 2.24-0.55 3.1-0.987 0.78-0.406 1.31-0.932 1.57-1.551 0.35-0.861 0.49-1.801 0.43-2.773-0.05-1.074-0.14-2.054-0.23-2.967-0.1-0.992-0.09-1.794 0.06-2.455 0.1-0.508 0.49-1.358 1.89-1.358 0.84 0 1.98 0.444 2.59 2.51 0.41 1.385 0.74 3.078 0.97 5.018 0.22 1.907 0.41 3.878 0.57 5.842"/>
   <path d="m1386.8 387.32c-0.12-0.031-0.21-0.059-0.29-0.106-3.89 0-6.89-0.012-9.04-0.047-2.17-0.031-3.8-0.048-4.86-0.048h-1.69l2.78 6.685c0.83 1.952 1.56 3.723 2.19 5.309 0.63 1.569 1.26 3.099 1.89 4.572 0.5 1.192 1.09 2.549 1.75 4.079 0.14-0.357 0.32-0.822 0.53-1.435 0.54-1.516 1.18-3.357 1.94-5.54 0.77-2.177 1.58-4.513 2.47-7.008 0.8-2.271 1.58-4.424 2.33-6.461m30.66-31.989c-0.78 0.225-1.7 0.437-2.7 0.633-0.98 0.177-1.99 0.453-3 0.826-0.89 0.319-1.57 1.001-2.08 2.07-3.21 6.666-6.3 13.445-9.17 20.147-2.86 6.625-5.66 13.499-8.33 20.443-1.45 3.598-2.94 7.256-4.46 10.986-1.51 3.722-2.99 7.379-4.45 10.99-0.14 0.342-0.35 0.715-0.63 1.116-0.37 0.489-0.89 0.753-1.51 0.753-0.7 0-1.2-0.193-1.47-0.578-0.2-0.276-0.37-0.635-0.49-1.012-2.34-5.76-4.67-11.458-7.01-17.14-2.33-5.681-4.66-11.398-7-17.146l-4.12-10.074c-1.36-3.321-2.7-6.685-4.03-10.084-0.18-0.441-0.46-1.126-0.8-2.054-0.35-0.908-0.72-1.829-1.13-2.771l-1.18-2.691c-0.44-1.01-0.67-1.392-0.82-1.581-0.48-0.763-1.06-1.251-1.72-1.464-0.76-0.24-1.5-0.429-2.19-0.547-0.78-0.137-1.45-0.343-2.02-0.621-0.48-0.253-1.07-0.819-1.07-2.129 0-0.496 0.15-0.968 0.44-1.369 0.23-0.331 0.67-0.732 1.46-0.732 1.44 0 2.79 0.083 4.01 0.255 2.84 0.371 6.49 0.271 9.95-0.106 2.13-0.22 4.22-0.331 6.22-0.331 0.65 0 1.23 0.225 1.72 0.673 0.48 0.453 0.75 1.039 0.75 1.704 0 1.221-0.7 2.047-1.97 2.318-0.99 0.224-2.11 0.39-3.43 0.531-1.17 0.118-2.26 0.366-3.21 0.72-0.49 0.189-1.14 0.595-1.14 2.018 0 0.114 0.06 0.583 0.59 2.495 0.41 1.459 0.97 3.265 1.65 5.375 0.69 2.117 1.53 4.513 2.5 7.122 0.92 2.459 1.94 5.025 3.05 7.61 0.73 0.141 1.64 0.247 2.69 0.299 2.5 0.133 5.13 0.114 7.53 0.043 1.24-0.024 2.24-0.043 2.99-0.043h1.81c0.99 0 2.03-0.044 3.06-0.134 0.87-0.087 1.52-0.335 1.92-0.737 0.03-0.023 0.13-0.153 0.4-0.767 0.23-0.519 0.5-1.097 0.81-1.695 0.94-2.27 1.85-4.489 2.74-6.625 0.88-2.141 1.67-4.1 2.36-5.864l1.8-4.588c0.49-1.251 0.83-2.203 1.03-2.852l0.18-0.602c0.06-0.181 0.07-0.33 0.07-0.46 0-1.039-0.48-1.308-0.9-1.433-0.84-0.236-1.77-0.389-2.86-0.453-1.11-0.059-2.13-0.153-3.03-0.283-1.58-0.224-1.83-1.228-1.83-1.801 0-0.737 0.31-1.379 0.87-1.858 0.55-0.472 1.18-0.713 1.9-0.713 2.23 0 4.45 0.099 6.63 0.284 3.63 0.318 7.31 0.472 11 0 1.52-0.185 3.08-0.284 4.62-0.284h1.04c0.68 0 1.4 0.118 2.13 0.366 1.2 0.401 1.38 1.256 1.38 1.728 0 1.074-0.55 1.822-1.55 2.117"/>
   <path d="m1467.6 395.46c-0.86-1.834-2.07-3.286-3.58-4.318-1.54-1.057-3.4-1.789-5.51-2.183-2.17-0.401-4.52-0.602-6.99-0.602-1.07 0-1.85 0.083-2.32 0.248-0.49 0.165-0.63 0.418-0.69 0.602-0.14 0.354-0.19 0.831-0.16 1.428 0.03 0.673 0.05 1.492 0.05 2.443 0 2.519 0.03 5.356 0.1 8.505 0.05 3.158 0.09 6.014 0.09 8.537v3.222c0 1.362 0.31 2.396 0.9 3.067 0.39 0.45 1.39 0.986 3.92 0.986 2.26 0 4.36-0.325 6.25-0.956 1.86-0.637 3.5-1.581 4.86-2.806 1.36-1.247 2.45-2.793 3.23-4.591 0.78-1.83 1.18-3.982 1.18-6.402 0-2.927-0.45-5.339-1.33-7.18m27.54-44.66c-0.67 0.142-1.35 0.366-2.13 0.708-2.54 0.541-4.8 1.7-6.74 3.421-1.98 1.753-3.79 3.835-5.4 6.189-1.61 2.348-3.09 4.891-4.41 7.553-1.32 2.677-2.57 5.214-3.74 7.61-1.2 2.479-2.36 4.53-3.54 6.288-0.93 1.358-1.86 2.354-2.84 2.996 1.31 0.656 2.64 1.423 3.99 2.289 1.69 1.081 3.26 2.349 4.65 3.772 1.4 1.428 2.55 3.055 3.43 4.837 0.88 1.817 1.33 3.8 1.33 5.894 0 3.805-0.73 6.992-2.17 9.475-1.42 2.471-3.23 4.454-5.38 5.917-2.12 1.452-4.45 2.472-6.92 3.015-2.42 0.543-4.73 0.826-6.85 0.826-2.45 0-4.89-0.052-7.26-0.142-2.35-0.094-4.79-0.141-7.23-0.141h-8.23c-0.67 0-1.37 0.03-2.08 0.087-1.53 0.13-3.01 0.167-4.35-0.154-0.54-0.122-1.44-0.571-1.44-2.126 0-0.803 0.41-1.407 1.14-1.683 0.55-0.208 1.26-0.343 2.09-0.409 0.79-0.063 1.62-0.122 2.51-0.193 0.83-0.052 1.63-0.217 2.36-0.484 0.69-0.248 1.23-0.661 1.66-1.263 0.44-0.59 0.66-1.463 0.66-2.594 0-5.276-0.05-10.65-0.14-15.994-0.1-5.347-0.15-10.729-0.15-16.014v-19.504c0-1.204-0.22-2.141-0.66-2.802-0.45-0.677-1.04-1.22-1.74-1.61-0.74-0.408-1.52-0.691-2.33-0.833-0.88-0.17-1.71-0.307-2.5-0.425-0.8-0.134-1.48-0.283-2.02-0.453-1.01-0.319-1.17-1.046-1.17-1.445 0-1.133 0.21-1.765 0.65-2.053 0.37-0.231 0.95-0.331 1.92-0.331 1.96 0 3.93 0.095 5.89 0.288 4.02 0.397 8.28 0.362 12.43-0.047 2.22-0.224 4.53-0.33 6.87-0.33 1.34 0 2.32 0.101 3.01 0.307 0.51 0.153 1.36 0.637 1.36 2.166 0 0.753-0.4 1.308-1.08 1.492-0.48 0.147-1.02 0.217-1.59 0.217-0.38 0-0.5 0.043-0.5 0.043l-0.14 0.047c-1.29 0.253-2.43 0.442-3.45 0.571-0.94 0.118-1.75 0.35-2.41 0.697-0.62 0.318-1.09 0.826-1.44 1.534-0.38 0.751-0.56 1.905-0.56 3.439v19.512c0 1.841 0.21 2.506 0.34 2.735 0.08 0.142 0.42 0.472 1.82 0.472 2.14 0 3.95-0.535 5.39-1.591 1.49-1.097 2.81-2.497 3.93-4.17 1.12-1.676 2.17-3.6 3.07-5.725 0.91-2.14 1.93-4.253 2.98-6.229 1.92-4.98 4.75-9.257 8.43-12.715 3.69-3.468 8.33-5.71 13.81-6.683 0.44-0.066 0.99-0.125 1.63-0.191 0.65-0.064 1.3-0.106 1.95-0.106 1.65 0 2.83 0.144 3.6 0.42l0.22 0.137c0.7 0.701 1.03 1.286 1.03 1.827 0 0.498-0.21 1.369-1.56 1.659"/>
   <path d="m1558 424.9c-0.37 0-0.9-0.153-1.35-0.885-0.24-0.401-0.54-0.845-0.92-1.341-0.34-0.453-0.75-0.901-1.24-1.331-0.41-0.366-0.95-0.602-1.59-0.708-0.92-0.125-1.88-0.196-2.82-0.231-4.12-0.13-7.95-0.064-11.64-0.142-6.24-0.142-13.57-0.123-20.38 0.047-3.81 0.09-7.73 0.232-11.63 0.425-0.83 0.054-1.47 0.236-1.93 0.562-0.48 0.342-0.87 0.696-1.15 1.06-0.31 0.401-0.57 0.75-0.79 1.069-0.42 0.595-0.92 0.713-1.27 0.713-0.98 0-1.75-0.253-2.3-0.767-0.51-0.477-0.89-1.084-1.14-1.792-0.24-0.673-0.39-1.44-0.45-2.273l-0.2-2.223c-0.31-3.22-0.72-5.758-1.21-7.523-0.52-1.865-0.78-3.326-0.78-4.459 0-0.885 0.23-1.499 0.7-1.872 0.42-0.342 1-0.507 1.78-0.507 0.5 0 0.96 0.436 1.68 1.605 0.57 0.963 1.13 1.978 1.67 3.016 0.52 0.996 1.01 1.969 1.47 2.89l0.14 0.29c0.6 1.185 0.94 1.652 1.12 1.827 1.18 1.128 2.43 1.895 3.69 2.278 1.29 0.396 2.66 0.59 4.05 0.59h5.87c1.5 0 2.9-0.106 4.16-0.324 1.19-0.196 1.66-0.507 1.71-0.724 0.06-0.267 0.1-0.81 0.13-1.653 0.03-0.849 0.05-1.423 0.05-1.742v-45.823c0-1.728-0.1-3.196-0.28-4.352-0.17-1.11-0.52-2.038-1.03-2.746-0.5-0.689-1.26-1.237-2.26-1.645-1.03-0.413-2.46-0.72-4.33-0.913-0.14-0.043-0.43-0.083-1.08-0.083-0.69 0-1.37-0.118-2.02-0.373-0.55-0.217-1.21-0.744-1.21-2.006 0-1.402 0.92-1.662 1.32-1.709 0.55-0.066 1.09-0.102 1.62-0.102 2.28 0 4.56 0.078 6.81 0.243 4.52 0.319 9.7 0.288 14.22-7e-3 2.5-0.158 5.04-0.236 7.57-0.236 0.79 0 1.47 0.036 1.97 0.102 0.77 0.106 1.16 0.842 1.16 2.181 0 0.621-0.28 1.683-2.17 1.907l-3.74 0.425c-1.33 0.146-2.61 0.512-3.79 1.086-1.09 0.512-1.76 1.539-2.05 3.125-0.18 0.979-0.29 1.966-0.32 2.943-0.03 1.004-0.05 2.014-0.05 2.998 0.12 5.587 0.11 11.205-0.04 16.703-0.17 5.403-0.18 10.997-0.05 16.631l0.19 11.557c0 1.416 0.08 2.478 0.22 3.158 0.18 0.789 0.39 1.103 0.51 1.221 0.14 0.146 0.28 0.224 0.53 0.212 0.83-0.078 1.76-0.066 3.2 0 1.76 0.076 4.15 0.071 6.51-0.101 1.42-0.088 2.75-0.248 3.97-0.461 1.21-0.217 2.25-0.547 3.1-0.991 0.79-0.401 1.31-0.925 1.57-1.544 0.35-0.861 0.5-1.794 0.44-2.78-0.06-1.063-0.14-2.052-0.23-2.96-0.11-0.987-0.09-1.79 0.06-2.455 0.1-0.503 0.49-1.353 1.88-1.353 1.23 0 2.1 0.845 2.59 2.498 0.42 1.392 0.75 3.078 0.98 5.02 0.2 1.846 0.39 3.817 0.56 5.847 0.16 1.921 0.45 3.486 0.87 4.631 0.3 0.815 0.28 1.711-0.05 2.66-0.25 0.737-0.91 1.617-2.58 1.617"/>
   <path d="m1646.6 421.26-0.2 0.035c-1.68 0-3.42-0.047-5.15-0.141-3.32-0.189-6.68-0.206-10 0.042-1.7 0.127-3.39 0.194-5.02 0.194-0.56 0-1.09-0.071-1.58-0.213-0.41-0.118-1.09-0.488-1.09-1.692 0-1.376 0.66-2.037 1.19-2.344 0.66-0.383 1.46-0.661 2.37-0.831 0.86-0.161 1.73-0.3 2.63-0.425 0.77-0.111 1.4-0.389 1.87-0.807 0.46-0.409 0.78-1.235 0.95-2.443 0.18-1.317 0.28-2.838 0.28-4.513 0-1.693-0.04-3.459-0.1-5.281-0.06-1.834-0.09-3.481-0.09-4.95v-20.259c0-1.823-0.19-3.628-0.56-5.394-0.56-3.149-1.34-5.821-2.32-7.952-0.98-2.094-2.25-3.834-3.79-5.151-1.53-1.326-3.42-2.289-5.64-2.861-2.23-0.59-4.97-0.885-8.13-0.885-2.65 0-5.09 0.284-7.25 0.838-2.1 0.538-3.95 1.511-5.48 2.896-1.54 1.386-2.79 3.322-3.73 5.748-0.95 2.448-1.56 5.646-1.81 9.487-0.12 1.893-0.2 3.805-0.24 5.84-0.03 1.952-0.04 3.906-0.04 5.858v17.427c0 0.94 0.01 1.948 0.04 3.015 0.04 1.057 0.1 2.089 0.2 3.087 0.09 0.991 0.2 1.9 0.32 2.707 0.12 0.779 0.27 1.369 0.43 1.752 0.38 0.85 0.98 1.4 1.86 1.664 1.05 0.314 2.09 0.559 3.11 0.744 1.09 0.188 2.08 0.413 2.95 0.677 1.11 0.333 1.69 1.116 1.69 2.254 0 0.992-0.57 1.636-1.62 1.806-0.8 0.134-1.45 0.201-1.99 0.201-2.2 0-4.4-0.095-6.54-0.288-3.96-0.354-8.29-0.397-12.39 0-2 0.193-4.04 0.288-6.06 0.288-1.58 0-2.47-0.867-2.47-2.377 0-0.633 0.26-1.157 0.76-1.511 0.41-0.307 0.91-0.515 1.45-0.626 0.49-0.094 0.99-0.16 1.5-0.2 0.49-0.029 0.89-0.043 1.22-0.043h1.04c1.09 0 1.93-0.292 2.47-0.859 0.6-0.64 1.02-1.381 1.28-2.273 0.26-0.914 0.42-1.94 0.45-3.031 0.03-1.128 0.05-2.131 0.05-3.009 0-5.387-0.06-10.733-0.19-15.896-0.13-5.315-0.19-10.678-0.19-15.916v-3.51c0-0.578 0.01-1.157 0.05-1.735 0.03-0.578 0.08-1.157 0.14-1.728 0.39-3.746 1.35-6.878 2.83-9.335 1.48-2.453 3.43-4.459 5.77-5.958 2.32-1.48 5-2.542 7.96-3.161 2.93-0.609 6.05-0.909 9.3-0.909 2.73 0 5.57 0.206 8.42 0.614 2.86 0.425 5.66 1.157 8.37 2.165 3.12 1.239 5.56 3.026 7.26 5.311 1.66 2.247 2.93 4.808 3.77 7.615 0.84 2.761 1.34 5.724 1.5 8.797 0.15 3.068 0.24 6.012 0.24 8.743 0 1.704-0.02 3.416-0.05 5.12-0.04 1.706-0.05 3.406-0.05 5.103 0 1.9-0.01 4.107-0.04 6.638-0.04 2.513-0.04 4.938 0 7.274 0.03 2.307 0.14 4.344 0.32 6.048 0.25 2.264 0.64 2.537 0.68 2.561 0.1 0.064 0.48 0.229 1.62 0.389 0.93 0.135 1.92 0.312 2.93 0.532 1.06 0.229 1.99 0.547 2.79 0.944 1.21 0.606 1.46 1.492 1.46 2.129 0 0.614-0.31 1.463-1.71 1.964"/>
   <path d="m443.25 100.22h11.546v144.73h-11.546v-144.73 0.206z"/>
   <path d="m492.72 100.22h11.133v80.819c4.398 4.948 9.484 8.934 15.257 11.958 5.635 2.886 10.927 4.33 15.875 4.33 3.024 0 5.773-0.482 8.247-1.444 2.474-0.824 4.398-1.993 5.772-3.505 1.65-1.924 2.887-4.192 3.711-6.803 0.825-2.612 1.238-6.323 1.238-11.133v-74.222h11.545v79.994c0 2.749-0.344 5.361-1.031 7.835-0.824 2.474-1.855 4.673-3.092 6.597-2.062 3.849-5.155 6.873-9.278 9.072s-8.934 3.299-14.432 3.299c-6.048 0-11.889-1.444-17.525-4.33-5.772-2.886-11.27-7.079-16.493-12.576-0.138 4.673-0.619 8.521-1.443 11.545-0.825 3.024-1.375 4.811-1.65 5.361l-11.133-2.887c0.825-1.649 1.649-4.123 2.474-7.422s1.237-7.834 1.237-13.607v-83.087 0.206z"/>
   <path d="m627.95 97.748c11.409 0.1374 20.411 3.161 27.009 9.071 6.597 5.773 9.965 13.608 10.102 23.504 0 7.147-2.13 13.126-6.391 17.937-4.398 4.811-11.339 8.178-20.823 10.102l-13.608 2.887c-5.91 1.237-10.308 3.298-13.195 6.185-2.886 3.024-4.329 7.01-4.329 11.958 0 5.772 1.924 10.446 5.773 14.019 3.848 3.574 9.483 5.429 16.906 5.567 4.673 0 9.14-0.687 13.401-2.062 4.261-1.374 8.315-3.161 12.164-5.36l4.536 8.453c-4.124 2.474-8.797 4.398-14.02 5.773-5.223 1.511-10.652 2.267-16.288 2.267-10.858-0.137-19.38-2.955-25.565-8.453-6.185-5.497-9.346-12.713-9.484-21.648 0-7.422 2.2-13.469 6.598-18.143 4.398-4.673 10.721-7.834 18.968-9.483l13.195-2.474c6.872-1.512 11.82-3.918 14.844-7.216 3.024-3.299 4.536-7.423 4.536-12.371 0-6.46-2.131-11.614-6.392-15.463-4.398-3.848-10.446-5.772-18.143-5.772-6.047 0-11.82 0.824-17.318 2.474-5.498 1.649-10.652 3.986-15.463 7.01l-4.536-8.453c4.948-3.162 10.584-5.636 16.906-7.423 6.323-1.7864 12.852-2.6798 19.587-2.6799v0.2062z"/>
   <path d="m714.94 97.336c3.299 0 6.323 0.2749 9.072 0.8247s5.223 1.3745 7.422 2.4737l-1.65 7.423c-1.374-0.688-2.955-1.238-4.741-1.65-1.65-0.412-3.712-0.618-6.186-0.618-5.223 0-8.934 1.443-11.133 4.329-2.199 2.887-3.299 7.216-3.299 12.989v72.985h22.679l3.711 8.659h-25.977c0 4.673 0.137 9.071 0.412 13.195 0.275 4.123 0.55 7.628 0.825 10.514 0.275 3.024 0.55 4.948 0.825 5.773l-12.165-2.474c-0.274-0.825-0.549-2.68-0.824-5.567-0.275-3.023-0.55-6.46-0.825-10.308-0.275-3.849-0.412-7.628-0.412-11.339h-13.608v-8.66h13.608v-76.077c0-4.81 0.687-8.865 2.061-12.164 1.375-3.299 3.437-5.773 6.186-7.422 1.649-1.0995 3.573-1.993 5.772-2.6802 2.199-0.8247 4.742-1.237 7.629-1.237v0.2062z"/>
   <path d="m760.29 229.28c2.474 0 4.605 0.893 6.392 2.68 1.786 1.65 2.68 3.78 2.68 6.392 0 2.748-0.894 4.948-2.68 6.597-1.787 1.649-3.918 2.474-6.392 2.474-2.611 0-4.81-0.893-6.597-2.68-1.787-1.65-2.68-3.78-2.68-6.391 0-2.612 0.893-4.742 2.68-6.392 1.787-1.787 3.986-2.68 6.597-2.68zm-6.185-129.06h11.958v107.21l-11.958-1.856v-105.15 0.206z"/>
   <path d="m825.42 97.336c3.299 0 6.323 0.2749 9.071 0.8247 2.749 0.5498 5.223 1.3745 7.423 2.4737l-1.65 7.423c-1.374-0.688-2.955-1.238-4.742-1.65-1.649-0.412-3.711-0.618-6.185-0.618-5.223 0-8.934 1.443-11.133 4.329-2.199 2.887-3.299 7.216-3.299 12.989v72.985h22.679l3.711 8.659h-25.977c0 4.673 0.137 9.071 0.412 13.195 0.275 4.123 0.55 7.628 0.825 10.514 0.274 3.024 0.549 4.948 0.824 5.773l-12.164-2.474c-0.275-0.825-0.55-2.68-0.824-5.567-0.275-3.023-0.55-6.46-0.825-10.308-0.275-3.849-0.413-7.628-0.413-11.339h-13.607v-8.66h13.607v-76.077c0-4.81 0.688-8.865 2.062-12.164 1.375-3.299 3.436-5.773 6.185-7.422 1.65-1.0995 3.574-1.993 5.773-2.6802 2.199-0.8247 4.742-1.237 7.628-1.237v0.2062z"/>
   <path d="m934.68 96.923 7.628 7.6287c-1.924 2.061-3.298 4.673-4.123 7.834-0.825 3.299-1.237 8.041-1.237 14.226v80.407l-11.546-2.062v-78.551c-3.573-6.048-7.972-10.721-13.195-14.02s-10.583-4.948-16.081-4.948c-2.886 0-5.566 0.412-8.041 1.237-2.474 0.825-4.535 1.924-6.185 3.299-2.199 1.787-3.848 4.054-4.948 6.803-1.099 2.887-1.649 6.529-1.649 10.927v77.521l-11.133-2.474v-78.345c0-3.436 0.412-6.529 1.237-9.278 0.687-2.886 1.718-5.292 3.092-7.216 2.062-3.848 5.155-6.872 9.278-9.071 4.123-2.1996 9.209-3.2992 15.257-3.2992 6.872 0 13.195 1.4432 18.967 4.3292 5.773 2.749 10.721 6.873 14.845 12.371 0.549-4.124 1.512-7.491 2.886-10.103 1.374-2.611 3.299-5.0165 5.773-7.2157v0.2062z"/>
   <path d="m995.9 97.336c3.299 0 6.327 0.2749 9.067 0.8247 2.75 0.5498 5.23 1.3745 7.43 2.4737l-1.65 7.423c-1.38-0.688-2.96-1.238-4.74-1.65-1.65-0.412-3.72-0.618-6.189-0.618-5.223 0-8.934 1.443-11.134 4.329-2.199 2.887-3.298 7.216-3.298 12.989v72.985h22.681l3.71 8.659h-25.979c0 4.673 0.138 9.071 0.412 13.195 0.275 4.123 0.55 7.628 0.825 10.514 0.275 3.024 0.55 4.948 0.825 5.773l-12.164-2.474c-0.275-0.825-0.55-2.68-0.825-5.567-0.275-3.023-0.55-6.46-0.825-10.308-0.275-3.849-0.412-7.628-0.412-11.339h-13.607v-8.66h13.607v-76.077c0-4.81 0.687-8.865 2.062-12.164 1.374-3.299 3.436-5.773 6.185-7.422 1.649-1.0995 3.573-1.993 5.773-2.6802 2.199-0.8247 4.742-1.237 7.628-1.237v0.2062z"/>
   <path d="m1073.4 98.16c6.74 0 12.85 1.0309 18.35 3.0927 5.64 1.924 10.65 4.811 15.05 8.659l-4.53 7.422c-3.58-3.299-7.56-5.773-11.96-7.422-4.4-1.512-9.21-2.268-14.43-2.268-5.91 0-11.21 1.1-15.88 3.299s-8.45 5.429-11.34 9.69c-1.92 3.024-3.5 6.735-4.74 11.133s-1.93 9.415-2.06 15.051v5.36h67.62v2.474c0 7.697-0.41 14.157-1.24 19.38-0.82 5.223-2.13 9.622-3.91 13.195-1.79 3.574-4.06 6.735-6.81 9.484-3.16 3.161-6.94 5.704-11.34 7.628-4.39 1.925-9.41 2.887-15.05 2.887-6.32 0-11.95-1.237-16.9-3.711s-9.21-5.842-12.79-10.103c-4.12-4.948-7.21-10.652-9.27-17.112-2.06-6.322-3.1-13.951-3.1-22.885 0-11.133 1.72-20.823 5.16-29.07s8.45-14.707 15.05-19.38 14.71-7.0098 24.33-7.0099zm-31.75 63.089c0.69 12.507 3.57 21.854 8.66 28.039 5.22 6.322 11.82 9.484 19.79 9.484 4.95 0 9.21-0.962 12.79-2.887 3.57-2.061 6.39-4.742 8.45-8.04 1.65-2.749 2.95-6.254 3.92-10.515 0.96-4.123 1.44-9.346 1.44-15.669h-55.26v0.206z"/>
   <path d="m1222.4 97.748c8.24 0 15.32 1.7868 21.23 5.36 6.05 3.574 10.72 8.247 14.02 14.02 2.48 4.398 4.4 9.484 5.78 15.257 1.37 5.635 2.06 12.026 2.06 19.174 0 8.246-0.83 15.531-2.48 21.854-1.65 6.322-3.98 11.82-7.01 16.493-3.02 4.811-7.35 9.003-12.98 12.577-5.64 3.573-12.79 5.429-21.45 5.566-7.42-0.137-13.88-1.58-19.38-4.329-5.49-2.887-9.89-6.529-13.19-10.927-3.58-4.673-6.32-10.309-8.25-16.906-1.92-6.598-2.88-14.02-2.88-22.267 0-7.972 0.82-15.119 2.47-21.441 1.65-6.323 4.05-11.821 7.22-16.494 3.29-5.086 7.76-9.278 13.4-12.577 5.63-3.2983 12.5-5.0164 20.61-5.1539zm0 9.484c-5.77 0.137-10.72 1.443-14.85 3.917-4.12 2.474-7.21 5.361-9.27 8.659-2.2 3.574-3.92 8.385-5.16 14.432-1.37 6.048-2.06 12.852-2.06 20.411 0 6.598 0.55 12.439 1.65 17.525 1.1 5.085 2.61 9.415 4.54 12.988 1.92 3.574 4.94 6.598 9.07 9.072 4.12 2.474 9.07 3.78 14.84 3.917 5.77 0 10.86-1.306 15.26-3.917 4.4-2.612 7.69-6.048 9.89-10.309 1.93-3.848 3.44-8.521 4.54-14.019s1.65-11.958 1.65-19.38c0-6.048-0.41-11.133-1.24-15.257-0.82-4.123-2.2-8.247-4.12-12.37-1.93-4.673-4.95-8.522-9.07-11.546-4.13-3.024-9.35-4.536-15.67-4.536z"/>
   <path d="m1296.2 100.22h11.96v96.488h24.33l3.3 8.659h-27.83v19.38c0 6.048 1.3 10.721 3.91 14.02 2.62 3.299 6.4 4.948 11.34 4.948 2.75 0 5.43-0.412 8.04-1.237 2.48-0.825 4.75-1.924 6.81-3.299l4.53 8.247c-2.75 1.787-5.84 3.093-9.27 3.917-3.44 0.962-7.08 1.444-10.93 1.444-3.58 0-6.74-0.55-9.49-1.65-2.74-0.962-5.22-2.336-7.42-4.123-2.06-1.512-4.05-4.055-5.98-7.629-1.92-3.436-2.95-8.384-3.09-14.844v-19.792h-10.1v-8.659h10.1v-96.488 0.2062z"/>
   <path d="m1489.2 109.71-6.6 8.247c-4.67-3.299-9.35-5.773-14.02-7.422-4.67-1.65-9.76-2.474-15.26-2.474-8.24 0-15.67 1.993-22.26 5.978-6.74 3.986-12.24 10.24-16.5 18.762-2.33 4.673-4.19 10.102-5.56 16.288-1.38 6.322-2.07 13.607-2.07 21.854 0 9.071 0.69 17.181 2.07 24.328 1.37 7.147 3.29 13.332 5.77 18.555 3.71 7.697 8.66 13.539 14.84 17.525 6.05 4.123 13.2 6.185 21.44 6.185 5.5 0 10.59-0.687 15.26-2.062 4.54-1.512 9-3.917 13.4-7.216l6.39 7.835c-4.94 3.848-10.31 6.735-16.08 8.659s-12.02 2.886-18.76 2.886c-9.35 0-17.8-2.199-25.36-6.597-7.7-4.399-14.09-10.584-19.17-18.556-4.13-6.322-7.29-13.744-9.49-22.266s-3.29-17.731-3.29-27.627c0-10.858 1.3-20.961 3.91-30.307 2.48-9.347 6.46-17.318 11.96-23.916 5.77-7.01 12.1-12.027 18.97-15.05 6.87-3.162 14.29-4.7423 22.26-4.7423 6.74 0 13.27 1.0308 19.59 3.0923 6.32 1.924 12.23 4.811 17.73 8.659v0.207z"/>
   <path d="m1549.2 97.748c8.25 0 15.32 1.7868 21.23 5.36 6.05 3.574 10.73 8.247 14.02 14.02 2.48 4.398 4.4 9.484 5.78 15.257 1.37 5.635 2.06 12.026 2.06 19.174 0 8.246-0.83 15.531-2.48 21.854-1.64 6.322-3.98 11.82-7 16.493-3.03 4.811-7.36 9.003-12.99 12.577-5.64 3.573-12.79 5.429-21.45 5.566-7.42-0.137-13.88-1.58-19.38-4.329-5.49-2.887-9.89-6.529-13.19-10.927-3.57-4.673-6.32-10.309-8.25-16.906-1.92-6.598-2.88-14.02-2.88-22.267 0-7.972 0.82-15.119 2.47-21.441 1.65-6.323 4.06-11.821 7.22-16.494 3.3-5.086 7.76-9.278 13.4-12.577 5.63-3.2983 12.51-5.0164 20.61-5.1539zm0 9.484c-5.77 0.137-10.72 1.443-14.84 3.917-4.13 2.474-7.22 5.361-9.28 8.659-2.2 3.574-3.92 8.385-5.16 14.432-1.37 6.048-2.06 12.852-2.06 20.411 0 6.598 0.55 12.439 1.65 17.525 1.1 5.085 2.61 9.415 4.54 12.988 1.92 3.574 4.94 6.598 9.07 9.072 4.12 2.474 9.07 3.78 14.84 3.917 5.78 0 10.86-1.306 15.26-3.917 4.4-2.612 7.7-6.048 9.9-10.309 1.92-3.848 3.43-8.521 4.53-14.019s1.65-11.958 1.65-19.38c0-6.048-0.41-11.133-1.24-15.257-0.82-4.123-2.2-8.247-4.12-12.37-1.92-4.673-4.95-8.522-9.07-11.546-4.13-3.024-9.35-4.536-15.67-4.536z"/>
   <path d="m1622.6 100.22h10.93v80.819c4.95 5.498 9.76 9.484 14.43 11.958 4.68 2.611 9.21 3.917 13.61 3.917 3.16 0 5.84-0.412 8.04-1.237s3.99-2.062 5.36-3.711c1.38-1.649 2.41-3.711 3.09-6.185 0.55-2.474 0.83-5.36 0.83-8.659v-76.902h11.54v79.17c4.95 5.772 9.76 10.239 14.44 13.401 4.81 3.024 9.69 4.536 14.63 4.536 5.91 0 10.24-1.65 12.99-4.949 2.75-3.298 4.13-7.834 4.13-13.607v-78.345h11.95v79.17c0 8.522-2.33 15.256-7.01 20.205-4.53 5.085-10.85 7.697-18.96 7.834-5.78 0-11.55-1.649-17.32-4.948s-10.93-7.697-15.46-13.195c-1.65 5.498-4.68 9.896-9.08 13.195-4.26 3.299-9.55 4.948-15.87 4.948-5.91-0.137-11.62-1.855-17.11-5.154-5.64-3.299-10.24-7.147-13.82-11.546-0.13 4.261-0.62 7.903-1.44 10.927-0.82 2.887-1.37 4.605-1.65 5.155l-11.13-2.474c0.27-0.55 0.82-2.475 1.65-5.773 0.82-3.299 1.3-8.385 1.44-15.257v-83.293 0.206z"/>
   <path d="m1785 56.72 11.55 2.474v51.955c3.57-4.123 7.97-7.285 13.19-9.484 5.23-2.1989 10.59-3.2985 16.09-3.2985 6.87 0 13.05 1.6495 18.55 4.9485 5.5 3.298 10.17 7.972 14.02 14.019 2.75 4.261 4.81 9.278 6.19 15.051 1.37 5.772 2.06 12.851 2.06 21.235 0 9.347-0.96 17.319-2.89 23.916-1.92 6.735-4.81 12.439-8.66 17.112-3.43 4.261-7.56 7.491-12.37 9.69-4.81 2.2-9.89 3.299-15.25 3.299-6.05 0-11.76-1.374-17.12-4.123-5.22-2.749-9.89-6.667-14.02-11.752 0 5.085-0.13 8.865-0.41 11.339-0.27 2.474-0.55 3.918-0.82 4.33l-11.76-2.062c0.28-0.55 0.69-2.474 1.24-5.773 0.55-3.298 0.83-8.521 0.83-15.669v-127.41zm38.76 50.512c-4.81 0-9.62 1.237-14.43 3.711-4.67 2.474-8.93 6.116-12.78 10.927v59.377c4.12 5.223 8.66 9.14 13.61 11.752 4.94 2.611 10.17 3.917 15.67 3.917 4.39 0 8.52-0.962 12.37-2.886 3.84-2.062 6.94-4.948 9.27-8.659 2.2-3.574 3.85-8.247 4.95-14.02s1.65-12.233 1.65-19.38c0-6.598-0.55-12.37-1.65-17.318-1.1-4.949-2.47-9.072-4.12-12.371-2.48-4.535-5.91-8.109-10.31-10.721-4.4-2.474-9.35-3.711-14.84-3.711v0.207z"/>
   <path d="m1967.3 96.923 7.63 7.6287c-1.93 2.061-3.3 4.673-4.13 7.834-0.82 3.299-1.24 8.041-1.24 14.226v80.407l-11.54-2.062v-78.551c-3.57-6.048-7.97-10.721-13.2-14.02-5.22-3.299-10.58-4.948-16.08-4.948-2.88 0-5.56 0.412-8.04 1.237-2.47 0.825-4.53 1.924-6.18 3.299-2.2 1.787-3.85 4.054-4.95 6.803-1.1 2.887-1.65 6.529-1.65 10.927v77.521l-11.13-2.474v-78.345c0-3.436 0.41-6.529 1.23-9.278 0.69-2.886 1.72-5.292 3.1-7.216 2.06-3.848 5.15-6.872 9.27-9.071 4.13-2.1996 9.21-3.2992 15.26-3.2992 6.87 0 13.2 1.4432 18.97 4.3292 5.77 2.749 10.72 6.873 14.84 12.371 0.55-4.124 1.51-7.491 2.89-10.103 1.37-2.611 3.3-5.0165 5.77-7.2157v0.2062z"/>
   <path d="m2028.5 97.336c3.3 0 6.32 0.2749 9.07 0.8247s5.22 1.3745 7.42 2.4737l-1.65 7.423c-1.37-0.688-2.95-1.238-4.74-1.65-1.65-0.412-3.71-0.618-6.19-0.618-5.22 0-8.93 1.443-11.13 4.329-2.2 2.887-3.3 7.216-3.3 12.989v72.985h22.68l3.71 8.659h-25.98c0 4.673 0.14 9.071 0.42 13.195 0.27 4.123 0.55 7.628 0.82 10.514 0.28 3.024 0.55 4.948 0.83 5.773l-12.17-2.474c-0.27-0.825-0.55-2.68-0.82-5.567-0.28-3.023-0.55-6.46-0.83-10.308-0.27-3.849-0.41-7.628-0.41-11.339h-13.61v-8.66h13.61v-76.077c0-4.81 0.69-8.865 2.06-12.164 1.38-3.299 3.44-5.773 6.19-7.422 1.65-1.0995 3.57-1.993 5.77-2.6802 2.2-0.8247 4.74-1.237 7.63-1.237v0.2062z"/>
   <path d="m2106 98.16c6.74 0 12.86 1.0309 18.35 3.0927 5.64 1.924 10.66 4.811 15.05 8.659l-4.53 7.422c-3.57-3.299-7.56-5.773-11.96-7.422-4.4-1.512-9.21-2.268-14.43-2.268-5.91 0-11.2 1.1-15.88 3.299-4.67 2.199-8.45 5.429-11.34 9.69-1.92 3.024-3.5 6.735-4.74 11.133-1.23 4.398-1.92 9.415-2.06 15.051v5.36h67.62v2.474c0 7.697-0.41 14.157-1.23 19.38-0.83 5.223-2.13 9.622-3.92 13.195-1.79 3.574-4.05 6.735-6.8 9.484-3.16 3.161-6.94 5.704-11.34 7.628-4.4 1.925-9.42 2.887-15.05 2.887-6.33 0-11.96-1.237-16.91-3.711s-9.21-5.842-12.78-10.103c-4.13-4.948-7.22-10.652-9.28-17.112-2.06-6.322-3.09-13.951-3.09-22.885 0-11.133 1.72-20.823 5.15-29.07 3.44-8.247 8.46-14.707 15.05-19.38 6.6-4.673 14.71-7.0098 24.33-7.0099zm-31.75 63.089c0.69 12.507 3.58 21.854 8.66 28.039 5.23 6.322 11.82 9.484 19.8 9.484 4.94 0 9.21-0.962 12.78-2.887 3.57-2.061 6.39-4.742 8.45-8.04 1.65-2.749 2.96-6.254 3.92-10.515 0.96-4.123 1.44-9.346 1.44-15.669h-55.25v0.206z"/>
   <path d="m2170.3 100.22h11.54v69.48c0 4.123 0.55 7.422 1.65 9.896s3.03 5.017 5.78 7.628c2.74 2.749 5.63 4.811 8.65 6.185 3.03 1.375 6.19 2.062 9.49 2.062 0.82 0 1.65-0.069 2.47-0.206 0.83-0.275 1.51-0.55 2.06-0.825l4.54 12.37c-0.27 0.138-0.96 0.344-2.06 0.619s-2.34 0.412-3.71 0.412c-2.89 0-5.84-0.55-8.87-1.649-3.02-1.1-6.05-2.818-9.07-5.154-2.2-1.65-4.26-3.437-6.18-5.361-1.93-2.062-3.58-4.192-4.95-6.391 0 5.36-0.42 9.552-1.24 12.576s-1.44 4.811-1.86 5.361l-11.54-2.887c0.41-0.549 1.03-2.474 1.85-5.772 0.83-3.299 1.24-8.385 1.24-15.257v-82.881 0.206z"/>
   <path d="m2270.9 110.32c6.6-4.26 13.47-7.353 20.62-9.277 7.15-2.062 14.85-3.0928 23.09-3.0929 6.33 1e-4 12.1 0.6873 17.32 2.0619 5.22 1.374 9.9 3.505 14.02 6.391 5.64 3.849 9.97 8.659 12.99 14.432s4.54 12.095 4.54 18.968c0 4.948-0.83 9.621-2.48 14.019-1.65 4.399-3.92 8.247-6.8 11.546-3.03 3.299-6.46 6.048-10.31 8.247-3.99 2.199-8.66 4.123-14.02 5.773l-15.67 4.948c-4.4 1.374-8.25 2.886-11.55 4.536-3.29 1.649-5.97 3.436-8.04 5.36-2.2 2.199-3.71 4.811-4.53 7.834-0.96 3.024-1.44 6.254-1.44 9.691 0.13 8.384 3.09 14.913 8.86 19.586 5.77 4.535 13.33 6.803 22.68 6.803 6.32 0 12.09-0.893 17.32-2.68 5.22-1.787 10.79-4.604 16.7-8.453l5.36 8.659c-5.77 4.124-11.96 7.285-18.56 9.484-6.59 2.199-13.67 3.299-21.23 3.299-8.52 0-16.08-1.581-22.68-4.742s-11.82-7.628-15.67-13.401-5.77-12.645-5.77-20.617c0-4.673 0.68-9.003 2.06-12.989 1.37-4.123 3.57-7.834 6.6-11.133 2.61-2.749 5.84-5.086 9.69-7.01 3.84-1.924 8.59-3.78 14.22-5.567l14.64-4.535c3.85-1.1 7.42-2.543 10.72-4.33 3.3-1.649 6.19-3.711 8.66-6.185 2.47-2.337 4.33-5.154 5.57-8.453 1.23-3.299 1.85-7.01 1.85-11.133 0-4.948-0.89-9.415-2.68-13.401-1.92-3.849-4.67-7.148-8.25-9.897-3.29-2.474-6.87-4.261-10.72-5.36-3.84-1.1-8.52-1.649-14.02-1.649-7.28 0-14.02 0.962-20.2 2.886-6.19 1.924-12.16 4.948-17.94 9.071l-5.36-9.483v0.206z"/>
   <path d="m2426.9 98.16c6.05 0 11.55 1.0996 16.5 3.2987 4.95 2.199 9.62 5.635 14.02 10.309l-6.39 7.422c-3.3-3.849-7.01-6.735-11.14-8.659-4.12-1.925-8.45-2.887-12.99-2.887-6.87 0-12.57 1.787-17.11 5.361-4.4 3.573-7.7 8.521-9.9 14.844-2.19 6.323-3.29 13.607-3.29 21.854 0 8.659 0.75 16.013 2.26 22.06 1.38 6.048 3.44 10.996 6.19 14.845 2.47 3.711 5.63 6.528 9.48 8.453 3.85 1.924 7.98 2.886 12.37 2.886 4.4 0 8.25-0.687 11.55-2.062 3.3-1.374 6.73-3.642 10.31-6.803l6.18 8.04c-3.3 3.299-7.14 5.979-11.54 8.041s-9.76 3.093-16.08 3.093c-5.36 0-10.31-0.963-14.85-2.887-4.53-1.924-8.86-4.879-12.99-8.865-4.4-4.398-7.97-10.034-10.72-16.906-2.75-6.873-4.12-15.944-4.12-27.215 0-7.972 0.82-14.981 2.47-21.029s4.06-11.408 7.22-16.081c3.57-5.223 8.11-9.209 13.61-11.958 5.49-2.749 11.88-4.1238 19.17-4.1238v0.2061z"/>
   <path d="m2489.4 229.28c2.47 0 4.61 0.893 6.39 2.68 1.79 1.65 2.68 3.78 2.68 6.392 0 2.748-0.89 4.948-2.68 6.597-1.78 1.649-3.92 2.474-6.39 2.474-2.61 0-4.81-0.893-6.6-2.68-1.78-1.65-2.68-3.78-2.68-6.391 0-2.612 0.9-4.742 2.68-6.392 1.79-1.787 3.99-2.68 6.6-2.68zm-6.18-129.06h11.95v107.21l-11.95-1.856v-105.15 0.206z"/>
   <path d="m2570.6 98.16c6.73 0 12.85 1.0309 18.35 3.0927 5.63 1.924 10.65 4.811 15.05 8.659l-4.54 7.422c-3.57-3.299-7.56-5.773-11.95-7.422-4.4-1.512-9.21-2.268-14.44-2.268-5.91 0-11.2 1.1-15.87 3.299s-8.45 5.429-11.34 9.69c-1.93 3.024-3.51 6.735-4.74 11.133-1.24 4.398-1.93 9.415-2.06 15.051v5.36h67.62v2.474c0 7.697-0.41 14.157-1.24 19.38-0.82 5.223-2.13 9.622-3.91 13.195-1.79 3.574-4.06 6.735-6.81 9.484-3.16 3.161-6.94 5.704-11.34 7.628-4.4 1.925-9.41 2.887-15.05 2.887-6.32 0-11.96-1.237-16.9-3.711-4.95-2.474-9.21-5.842-12.79-10.103-4.12-4.948-7.21-10.652-9.27-17.112-2.07-6.322-3.1-13.951-3.1-22.885 0-11.133 1.72-20.823 5.16-29.07 3.43-8.247 8.45-14.707 15.05-19.38s14.7-7.0098 24.33-7.0099zm-31.75 63.089c0.69 12.507 3.57 21.854 8.66 28.039 5.22 6.322 11.82 9.484 19.79 9.484 4.95 0 9.21-0.962 12.78-2.887 3.58-2.061 6.39-4.742 8.46-8.04 1.65-2.749 2.95-6.254 3.91-10.515 0.97-4.123 1.45-9.346 1.45-15.669h-55.26v0.206z"/>
   <path d="m2634.9 100.22h11.14v80.819c4.39 4.948 9.48 8.934 15.25 11.958 5.64 2.886 10.93 4.33 15.88 4.33 3.02 0 5.77-0.482 8.24-1.444 2.48-0.824 4.4-1.993 5.78-3.505 1.65-1.924 2.88-4.192 3.71-6.803 0.82-2.612 1.24-6.323 1.24-11.133v-74.222h11.54v79.994c0 2.749-0.34 5.361-1.03 7.835-0.82 2.474-1.86 4.673-3.09 6.597-2.06 3.849-5.16 6.873-9.28 9.072s-8.93 3.299-14.43 3.299c-6.05 0-11.89-1.444-17.53-4.33-5.77-2.886-11.27-7.079-16.49-12.576-0.14 4.673-0.62 8.521-1.44 11.545-0.83 3.024-1.38 4.811-1.65 5.361l-11.14-2.887c0.83-1.649 1.65-4.123 2.48-7.422 0.82-3.299 1.23-7.834 1.23-13.607v-83.087 0.206z"/>
   <path d="m2779.6 98.16c6.05 0 11.55 1.0996 16.5 3.2987 4.94 2.199 9.62 5.635 14.02 10.309l-6.4 7.422c-3.29-3.849-7.01-6.735-11.13-8.659-4.12-1.925-8.45-2.887-12.99-2.887-6.87 0-12.57 1.787-17.11 5.361-4.4 3.573-7.7 8.521-9.9 14.844s-3.29 13.607-3.29 21.854c0 8.659 0.75 16.013 2.26 22.06 1.38 6.048 3.44 10.996 6.19 14.845 2.47 3.711 5.63 6.528 9.48 8.453 3.85 1.924 7.97 2.886 12.37 2.886s8.25-0.687 11.55-2.062c3.3-1.374 6.73-3.642 10.31-6.803l6.18 8.04c-3.3 3.299-7.15 5.979-11.54 8.041-4.4 2.062-9.76 3.093-16.09 3.093-5.36 0-10.3-0.963-14.84-2.887s-8.87-4.879-12.99-8.865c-4.4-4.398-7.97-10.034-10.72-16.906-2.75-6.873-4.12-15.944-4.12-27.215 0-7.972 0.82-14.981 2.47-21.029s4.06-11.408 7.22-16.081c3.57-5.223 8.11-9.209 13.6-11.958 5.5-2.749 11.89-4.1238 19.18-4.1238v0.2061z"/>
   <path d="m2874.3 98.16c6.74 0 12.85 1.0309 18.35 3.0927 5.64 1.924 10.65 4.811 15.05 8.659l-4.53 7.422c-3.58-3.299-7.56-5.773-11.96-7.422-4.4-1.512-9.21-2.268-14.43-2.268-5.91 0-11.21 1.1-15.88 3.299s-8.45 5.429-11.34 9.69c-1.92 3.024-3.5 6.735-4.74 11.133s-1.92 9.415-2.06 15.051v5.36h67.62v2.474c0 7.697-0.41 14.157-1.23 19.38-0.83 5.223-2.14 9.622-3.92 13.195-1.79 3.574-4.06 6.735-6.81 9.484-3.16 3.161-6.94 5.704-11.34 7.628-4.39 1.925-9.41 2.887-15.05 2.887-6.32 0-11.95-1.237-16.9-3.711s-9.21-5.842-12.78-10.103c-4.13-4.948-7.22-10.652-9.28-17.112-2.06-6.322-3.09-13.951-3.09-22.885 0-11.133 1.71-20.823 5.15-29.07s8.45-14.707 15.05-19.38 14.71-7.0098 24.33-7.0099zm-31.75 63.089c0.69 12.507 3.58 21.854 8.66 28.039 5.22 6.322 11.82 9.484 19.79 9.484 4.95 0 9.21-0.962 12.79-2.887 3.57-2.061 6.39-4.742 8.45-8.04 1.65-2.749 2.95-6.254 3.92-10.515 0.96-4.123 1.44-9.346 1.44-15.669h-55.25v0.206z"/>
   <path d="m94.788 35.745c0.0635 2.5273 0.1143 5.0736 0.1143 7.6579 0 0.762 0.0127 1.4478 0.0571 2.0383 0.0191 0.2858 0.0953 0.5017 0.1905 0.6414 0.0381 0.0571 0.1969 0.2349 0.6985 0.3937 0.3366 0.1016 1.0414 0.2413 2.2986 0.2413 0.7747 0 1.4732 0.1016 2.1082 0.273 1.206 0.3492 1.924 1.3716 1.924 2.7431 0 0.6795-0.318 1.3335-0.908 1.9177l-0.47 0.4953h-6.5656c-0.6731 0-1.3843-0.0445-2.0955-0.1143-1.9113-0.1969-3.6702-0.0953-5.01 0.0889-1.0795 0.1524-2.305 0.2286-3.6639 0.2286h-0.7492c-0.4445 0-0.9208-0.0445-1.4351-0.1334-1.2446-0.1841-2.051-1.143-2.051-2.4193 0-1.8351 1.1684-2.5336 1.67-2.7431 0.6032-0.2476 1.3144-0.4 2.1145-0.4572 0.5651-0.0317 1.1747-0.1206 1.7907-0.2286 0.3301-0.0444 0.6095-0.1841 0.6921-0.2413 0.0127-0.019 0.1524-0.2667 0.2921-1.1556 0.1206-0.8128 0.1841-1.5558 0.1841-2.2415v-1.2827c0-1.1176-0.0127-2.2161-0.0317-3.34-0.0254-1.1303-0.0318-2.286-0.0318-3.4416l-0.0698-6.2292c0-0.7874-0.0572-1.6065-0.1651-2.4637-0.0699-0.6477-0.235-0.8192-0.2921-0.8827-0.2477-0.2095-0.5461-0.3619-0.9588-0.4445-0.635-0.146-1.251-0.2857-1.8478-0.3936-0.6985-0.1334-1.2954-0.2985-1.8161-0.4826-1.1239-0.381-1.8033-1.2763-1.8033-2.3939 0-1.2319 0.654-2.2161 1.7335-2.6098 0.6095-0.2286 1.2509-0.3365 1.8922-0.3365h0.9398c0.7302 0 1.3589 0.0254 1.9113 0.0762 0.527 0.0444 1.0223 0.1143 1.4922 0.1778 0.3873 0.0635 0.8128 0.1079 1.27 0.1524 1.3207 0.1269 3.3717 0.0635 5.1941-0.1334 2.051-0.2159 4.1592-0.3048 6.1086-0.0952 1.4986 0.1524 2.4696 1.2318 2.4696 2.7685 0 1.162-0.749 2.0891-1.955 2.3939-0.5464 0.1651-1.1687 0.2857-1.8735 0.4127-0.654 0.108-1.3081 0.2413-1.9938 0.3746-0.4128 0.0635-0.7049 0.1969-0.8636 0.3366-0.1143 0.1079-0.2794 0.2921-0.362 0.7048-0.1079 0.5779-0.1905 1.1366-0.2286 1.6891v0.8826c0 2.5526 0.0381 5.0672 0.0953 7.5753"/>
   <path d="m128.78 24.485c-0.876-0.6223-1.93-0.9144-3.257-0.9144-1.568 0-2.8 0.3683-3.772 1.0985-1.041 0.8065-1.867 1.8415-2.476 3.0734-0.648 1.3525-1.099 2.8256-1.378 4.3813-0.273 1.6319-0.407 3.2004-0.407 4.6735 0 0.781 0.026 1.5049 0.096 2.1907l0.171 1.7018c0.311 0.3429 0.692 0.7302 1.118 1.1175 0.59 0.5588 1.257 1.0795 1.968 1.5748 0.692 0.4635 1.442 0.8763 2.229 1.2192 2.006 0.8445 4.14 0.4444 5.569-0.3747 0.965-0.5778 1.733-1.2953 2.336-2.2097 0.635-0.9588 1.118-2.0828 1.429-3.3337 0.337-1.2953 0.489-2.6352 0.489-3.975 0-1.2572-0.146-2.6034-0.438-4.0004-0.273-1.3334-0.743-2.5653-1.365-3.6638-0.597-1.035-1.372-1.8923-2.312-2.559m9.538 22.459c-1.245 1.3843-2.794 2.4701-4.572 3.2639-2.902 1.289-6.597 1.5811-9.855 0.654-1.206-0.3556-2.349-0.7937-3.384-1.3398-0.305-0.1524-0.578-0.3112-0.883-0.489 0.711 1.9621 1.581 3.848 2.603 5.645 1.804 3.1559 4.134 5.9943 6.953 8.4199 0.648 0.5715 1.289 1.0795 1.956 1.5811 0.654 0.4699 1.321 0.9271 1.937 1.289 0.165 0.0826 0.457 0.2159 0.883 0.4128 0.495 0.2159 0.958 0.4318 1.409 0.6731 0.521 0.2857 1.003 0.5905 1.41 0.927 0.749 0.6096 1.124 1.289 1.124 2.0383 0 0.7874-0.324 1.4922-0.915 2.0383-0.349 0.3048-0.666 0.5588-0.984 0.743l-0.47 0.2603-0.52-0.0445c-0.654-0.0635-1.372-0.2539-2.191-0.5905-0.686-0.273-1.264-0.5334-1.791-0.7683-3.213-1.4986-6.254-3.3908-9.036-5.6387-2.781-2.2542-5.27-4.8385-7.372-7.6769-2.108-2.8701-3.778-6.0196-4.965-9.366-1.219-3.3718-1.823-6.9785-1.823-10.7 0-1.9176 0.204-3.8226 0.604-5.645 0.419-1.8605 1.047-3.6257 1.911-5.2576 0.863-1.6573 1.987-3.1622 3.353-4.4703 1.365-1.3271 3.028-2.4193 4.997-3.2702 2.356-0.9778 4.737-1.4795 7.099-1.4795 2.445 0 4.705 0.5144 6.744 1.524 2 0.9905 3.714 2.3685 5.149 4.0512 1.397 1.6827 2.496 3.613 3.277 5.7212 0.8 2.1399 1.174 4.3813 1.174 6.6736 0 2.1209-0.311 4.1147-0.952 5.9435-0.667 1.8668-1.626 3.5114-2.87 4.8766"/>
   <path d="m170.06 30.962c-1.282 1.2192-2.857 2.1336-4.673 2.7368-0.559 0.1841-1.13 0.3238-1.727 0.4254 0.768 0.7811 1.517 1.6446 2.241 2.559 0.927 1.1747 1.759 2.4193 2.432 3.6956 0.75 1.416 1.131 2.7431 1.131 3.975 0 1.6446-0.305 3.0924-0.934 4.2734-0.616 1.1557-1.422 2.1209-2.432 2.8765-0.984 0.7366-2.089 1.27-3.295 1.5875-2.324 0.6223-4.826 0.6985-7.392-0.3366-1.206-0.4762-2.311-1.0921-3.321-1.797-1.028-0.7175-1.879-1.5049-2.546-2.3557-0.813-1.0541-1.206-2.1018-1.098-3.2321 0.095-0.6477 0.425-1.2192 0.927-1.7018 0.546-0.4699 1.086-0.5651 1.448-0.5651 0.539 0 1.041 0.2159 1.511 0.6858 0.965 1.0858 1.873 1.9811 2.686 2.6352 1.111 0.927 3.467 1.1239 5.029-0.381 0.736-0.7112 1.117-1.905 1.117-3.5877 0-0.9207-0.279-1.8605-0.838-2.8511-0.628-1.1112-1.435-2.1716-2.387-3.1749-0.978-1.0223-2.032-1.9494-3.15-2.7748-1.136-0.8319-2.178-1.505-3.01-1.9748l-1.32-0.6287c-1.588-0.7747-1.842-1.9176-1.842-2.5399 0-1.6637 1.08-2.813 2.667-2.813 0.61 0 1.226 0.2604 2.115 0.8763 0.45 0.2921 0.781 0.4953 1.143 0.6604 0.577 0.3048 1.111 0.4508 1.682 0.4508l0.311-0.0254c0.934-0.0889 1.816-0.2095 2.655-0.3683 0.889-0.1778 1.676-0.527 2.349-1.0033 0.699-0.5143 1.283-1.1366 1.759-1.8668 0.495-0.781 0.883-1.651 1.149-2.5653 0.286-0.9398 0.419-1.8796 0.419-2.7813 0-1.7843-0.368-3.4225-1.073-4.8512-0.749-1.4605-1.74-2.7876-3.003-3.9179-1.289-1.1683-2.832-2.1907-4.566-3.0415-1.752-0.8509-3.613-1.5621-5.499-2.1145-0.622-0.0762-1.143-0.4064-1.473-0.8827-0.273-0.381-0.457-0.8508-0.514-1.3398-0.076-0.6096 0.076-1.1874 0.419-1.689 0.254-0.3493 0.832-0.9398 1.937-0.9398h0.031c2.528 0.0571 5.163 0.635 7.842 1.7462 2.642 1.0985 5.099 2.5907 7.271 4.4322 2.21 1.8859 4.057 4.0766 5.505 6.5403 1.48 2.5717 2.242 5.3021 2.242 8.1468 0 1.9113-0.356 3.7274-0.991 5.3974-0.692 1.6954-1.664 3.1686-2.934 4.4004"/>
   <path d="m209.16 31.54c-0.26 0.5651-0.781 1.3271-1.95 1.7843-1.206 0.4825-2.463 0.1016-3.301-1.0414l-1.918-2.7558c-0.47-0.6668-0.94-1.3526-1.454-2.0637-0.515-0.7049-0.972-1.3525-1.378-1.8605-0.013-0.0127-0.305-0.2604-1.518-0.5144-1.206-0.2476-2.514-0.4127-3.918-0.4762-1.238-0.0572-2.425-0.0572-3.555 0 0.393 0.4127 0.844 0.8826 1.308 1.3906 0.92 0.9842 1.892 2.0827 2.876 3.3019 1.029 1.2192 1.988 2.4638 2.889 3.7401 0.896 1.2763 1.708 2.5145 2.375 3.7146 0.73 1.2827 1.226 2.4193 1.473 3.4289 1.08 3.8734 0.718 7.0864-1.067 9.5502-1.803 2.4955-4.641 3.7464-8.426 3.7464-0.711 0-1.403-0.0318-2.089-0.0762-0.787-0.0572-1.6-0.2096-2.419-0.4699-0.832-0.2794-1.721-0.7175-2.61-1.3208-0.876-0.5969-1.784-1.416-2.743-2.4701-0.184-0.1714-0.413-0.4699-0.718-0.8699l-0.685-0.9588c-0.318-0.4382-0.578-0.8699-0.788-1.2954-0.247-0.5715-0.381-1.035-0.381-1.4858 0-0.8382 0.375-1.5811 1.061-2.0828 0.736-0.5207 1.67-0.6096 2.495-0.1968 0.578 0.2857 1.054 0.8 1.48 1.5493 0.19 0.3493 0.47 0.7303 0.838 1.1684 0.311 0.3492 0.749 0.6667 1.327 0.9334 0.381 0.1969 1.143 0.4064 2.546 0.4064 2.534 0 3.232-1.0477 3.467-1.4033 0.629-0.9588 0.572-2.4193-0.146-4.3179-0.482-1.1557-1.136-2.4701-1.93-3.8797-0.851-1.4795-1.804-3.0162-2.858-4.5783-1.085-1.5747-2.235-3.1685-3.479-4.7623-1.245-1.5875-2.477-3.0733-3.632-4.356-0.68-0.6731-0.82-1.3843-0.82-1.8542 0-0.4127 0-1.6827 0.966-2.4383 0.438-0.3619 0.997-0.5524 1.651-0.6223l0.476-0.0444c0.902 0 1.498 0.5905 1.873 1.035 1.035 0 2.172 0.0254 3.416 0.0444 1.454 0.0254 2.743 0.0318 3.855 0.0318 2.768-0.0826 5.092-0.2794 6.876-0.5524 1.924-0.2921 3.556-0.5017 4.782-0.5906l0.273-0.0127c0.984 0 2.038 0.6795 2.184 2.2034 0.038 0.4699 0.134 1.1684 0.248 2.0574 0.133 0.8635 0.406 1.9748 0.806 3.2955 0.375 1.2763 1.099 2.7622 2.134 4.4131l0.47 0.7493z"/>
   <path d="m13.241 349.37 133.09 63.371 133.07-63.371z"/>
  </g>
  <g fill-rule="evenodd">
   <path d="m6.9131 324.04h278.8v12.681h-278.8z"/>
   <path d="m6.9131 102.23h76.058v38.029h-76.058z"/>
   <path d="m209.69 102.23h76.026v38.029h-76.026z"/>
   <path d="m108.33 102.23h25.33v38.029h-25.33z"/>
   <path d="m159 102.23h25.33v38.029h-25.33z"/>
  </g>
  <g>
   <path d="m29.094 311.38 3.1622-158.45h-25.33l3.1495 158.45z"/>
   <path d="m79.809 311.38 3.1622-158.45h-25.355l3.1622 158.45z"/>
   <path d="m130.49 311.38 3.163-158.45h-25.349l3.169 158.45z"/>
   <path d="m181.17 311.38 3.162-158.45h-25.33l3.144 158.45z"/>
   <path d="m231.88 311.38 3.162-158.45h-25.355l3.187 158.45z"/>
   <path d="m282.56 311.38 3.162-158.45h-25.33l3.144 158.45z"/>
   <path d="m146.32 444.42-139.4-66.552v-15.811l139.4 66.533 139.4-66.533v15.811z"/>
  </g>
 </g>
</svg>
